<mxfile host="65bd71144e">
    <diagram id="HIP3nbAZw_EuaXWnEj3U" name="Page-1">
        <mxGraphModel dx="995" dy="749" grid="1" gridSize="10" guides="1" tooltips="1" connect="1" arrows="1" fold="1" page="1" pageScale="1" pageWidth="850" pageHeight="1100" math="0" shadow="0">
            <root>
                <mxCell id="0"/>
                <mxCell id="1" parent="0"/>
                <mxCell id="7" value="http://ics2o.mths.ca" style="swimlane;whiteSpace=wrap;html=1;fillColor=default;" parent="1" vertex="1">
                    <mxGeometry x="40" y="50" width="760" height="490" as="geometry"/>
                </mxCell>
                <mxCell id="9" value="&lt;font style=&quot;font-size: 18px;&quot;&gt;Ask your question and spin to get Yes or No!&lt;/font&gt;" style="text;html=1;align=center;verticalAlign=middle;resizable=0;points=[];autosize=1;strokeColor=none;fillColor=none;" parent="7" vertex="1">
                    <mxGeometry x="202.65" y="130" width="380" height="40" as="geometry"/>
                </mxCell>
                <mxCell id="13" value="&lt;font style=&quot;font-size: 18px; color: rgb(255, 255, 255);&quot;&gt;SPIN&lt;/font&gt;" style="whiteSpace=wrap;html=1;fillColor=#FF0000;strokeColor=#82b366;" parent="7" vertex="1">
                    <mxGeometry x="332.5" y="240" width="95" height="40" as="geometry"/>
                </mxCell>
                <mxCell id="8" value="&lt;font style=&quot;font-size: 24px;&quot;&gt;ðŸŽ¡Yes/No Spinner&lt;/font&gt;" style="text;html=1;align=center;verticalAlign=middle;resizable=0;points=[];autosize=1;strokeColor=none;fillColor=none;" parent="7" vertex="1">
                    <mxGeometry x="262.5" y="36" width="220" height="40" as="geometry"/>
                </mxCell>
                <mxCell id="20" value="" style="shape=image;verticalLabelPosition=bottom;labelBackgroundColor=default;verticalAlign=top;aspect=fixed;imageAspect=0;image=data:image/png,iVBORw0KGgoAAAANSUhEUgAAAQ8AAAEMCAYAAADauzOQAAAAAXNSR0IArs4c6QAAAARnQU1BAACxjwv8YQUAAAAJcEhZcwAAFiUAABYlAUlSJPAAAClmSURBVHhe7d15fFTV3T/wz11mn0z2BUISErIQEnZFRBQFFxat669StRUtaLWKdq+2fdpfF/WxtVVbq0Wf1grWKrS2LrWojwsi+04gAUJCgOzrTGafO/c+fyRBPEVMJndm7p35vl8vX7bn3GBeIfcz957vWThFURQQQsgI8WwDIYQMB4UHISQiFB6EkIhQeBBCIkLhQQiJCIUHISQiFB6EkIhQeBBCIkLhQQiJCIUHISQiFB6EkIhQeBBCIkLhQQiJCEerapODoigIhP3whNzwSV74JB/cwX54Qm54Qx54Qx4Ewn4E5SACkh9hJQxFURBWJACAwIngOA4CJ8AkmmHkjTAJZlgNNtgMNtiMKbAZ7LCIFljEgTaTYAbHcey3QhIEhUeCUaDAHXSh09uBTm87jrsaccx5FCfdx+ENuhGSJUhyCJIsQZIlyEoYYSUMWZEhK2HIUKAoMhQAUBQoA/8LHDiA48AB4DgePDjwnACe4yHwAgROhMAJEHkRIm+AgRdhNdoxLqUI4x0lKHQUI9uaixxrLmzGlIE/j+gahYfO+SQvGvqO4HBPLWq796OuuwbOQB9kRYYCeTAUZChQEOu/ao7jwIEDz/HgOR4cBv6dZk5HRUYVKjMnozyjEiVpZbCIVvbLicZReOiAAgXhwSeFoBxEbdd+7GjbjNruGjQ5GxAI+9kv0RUDb8S4lEJUZk7GOWNmoyprGiyiBSIvQuBFekrRKAoPjZIVGd6QG66gC92+Tmw8+R72de7Gyf4mBCR9h8XnMQlm5KcUojprKi4qWIAsay7shhTYjHYInMBeTuKEwkNDZEWGK9CHZvcJHO07jL3tO3C4pxadvg7ISpi9PCkIvIgsczZK0sswPXcWStMqkJ9SgFRTOniOioXxROGhAb6QFw3Oemxt+Qh1PQdwsr8Jvb5uhJM0MD6LwAlIM2ecesWZNeYCFKeVwmaws5eSGKDwiBMZMtrdrdhw4l28f3w9ev09cIdcCIVD7KXkDAy8AXajA2mmdMwvWogL8i/GGHs+BF5kLyVRQuERY2EljB2tm/HG0b+hpnMPAmE/JHlgLgWJjMiLMAomVGZOxjXlS3FO3mwaG4kBCo8oG6qUuENuvN34Bt5qeBXN/SfYy4iKcmxjcNWEG3BF8VWwG+1UsYkSCo8oUaDAG/Kgzd2CN4/+HRtPvgdnsC/mcy2SmcOUhgvyL8ZVpTcgzzYWNqOdQkRFFB5R4Ao4cajnAD44/ja2t26CM9B3aqYmiS0OHFJNaZieOwvzxy9EZcZkOEyp7GUkAhQeKnKH+rG3fQfeavgnDvUchDPQy15C4shhTMXEzGpcOn4xZuadhxQjhchoUHioIBgOYn/nLqw58ByOuxrhDvbTk4ZGcRwHq2hHkaMYt1Qvx+TsGTAJJvYyMgwUHqN0tPcQ/rj/Kezt2AVJDkFWZPYSokE8x0PkDZiUNRl3TrsfE9Iq2EvI56DwiIAkS3AGevH8/mfwzrE3KDB0jud4zC9aiNsmfx3p5gyINFdkWCg8RiAsh9EX6MF7Teux7tAa9Pq72UuIjqWbM3F9xU2YX7gQ6eZMCDzNFTkbCo9h8kle7GzbirV1q1HfW4eQTDNBE5HIiyhLr8T1FTdjZt5s2Aw29hIyiMJjGBr6jmDtoTXY0bqZKihJwmFMxcy82bix8laUpJWx3YTC4+x8khfvNa3HSwf/iC5fB41tJBme45FlycGNlbfi0vGLacMiBoXHZzjZ34Sndz+GvR07EQwH2W6SRIyCEZOzZuCuGd9CoWM82520KDwYwXAQm5s34A97foMuXwfbTZJYpiUbd067H+fnz6O5IRQen1CgoNvXidU1z+LdpjdpaTw5I4NgwPzChfjK5K8h05yV1BsSUXgMPm3UdO3BH/f9Dod7atluQv5DaXoFlk+5F9XZ02EUjGx3Ukj68OgPuvBWwz/x6uG/oMffTateybBwHIcMcyauKVuKxROuScp1MkkdHt2+Tqza8wS2tm6EN+Rhuwn5XBbRivPzL8KKqSuRaclmuxNa0oZHq/skfvrx93DMeZT2CiWjInACilJL8F8XPIqx9nFsd8JKuvAIy2HU9uzHTzZ+B65AH9tNSMQcxlT85MJfojJjSlJMbU+q8PCFvPi4+QM8ufMR+CUf203IqJkEM+6d+T3MHTcfVkNiTypLmvDoC/TiH4f/in8cfhleicY3SPRYRRuuKb8R15QvRZopne1OGEkRHr3+bjy//xl8cPxt+CQv202I6iyiFfMKL8Oy6q8hw5LFdieEhA8PV6APj2z5EfZ17kYwHGC7CYkak2BCVfY0PHj+L+BIwFJuQoeHO9iPH3y4Eod6D9KiNhIXPMejPH0SHp73JGzGFLZb1xIyPBQo6PP34IEP70VD3xG2m5CYG586AY/M+x3SLZkJc/xDwk3MlxUZre5mPLjhPjT21bPdhMRFk7MBD354H1rdzVAS5Ck4ocJDVmSc7G/CY9t+imPOetrBnGiGAgVN/Ufxq63/H8f7jyVEgCRMeChQ0OZpwe92/RK13fsRlmnWKNGWsBxGXU8Nntr1S7R6WnT/4ZYwYx7OQB9+svFbONRzkA6OJpom8iIqMibhJ3MfQ6opje3WjYR48pDCITy06UHUdtdQcBDNk2QJtd01+MWmByDpeN8Y3YdHSA7iF5sfxO6O7VSOJbohKzL2dOzAzzc/qNv5R7oOD2/Ii2f3PonNLRvYLkJ0YUvLBjy750l4Q/qb+azb8PBLPrxZ/zesb3idnjiIbsmKjHea3sSbR/+mu8WaugyPkBzC1taNWHf4RVqrQnTPG/Jg3aEXsbllAyQdHSamu/CQFRmNffV4bu9v0efvYbsJ0aU+fw/+uO8pNPbV6+ZJWnfh0R904dGtP0aHp033dXJChihQ0OFpw6Nbf4L+oJPt1iRdhYckS/j19p/huKuRgoMkHAUKmlwN+PX2n+tiyoFuwkOSQ3il7gVsbqbKCklsm5s34JW6FzQ//qGL8JAVGdtaN+Glg39iuwhJSC8d/BO2t27S9BoYXYRHk6sRz+59AkFZn5NpCBmpoBzAqj1PoMnVyHZphubDo8/fg+f3/x5t7hY6kIkkDUUZWOj5p/1Pa7aqqOnwCMkhvHPsX9jZtpXOViFJJ6yEsbNtC95teguSor0BVM2GhwIFx5xH8ffDL+p27j8hoxUMB7Cubg0a+7S3P41mw6M/4MIzu3+Nbl8X20VIUunxd+HpXY/BHexnu+JKs+Hxr4ZXcbBrH9tMSFI62L0Pbx79O9scV5oMj0M9B7Gubg2NcxAySFZkrKtbg8M9tWxX3GguPPySD7/b9ShcOpmiS0isuIJO/Hbnf2tm9a3mwuOthn+gvqeObSaEAKjvrcNbDf9km+NCU+Fx0tWEV+pW0+sKIZ8hrISxtm41mvuPs10xp5nw8Es+vFT7JzgDvWwXIeQ0fYEevFT7fNxfXzQRHooiY3/nbuxs36qL1YSExJMkS9jRuhk1XXvjuveHJsLDFXTi9fq/aXYaLiFa0xvowRv16+JaWIh7eMiKjLruA9hDu58TMmyKImN3+3bUdR+I230T9/DwSV48X/N03N/fCNEbn+TFCzXPxG0f37iHx+bmDTjac5htJoQMQ33PIWxp/ohtjom4hodf8mHNgWcBju0hhAwLB6w58GxcntzjGh7rG19Di/sk20wIGYFm9wmsb3iNbY66uIVHr78ba+tWs82EkAisPbQ65tXKuIXHB8ffQZevk20mhESgy9eJD46/wzZHFafEYW+/vkAvvvG/yzUxxZYkh3RTJsY7SjDWVgCHMRUG3gCv5EWXrwPNnhNodB3R/QTF/JRC/GbBc0gzpbNdURHz8FAUBf9qeBWr9j4Bnw4P9yX6wHMCbAYbLhy7AJeMW4iilBIInMBedkowHMDOji1Yf+INHOqtQSgc1NzOXZ/HYrDizqn3Y1HJNeC46FchYh4ezkAffrH5Aexp38F2ETJqHMch3ZSBeflXYHHRNcgwZ7GXnJUkS2h01WPNoVU46jwctzkUkZqWcw5+OOcROEypbJfqYjrmoUBBbfd+NPYdZbsIGTWjYEJ1xnQ8MPMh3FKxfMTBAQAiL6IsbSK+P/PnWFZ5F/KsY9lLNK3ReRQHu/bF5KkppuHhC3mxqfnDuM7HJ4nJLFowP/8KrJz6fRSnlrLdI2YRrVhQsBgrpz6AktQytluzXEEnNrV8GJMhgZiGR6e3HTtbt2r6FCyiPybBhEvyF2Jp+e3IMGeCU2nWIQcO5emTsHLqAyh2jD6QYkFRZOxq24ZObzvbpbqYhYckS9jZthVd/g62i5CI8ZyAi/Mvxy0TlyPF6BiYcqkiDhzG2YqwvGolcnXyCtPpa8ee9h1Rrx7FLDz8YR/ePvYGPXUQ1fAcjwUFi/DVqpUwCxa2WzUcx6EibRK+UHxDVP87alEUGf9u/Cf84ehOWY9ZeJx0NaHJ1cA2ExIRo2DCpQVLsKLqvrOWYNXCcTzmjl2AktSymJRBR+uYqwHNrujOo4pZeLxWvxbhKD9GkeRgEa1YMG4xllXeFZPgGGI3pGBp2TKYeDPbpTlhWcJrR9eyzaqKSXh4JS+2t25imwkZMYtoxWUFV2Jp+a0wCbG/icvSKlGUUsw2a9K2lo+jOk8lJuGxteUjOAN9bDMhIzJQVbkC15XeBLvBwXbHhFEw4ZKCRWyzJjkDfdgWxQ/tmITHm/Wvsk2EjAjPCbho7GW4eeJypMQpOIbMyJ7FNmnWm0ejd+9FPTy6fZ2o7aYzZ0nkeI7HgnGLsKL6Pk1UOzLN2ci25LLNmlTTuRs9/ugcFh/18Njdvp0OcSIRMwomLChYjBXVsamqDNc4exHbpEkKZOxp3842qyKq4RFWwni36V+I8do7kiAGqiqLcFvl3ZoKDgDIsuSwTZokyzLeOfavqHyARzU8urwdOOE8FpNFOiSxDFRVlmBp+W1xqap8HhNvYps0SYGCE65j6I7CxltRDY/DPQfhC0evVEQSk0kw4ZJxV+C60pthN6Sw3ZoQkkNsk2Z5JQ+O9Kp/eHzUwkOBgp3tW+ENedguQj7TqapKRfyrKmfTp6MzlX2SFzvbtqj+BhC18HD6e3Hc1Ri306yI/vAcj/njFmqmqnI2rd5mtkmzwnIYTc4GuFSeaxW18Gj3tqLD08Y2E3JGRsGEBeMW447q+zU3OMpyh/px0t3ENmtah7cNbZ4WtnlUohIeiqLgmLOBNv0hw2IWLQNVlUnaq6qcyYHuvZCjUL2IJlegD8ddx1StfEYlPIJyEMec9QhIfraLkE+xiFZcXnClZqsqLFkJ472Tb7HNmueX/Gjsq1d1oDcq4eEJuXGkp071ARqSWD5Zq6LdqgrrpPs46npr2GbNU6CgvrcO7mA/2xWxqISHO+hCu7eVbSbkFEFDa1WGS1Ik/P3oX+CV9FlBbPO0wB1ysc0Ri0p49Add6PFFZz490T+e43GJTqoqQxQo2Nu5A/u6duq2gtjj70J/UMPhIckSDvfUqvpuRRLH0FoVPVRVhihQ0OZpxitHXoAzqG65M5aC4SAO99SqtrdpFMIjhINde9lmQmARLZiv0bUqZ9MX6MGaQ8+i0XWE7dKd2u79CCvqhIfqJ8a5Q/349v/eiQan/n/QZyPyIjLN2cizjkWOZczA+aeCEWFZQn/IhU5fO1o9zej2dyIQpqrT0FqV60tv0c3gKAZ/n5+teRxb2jdCSoCn6QnpFfjlJU+r8negenj0+Xuw/N9fhCuQmHM8bAY7JmdOx6UFS5BrHQObaIdRMMHAG8BxPBRFgaSEEAwH4ZXc6PJ1YmPLe9je8bGupjSryTT4qvLFslt1MziKwTUhT+59GLs7t6n2qB9vDlMqnlv4CtLMGWzXiKkeHk2uBtzx1tKEK9MKnICZObNxU8Vy5FhyYeRNw9pFW4GCkByCJ9iPVxtewr+b/hmV5dFaJXAC5o9biGWVd8Ms6mNwFIPB8fien2N353bdDpCeCQcOqxa9jCLH6PdhVX3M40hvYs3v4MDBJtrxzek/wndn/BQF9iKYBPOwggODX2/kjUg3Z+L2Sffg4TlPYYw1f9hfr2c8x+PicVdgRfX9ugoOT6gfT+55KOGCA4MfZkd7D7HNEVE9POp71PnGtIDnBIyzF+HRC57G7LyLVLnhJ6SW48fnPYZpWefCwBvY7oRhFEyYP24R7qz+hm4GRxUo6Av0YFXN49jdlXjBMaReq+HR7D7BNukSz/EoTa3A92b+DLk2dY8ZzLbk4GuTv4lzcy+AgTey3bpnFi2YP24hbp/0dd0EBwA4A71YXbcKW9s3JswYx5k096tzGJTq4dGRIDNL822F+GrVvci1jlHt4OTTZZlzsKzya5iVOwc8p/pfQ9xYRAsuK7gSXyq/XRdrVYa4Q/34U+3v8XHr+wk/R0mt2d+q/9a2u9X5xuIpxejA9aW3YHzKhKje2JnmHNw+6V7MzruQ7dIlk2DCxfkLcb2O1qpgcHD0qX2PYkvbhoQPDgwuz1eDqneGN+SJ6glVscBzPCamV2NW7gUQeZHtVl2aKR13T/ku5oy5mO3SlYG1Kpdqfgcwlk/y4ok9v8COjs0J/apyOk/QDV9o9PepquHR6WvXfaXFLFiwtOx2mITYbXBrESy4Z8p3cf6YeVF90omW06sqFl1VVdx4Yu9D2NW5LWEHR89EgYIuXwfbPGKq/qZ2eUb/DcXbpIwpqtTAR8okmLGiaiVm512kq0HUobUq+qyq/Aa7kyw4hnT62tmmEVM1PHoD3WyT7lxeeFVUBkiHI9WYjmWVd2GWTqowZtGCS8Yt1N1aFWegF2vqnk34qsrZ9PhGf6+qGx7+HrZJV8yiBZMyprDNMZVpzsZXTlVhtHtDDp1Wf5NOqyobW99LisHRz6LGUgkKj9MUO8pgEa1sc8xlmbNx+6R7cF7eXLZLE4bOVdFbVcUneZOqqnI2ThXuVVXDQ82NRuKh0D6ebYqbNFMGvq7BKozACbhw7KW4qVx/VZXHk6yqcjZOFRauUnicRmsnn59eheE0UIUZqqrcoceqyp6HsKtza1IOjp6JOzT6vUxV/Y30htxsk65ocfHWUBXm/DhXYfS7VqV3cK1KclZVPotbhQ96VcPDJ/nYJl0JhYNskybEuwozUFW5QodrVfqw5tAqbG3/iF5VGH4VNqhSNTz8Og8PNUago+XTVRhV/9rOamgHsJvKv6q7qsrztb/Hxpbkrqp8FjXuVVV/C0OyNj+5h6vZo85qw2gZqsLMzruI7YqKT6oq+to6cKiqsrntQwqOzxBU4V5VNTwkWd87ZB3uq1X1OL5oSDNl4O4p3456FYaqKoktHB79vapqeOh9ez1XsA9N/Q1ss+ZYBOtAFSYvOlUYXVdV9j5MVZVhUGMHdZV/87T9qT0cHza/o4vFfSbBjBXVKzEn7yJVdyTTa1XFGejFqgOPYzcFx7Co8TuuanhoeTr1cG1oeRc9/tHP+4+FVGM6bq28C7Ny56pShfmkqnKPboIDQzuAHVqFrW1UVRkuNf5+VQ6P+CwoU5M71I93jr+um1ewgSrMnaNeCzOwA9iSwbUqsduOYLQGqipPY2NL4u8ApiY1Knaj/xNOo+bjc7xIcggfNL+DY66jbJdmZZlzBqswka2FGdgBbGitir4GR3+/71fY3LZB95W+WFNjoytVw8Ooo3kAZ9Pt78DLR55Hb2D0i4diJc2Ugbsnf2fEVRiBEzB3zPzBHcBS2W7NGqqqbO/4OCFOcos1NWZTqxoeFjExwkNWZOzq3Ia/1b+oq20VLaIV90z5HubkzRvWMREcx+HCsZfizupvamI18XB5JQ9+u/e/qaoyCmpM+FM1PEzC6NNMKxRFxjvHX8e6+jWqzMaLFZNgwvLq+zAnb95ZB1GNvBGX5C/E3VO+DYGPfKwklgaqKn1YVfM4dnZupuAYBTU+LFQNjxSjft6Xh0NSJLzRuA7r6tfo6gkk1Zg2WIU581oYs2DBvPzLsbzqXlVG3WPFFejDi4eewxaqqoyaGvequuFhGv03pDWSIuG1xrX46+E/waOjVcOZ5mzcOrgW5vSAMAsWLChYhJsrlqvy6BornpAbf677Aza0vEuDoyrQXHg4jPoZcBuJsCLh7eOv48VDz+ouQAZ2JBs4F8YomDAv/3LcUPplVX55YsUn+fD0/scGD2Si4FCDwzT6e1XV8Eg3Z7JNCSMoB/F+89t4+cif4ZU8bLdmDVRhvo0Lxy7A3DGX4MsTV+gq5H2SD0/ufXhws2KqqqglzZTBNo2YyuEx+m9Iy4LhANY3/RN/r/8L/GH9DKJaRCvum/Yg7pr8bVUGymLFK3nx5N6HsKNjE2SdTNrTCzXuVVXDI8OSxTYlHEmR8HrjWqw9slpXAcKBU2VWYSwMVVWerXk86Q5kihU13hJU/W3S2h6g0aLXKoxeDFVVNrdtoFeVKMm15bFNI6ZqeGRYska1vkJPJEXCaw36q8JoHVVVok/gBKSr8JagangYeAPSzOlsc8LSaxVGq6iqEhvp5kyInMbWtgBArnUM25TQ9FqF0RqqqsROjk2de1T18Mizj2WbEl4wHMC/m/6Bv9e/qKtBVK0YWKvyCFVVYkStD3jVw6PQoZ1T12IprITxeuM63VVh4kmBAmewD8/WPIGdnVuoqhIjRanFbFNEVA+P0vSJbFPSOFWFOUJVmOFwBvrwYh1VVWKtLKOSbYqI6uFR5ChRZaMRvRpaC/PykedpEPUsPCE3XqCqSswZBAMKU9R5O1A9PCyiVZUJKHoWViSsb3oNa6gKc0ZUVYmfNFOmKhsBIRrhYeANyLGOfgKK3gXlID6gKsx/oKpKfOXa8lTbLlT18BB4ERPSytnmpERVmE/zSl6qqsRZSVo5REGj4WHgDajKnqqbdRTR9qkqjI52JFPT6WtVaAew+OE4HlVZUyCqNAtc9Tuc53jk2wt0tXoz2k5VYY4mZxXG+am1KrQDWLxYRSvy7QWqLSFRPTwAwG50INOSzTYntU/WwiRXFcYd6qeqikZkWXKQouJeLlEJjxSjAwVJOlnsbAbWwryGFw89lxQB4pN8eKbmN9hEVRVNKEwtht1oZ5sjFpXwsBnsKEufGJVDmPVuYC3Merx85PmErsKcqqq0fUQnuWkAx/EoTauAzZDCdkUsKnc3z/EochTDJtrYLnKqCqO/HcmGy0dVFc2xG+wodBSrWshQ709iFDqKkWFJ7sliZzNQhRnckSxBqjBDa1XoXBXtSTdnolClNS1DohYeGZYs5NnGgsPnn1yWrBKtCvPpHcCoqqIVHDjk2cYi0zz6DYBOF7XwsIo2lGdUwaDShJREdaoKo/O1MKfWqjRTVUVrDIIBFRlVsBrUHUaIWnhwHIeZeefBLNB8j88TViS83fSabnck80s+PLP/MWykqoomWUQbZuadxzaPWtTCA4MrbG0qp12i+mRHMn1VYfySD0/QWhVNsxlsKEotYZtHLarhYTemYErOTFVHeBPZJ1UYfayF8UlePLlvoKoSpqqKJvEcj2k558BmUG9+x5Co39XzixZSeIyAHtbCKFDgGqqqdFBVRct4jsfFhZezzaqI+l1dkVGp6sSUZKD1c2GoqqIfdoMD5RmT2GZVRD08rAY75o67hG0mn0OrO5J5Qv14oW4VVVV0Ym7BfNWrLEOiHh4AsKjkaprvEYGhHcm0UoXxD65V+bj1PQQpODSPA4dFJVezzaqJSXiUpk9EgaOIbSbDoJUqjF/y4bd7H6G1KjpSmFoc1Y25YhIePMfjkqKFbDMZpqEqzN/qX4Q/7Ge7o25orcq2jo+pqqIj84uuiGqxInp/MuOyoiVRKRcli7ASxhuN67D2yAsxq8J8UlV5AjvoXBVdsRlTcGnRErZZVTELjxSTA1VZU9lmMgKxXgvzSVXlQ5oApjPVmVNhN0a3yhmz8DAJZlxZeh1MgpntIiMwtBYm2lUYd8iN1YeoqqJHJsGMJTG412IWHjzHozi1jAZOVXD6uTD9QRfbPWrekAfP1DyGjS1UVdGjcSmFKE4tjep4B2IZHgCQYc7CnLEXQ1BpA9ZkFpSDeP/kejx34Al0+7vY7oh1+Trw8M4fYGvbRqqq6JDACZg7bn5M9hCOaXgYBAPOy7+ADoVSSUgOYmPr+3ho+wOo6z0wqgHNsBLGjo7NeGDzvTjYs492ANOpbGsezh0zJyZHvnKKoihsYzQFwgH8etvP8OGJd0b1y04+zcgbMXvMRbiu5CakmzNhES0QuLP/AkmyBJ/kRae/DWuPrMaerh0IhgPsZUQneI7HvILL8K1ZP4JRMLHdqot5eADA3vYd+NnmB+AK9LFdZJQsogVlqZWYnXcRxqUUwWFIhUW0QuAEKADCSgg+yQdnsA9NrgZsbf8IDc4juljFS87OYUzDjy54BFNzZrJdURGX8PBLPvx447ewp30HFMT8P58UeI6HVbQhxZgKuyEFJt4EBQr8YR88ITdcQSd8kpd+/gmCA4fpuefiJ3N/pdpB1p8nLuEBALvbt+MHG1bSqkxCVCDyIh6a91tMyzmH7YqamA6Ynq46e1rUlgoTkmwqMqpQnT2NbY6quIWHgTdg+ZR7abUtIaPEgcOKqSshfs4AudriFh4YfPqYkTeLbSaEjMCMvPMwKWsK2xx1cQ0PALht8t20STIhEbIabFg2+S62OSbiHh5FqSU4b+yF9PpCyAhx4DAnfx7GO9TfGX044h4eRsGE68pvQrY1h+0ihJxFljUH15Z/CUYx+hPCziTu4cGBQ1FqCS4ujO7GJYQkEoETsKBoEQodxXF7atfE3WoSTLi8+EoUpIxnuwghZ1DgGI9Lxy+GKQbT0D+LJsIDgz+MK4qvivoeBITonVm0YGHxF1DgiO+HrWbCgwOHy4qXoDitNG6PYYRoHQcO4x0TsGD84rjfJ5oJDwBINaVjxdSVMIv09EHImZgEE+6Yfh9STWlsV8xpKjwAoDJzMhZPuI5tJoQAWDLhelRmTmab40Jz4SHyIr5SfQcKHcVsFyFJrdAxHl+pvkMzO/FpLjwAwCJa8Y1zfwADb2C7CElKIi/im7P+CxaDle2KG02GBwCUpVfi6rIbY7KdGiFaJvIiri1fitK0CrYrrjQbHkbBiGvKbkRZeiVNHiNJi+f4gQ/S0hthFIxsd1xp+q7MsubglqrlSDdnsl2EJIUMcxa+Un0HsjS4fEPT4cFzPKZkz8CSCdfGbGs1QrTCLFqweMK1qM6ersmnb+19RwyTaMa15V9CeXpl3CfFEBIrHDhMzKzCteVL4zoF/WzitofpSHX5OnHX+pvgpB3XSRJINaXh6cv/gixr9A9vipTmnzyGZFmy8cM5D8MiaqdURUg0WEQrfnTBI5oODugpPABgas45uLlqOcy0eI4kKLNgxperVmBKdmzOXhkNXYUHAHyh9AbML1oEkSaQkQQj8gYsGL8YV5Zez3Zpku7CwySYcUv1ckzPPZcGUEnC4MBhWs45uLnqq7rZlkJ34cFxHDLMWbhz2v0oTitjuwnRpZK0Mtw57X5kmLPAcfr4UNRdeGBw/kehoxj3zPgO0k0ZbDchupJuzsTXZ34XRaklmpzP8Vn0852eQXX2NNx/7oOwGexsFyG6YDemYOXM76M6ayrbpXm6Dg8AmD32Iiyfei9shhS2ixBNsxns+OqUezAnfx7bpQu6Dw+O47Co5Bp8uWoF7EZ6AiH6YDPYcUvVciwuuUY3Yxws3YcHBsdAlpRehxsnLqNJZETzzKIFSyuX4crSG8DpaIyDpd/vnGESTLiq9AZcV3GTbkpdJPmYBDOuK78JV5XeoNk1K8OVMOGBwXM7v1S5DEtKr4VBY3sfEGLgjVgy4VrcNOl2WBPgfOaECg8MHl952+Sv4+qy/wcjTwFCtMHAG3FV6fW4bcrdmtvUJ1K6WVU7UsFwEH+ueQav16+DX/Kx3YTEjFm04OqyL+KWqhW6f1U5XcKGBwCEwkG8euSveLn2z+gPuthuQqIuxejAjRNvxXUVX0q49VgJHR4AEJSD+ODYevzP/qfQ6+9muwmJmjRTBpZPvRcXF16eMK8qp0v48MDgE8jW1o/x+12/Qpevg+0mRHVZlhzcNeNbmD1mbsIO3idFeAzZ17ETD23+IXr8XWwXIarJtGTh+7N/jqk52t+TYzSSKjwA4LirEb/Y9CCaXA2QFZntJiRiQws2fzjn4aQ48TDpwgMAev3deHLHI9jZtgX+sJ/tJmTEzKIZM3PPx8pzvpc0R4UkZXgAgDvYj1cPv4TX69ehL9DLdhMybGmmdCyZcB2un3gz7Em0QDNpwwMA/JIP21s34X/2PYVW90koSNofBYkABw559nwsn3oPzs2bk3RnCyV1eACAJEtocZ/EY9t+irruGgoQMiw8x6MiowrfmvUjjLUXJOWZykkfHkNCcgh/2P0bvFa/lu0i5D9cXfZF3DHtfhgSbOLXSFB4MLY0f4Tf7X4UPb4uSLLEdpMkJvIiMsxZuGfmdzF77IVsd9Kh8GAoUNDqbsYf9z2FXe1b4Qm5QT+i5MZxHKyiHTPyzsVtk+/GWHuBrvYajRYKj8/QH3BiY/MHWFe3Bif7m2gsJElx4DDWXoAbKm7GhQUL4DClspckLQqPsxgYTD2BV2pX44MT6xEMB9lLSAIz8AbML1qIGypuQb6jECKXfIOiZ0PhMQw+yYu67gN4Zvev0eisZ7tJAipyFOPOad9AVfZU2tryM1B4jIAn5MbautX4x5GX4Q152G6SACwGK64u/SKWVi5LiN2+oonCY4QUKGjoPYxVe5/A4Z5aeEJu9hKiMxzHwSJYMTGzCrdPuQdlGRPpKNNhoPCIUEgOYlvLJqw9tBpNzgYKEZ2yGmwoTi3FdeVfwqyxcxNqp69oo/AYpb5ALzY3b8Dbja+jvu8QAhIttNMDk2jGhLRyXDp+Mebmz0eaOZ29hHwOCg8VhOUwevxd2NW+Df84/Fc0OOuh0HJ/TeI4HkWOElxbdiNmjpmNTEs2BE5gLyPDQOGhIkmW4Am5sb11E9YdWoOGviPsJSSOihwlWFq5DOeMmQ2bISUp16OoicIjSsJKGFtbNuKFmlWDIUI/5vjgUJJWhpsn3Y7z8+dRYKiIwiPKguEADnTtwyt1L6C+tw7uoBthhdbMRJPIi7AZ7BifOgFfnHgrJmdPh1mkUwTVRuERI5Is4ZjzKN5ufB17O3eh09sGT9BN095VwoGDRbQi1zYG1dnTsLDkapSkldF4RhRReMSYosho97ahpmsPdrRuwYGuPejwtFGIRIgDhxxbHiozqzEjdzam556DHGuerg+Q1gsKjzhRoMAb8qDd04r63jq8f/xtHO6pRX/QyV5KziDFmIrS9ArMK7wMFRmTkGsbA5vBTpO7YojCQwNkRYZX8qA/4MKeju1499hbONxzEAHanPlTTIIZFRmTcGHBAswacwHsxhRYDTZ6NYkTCg8NGnoq2dq6Ee8fW4/dHdsRDAfYy5KCUTBhes65uLBwPs4fOw92Ywo9XWgEhYcO+CU/jvYdxvbWj7G1ZSN6/N0IhgMIyUFIsqT782c4cBAFA4y8EUbBhExLFmaNuQAz8mahLL2SVrVqFIWHzshKGN2+Lpzob0Jt137Uddeg29+F/oATXskDb8ir+VKwwImwGqywGexIMTmQZspAaXoFpmbPRIFjPDItWeDpVUTzKDx0LiSH4Ao40RfoQUv/SbR6TqLD04YObxu6fB1wB/vhCbnhDXkQVsLsl0eVwAmwGmywGeywG1OQZclBjjUPObY8jLWPwxj7OKSZMuAwpSb1RsJ6ReGRgEJyEN6QFz7JC2/IA0/IDZ/kRbevCx2eVnT5OtHr70Z/yAV/yIegHIBf8iMkhyCFQwjJIchKGOAAWR54JeJ5HlAAnhNgFIwQOBEGwQCzaIaRN8FssCDF4EC6ORPZ1hzk2MYgw5wJizjwhGE12GARrbAarDDwiXnwc7Kh8EgiYSWMUDiEsCwhrIQhyQNBEVYkSPLAP7IiQ1bCUKBAUZRT4yk8x4PjOHDgwHMCeI6HyIsQeXEgSHgDRN4AgRMg8AP/X+Dp1SORUXgQQiJC0/AIIRGh8CCERITCgxASEQoPQkhEKDwIIRGh8CCERITCgxASEQoPQkhEKDwIIRGh8CCERITCgxASEQoPQkhEKDwIIRGh8CCERITCgxASEQoPQkhE/g9joW9reoKWsAAAAABJRU5ErkJggg==;" parent="7" vertex="1">
                    <mxGeometry x="610" y="130" width="131.46" height="130" as="geometry"/>
                </mxCell>
                <mxCell id="21" value="" style="shape=image;verticalLabelPosition=bottom;labelBackgroundColor=default;verticalAlign=top;aspect=fixed;imageAspect=0;image=data:image/png,iVBORw0KGgoAAAANSUhEUgAAAQsAAAEVCAYAAAD3icC5AAAAAXNSR0IArs4c6QAAAARnQU1BAACxjwv8YQUAAAAJcEhZcwAAFiUAABYlAUlSJPAAABFGSURBVHhe7dx9kFX1fcfx793LvXv3sruwEHYJBrIqAYSCgAaNIzVTadMW20mnpqn2D6Oxf9moaaDIgDUFFIlm6kM6doLJpGml09ZGa4c02tRpSmwajFNj60Pqjqys7OwK7sPd573svf0Dfgv83Iffved3zvmdc96v//h874wzLuc997ILqXK5XBYAmEWNPgDAVIgFACPEAoARYgHACLEAYIRYADBCLAAYIRYAjBALAEaIBQAjxAKAEWIBwAixAGCEWAAwQiwAGElF8d+zGO84JuPH2qT4XrsUTxyXYlennO46ob8McFLmox+TOS0flcySZZJddrFkL14umY+16i9zTiRiUTxxXEb+5xUZe+PnMvrW/0ppaFB/CRBp6foGya5YI7nVl0vduiskc9Ey/SWhczYWE/29MvCv/yzDP/2xFDuP62cg1jJLlkn+qmul4Vd/S9LzmvRzKNyLRakkfc8ckv5nD4mUSvoVSJaaGpn32Ztl/u/cLFIT7h8xOhWLoSM/lFPf/HOR0oR+AhItlZ4jC//wbpm7eYt+CowTsSh2nZC+Q0/K8Cs/0U8AzpO/4lMy/+bbJbP4Iv3ku9BjMfBvh6Xn24/rM4AZLLjtS9Jw/VZ99lVosSgXx6XnW4/J4JEf6icABuo3b5EFX7xTUpmsfvJFKLEYP/a2vP/wn8pEX69+AlCB9Lwmaf6TvZJtXa6frAs8FsNHj8jJxx4QCfY/C8RXKiWL7twl+U3X6herAo3F0E/+XU5940F9BmDBR+64R+Ze82l9tiawb9yO/d8bhALw0am/eFDG3n5Tn60JJBaloUF5/+tf1WcAlp38+n1SGvbnr0MEEouebz0qpcGCPgOwbGKgIB8cfFSfrfA9FoXDT8vQT4/oMwCfDB89IoXv/6M+e+ZrLMbb26T30JP6DMBnvU8dlPH2Nn32xNdY9P7NN/UJQEB6nzqoT574FovCD56V0Tdf02cAARl94+cy8Pw/6XPVfInFRKFPev/6L/UZQMB6vvuElAb69bkqvsSi/5lD+gQgJH3fe0qfqmI9FuMd7TLwwnP6DCAkAy88J+Md7fpcMeuxGDhs/1s2ALyx8Vxaj8XQUX6mAnCNjefSaixGXn1ZymOj+gwgZOWxURl59WV9rojVWIy+9jN9AuAIr8+n1ViMvP6qPgFwhNfn01osJvp6pPjeu/oMwBHF996Vib4efTZmLRZjbW/pEwDHeHlOrcVi/Njb+gTAMV6eU3uxePcdfQLgGC/PqbVYFE/w5xWA67w8p9Zicfr9Ln0C4Bgvz6m1WACIN2IBwAixAGCEWAAwQiwAGCEWAIwQCwBGiAUAI8QCgBFiAcAIsQBghFgAMEIsABghFgHIti6Xll0HpCY/Vz/Bopr8XGnZdUCyrcv1EywgFj5Tocitvlxadh2QVK5OfwksUKFQ/58Jhn3Ewkf6O4ps63Jp2bmfYFimv6PQfw07iIVP9FAotctXEQyLpgvDdDuqRyx8MF0oFIJhRypXN2MQCIZdxMKy2UKhEAxvUrk6adm5f9YQEAx7iIVFpqFQCEZ1VChql6/ST1NSwcgsbdVPqACxsKTSUCgEozKVhkKpyc+VxbsfIhgeEAsLqg2FQjDMVBsKpaa+gWB4QCw88hoKhWDMzGsoFIJRPWLhga1QKARjarZCoRCM6hCLKtkOhUIwLmQ7FArBqByxqEJmaasvoVAIxhl+hUIhGJUhFhXKLG2Vxbsf8i0UStKD4XcoFIJhjlhUYDIU9Q36yRdJDUZQoVAIhhliYSjoUChJC0bQoVAIxuyIhYGwQqFMBiNbq59iJaxQKARjZsRiFmGHQqldvkpa7nkgtsFIZWtDDYUyGYwlS/VT4hGLGbgSCqV25ZpYBiOVrZWWex4IPRRKTX2DtNz7MMHQEItpuBYKJW7BmAzFyjX6KVTpxnkEQ0MspuBqKJS4BMPVUCgE40LEQuN6KJSoB8P1UCgE4xxicZ6ohEKJajCiEgqFYJxBLM6KWiiUqAUjaqFQCAaxEIlwKJSoBCOqoVCSHozExyKzZGmkQ6G4Hoyoh0JJcjASHYvMkqXScu/DkQ+F4mow4hIKJanBSHQsFt19r6Qb5+lzpNWuXCPNO/Y5E4xUtlaad+yLTSiUdOM8WXT3vfoca4mOxclH9spEoV+fIy+3aq0T7zDUO4rcqrX6KfImCv1y8pG9+hxriY5FsbNDuvdui2Uwwv5IErePHuebKPRL995tUuzs0E+xluhYCMHwRSqTJRQxlPhYCMGwKpXJSvP2PYQihojFWXEPRvO2P5NUJqufrFKhyK1Zr58iL+mhEGJxIRWM0uCAfoq83Jr10rx9j2/BIBTxRyw0xc4O6dq3nWBUgFAkA7GYQrGjnWAYinMoSoMDhOI8xGIaBGN2cQ9F177thOI8xGIGBGN6iQhFR7t+SjRiMQuC8WGEIpmIhQGCcQ6hSC5iYYhgEIqkIxYVSHIwCAWIRYWSGAxCASEW1UlSMFJz5hAKiBCL6iUhGDV1eVn0x18lFBAhFt4UO9ql+/4dUhoa1E+Rl1uzXi567LtSd/mV+inySkOD0n3/DkJRIWLh0fjxd6Rr7zYpDQ/pp8irydfrU+SVBgeka+82GT/+jn7CLIiFBZPvMGIYjDjho4c3xMKS8fY2guEwQuEdsbCIYLiJUNhBLCwjGG4pDQ8RCkuIhQ8IhhtKw0N818MiYuETghEuFYrx9jb9hCoRCx8RjHAQCn8QC58RjGARCv8QiwAQjGAQCn8Ri4AQDH8RCv8RiwARDH8QimAQi4ARDLsIRXCIRQhUMMqjI/oJFSAUwSIWIRlvb5Pu/TsJRpUIRfCIRYjG2t4iGFUgFOEgFiEjGJUhFOEhFg4gGGYIRbiIhSMIxswIRfiIhUMIxtTKoyOEwgHEwjEE40Ll0RHp3r+TUDiAWDiIYJyhQjHW9pZ+QgiIhaOSHgxC4R5i4bCkBoNQuIlYOC5pwSAU7iIWEZCUYBAKtxGLiBhre0u6D+zW51jpPrCLUDiMWERFTY00bv1dfY2Vxq03itTwW9JVfGWioKZGFt21W/JXXqNfYiV/5TWy6K7dBMNRfFVcl04nIhQKwXAXXxGXpdPS/OX7EhMKZTIY6bR+QoiIhavOhqJuwyb9kgj5K6+R5i/fRzAcQixclPBQKHUbNhEMhxAL1xCKCxAMdxALlxCKKREMNxALVxCKGRGM8BELFxAKIwQjXMQibISiIgQjPMQiRKn0HEJRBYIRDmIRklR6jjRv30MoqkQwgkcsQqBCkVu7UT+hAioYqfQc/QQfEIuAEQq76jZskubtewhGAIhFgAiFP3JrNxKMABCLgBAKfxEM/xGLABCKYBAMfxELnxGKYBEM/xALHxGKcBAMfxALn6QyGUIRIoJhH7HwQSqTkeYd9xOKkBEMu4iFZZOhuGydfkIICIY9xMIiQuGmyWBkMvoJFSAWlhAKt+XWbpTmHfcTDA+IhQWEIhpyl60jGB4QC48IRbQQjOoRC4/iGoqJnlPStecrcvpkt36KPBUMVIZYVCmVyUjL7q/FOhRjv3hduvZ8RSZ6TukvibzcZeukZffXeIdRAWJRhVQ2m5h3FOrXcQ0GH0nMEYsKpbJZadn5YCJCoZw+2U0wQCwqoUJRu2K1foq86UKhEAwQC0NJDoVCMJKNWBggFOckIhjZrH4CsZgdofiwuAejZeeDBGMKxGIGhGJ6cQ5G7YrVBGMKxGIahGJ2BCNZiMUUCIU5gpEcxEKTytURigoRjGQgFudJ5epk8a4DhKIKBCP+iMVZKhTZS1bop8ib6Ov1NRQKwYg3YkEorJoMRl+vfoq8pAcj8bFIRCi6O/WTrwhGPCU6FoTCP6e7O+MfjFydfoq1RMei5Z4HYhqKnlBDoZwLRo9+irzaFaulJWH/gE6iY1H4/vdESiV9jrQz7yi2hR4K5UwwtsXvHUapJIV/eUZfYy3RsRg+ekROPr4/NsEI+6PHdGL3kaRUkpOP75fho0f0S6wlOhYSo2C4GgolNsFIaCiEWJwR9WC4Hgol8sFIcCiEWJwT1WBEJRRKZIOR8FAIsbjQZDDKZf3kpKiFQolcMAiFCLH4sOGjR+TUEw85H4yohkKJTDDKZUJxFrGYwtBLLzodjKiHQnE+GOWynHriIUJxFrGYhqvBiEsoFGeDcTYUQy+9qF8Si1jMwLVgxC0UymQwCv36KRyEYkrEYhauBGOi0B/LUCinuzule++28INBKKZFLAyEHYyJQr9073XnR7j9UuzsCDcYhGJGxMJQWMFQoSh2duinWAotGIRiVsSiAkEHI2mhUAIPBqEwQiwqFFQwkhoKJbBgEApjxKIKfgcj6aFQfA8GoagIsaiSX8EgFBfyLRiEomLEwoOhl16UDw4+Yi0YhGJq1oNBKKpCLDwa/NHzVoJBKGZmLRiEomrEwgKvwSAUZjwHg1B4QiwsqTYYhKIyVQeDUHhGLCyqNBiEojoVB6Nclg8OPkIoPCIWlpkGg1B4o4JRGhzQTxc6G4rBHz2vX1AhYuGD2YJBKOwodnZI177t0weDUFhFLHwyXTAIhV3Fjvapg0EorCMWPtKDURocIBQ++FAwCIUviIXPVDBKgwXp2redUPjkXDAKhMInqXJ5mg/WFXr3D35dn3Cemny9lIYH9RmW1eTnSml4SJ9xno8/9QN9MsI7i4AQimAQCv8QCwBGiAUAI8QCgBFiAcAIsQBghFgAMEIsABghFgCMEAsARogFACPEAoARYgHACLEAYMRaLGpXrtEnAI7x8pxai0V26cX6BMAxXp5Te7FoXa5PAByTab1Un4xZi0XtpSv1CYBjai+p/jm1FovMsurf3gAIRvbjl+iTMWuxEBGZe9VmfQLgiPyma/WpIlZjkVu7UZ8AOKJu3RX6VBGrsahbv0mfADjC6/NpNRbppoWSu2ydPgMIWe6ydZJuWqjPFbEaCxGRhi1b9QlAyGw8l9Zjkb/6Or6NCjik9tKVkr/6On2umPVYiIjM+9wt+gQgJPN/7wv6VBVfYlG3dqPM3bxFnwEEbO7mLZL7pQ36XBVfYiEi0vT5W/UJQMBsPoe+xSLdtFAW3HanPgMIyMIv3uX5OyDn8y0WIiIN1/+m5PmpTiBw+as2S/2v/IY+e+JrLEREFnzhDn0C4DM/njvfY5FunC+Ltu3RZwA+ad6+V9KN8/XZM99jISKS37BJmm66XZ8BWNZ00+1St/6T+mxFILEQEWm84UZpuN77T5EBmFrDlhuk8YYb9dmawGIhIrLgti9J/XWf0WcAHtV/+jOy4NY/0merUuVyuayPfut/9m+l7x/+Sp8BVGH+526ReZ+9SZ+tCyUWIiLDR38sJx/dp88AKrDort2e/1EbU6HFQkTk9Mlu6fnON2Tk1Zf1E4AZ1K3/pCy45Q6Z07xYP/km1FgohcNPS++hJ/UZwBSabr5dGrf69weZ03EiFiIixRPHpe/vvyPDP/tP/QRAROqu+JQ0/f6tklmyTD8FwplYKMP/9R/S+3ffltPvd+knIJHmNC+Wps/fJvmrf1k/Bcq5WCgDLzwnhcNPy+lT7+snIBHmfKRZGrfeKA2/9tv6KRTOxkIZe/sNGfnvozLy2isyfuxt/QzESu0lKyS3dqPUbdgktZ9YrZ9D5Xwszlcq9MnoL16XsbY3ZfxYmxQ7jslEoV9/GRAJ6cb5klnaKtmLPyG1y1dJ7co1vvydDlsiFYuplEaGZaLQL6WhASkNDYqMjUqpOK6/DAhVTSYrqVydpPJzJV3fKOnGeZLK1ekvc1rkYwEgGIH+3RAA0UUsABghFgCMEAsARogFACPEAoARYgHACLEAYIRYADBCLAAYIRYAjBALAEaIBQAjxAKAEWIBwAixAGCEWAAwQiwAGCEWAIwQCwBGiAUAI8QCgBFiAcAIsQBg5P8BQzzmoeSGoIkAAAAASUVORK5CYII=;" parent="7" vertex="1">
                    <mxGeometry x="20" y="130" width="125.31" height="130" as="geometry"/>
                </mxCell>
                <mxCell id="22" value="" style="shape=image;verticalLabelPosition=bottom;labelBackgroundColor=default;verticalAlign=top;aspect=fixed;imageAspect=0;image=data:image/png,iVBORw0KGgoAAAANSUhEUgAAAxYAAAMHCAIAAAArVlbOAAAAAXNSR0IArs4c6QAAIABJREFUeAHsvYdXFNn2v/37B4ZgIseq6khGEVAR85jHNDOGcZxgzglBUZKIIDlnHHPErJgjIioiqc1ZCRIk063CfV/1O16vCjTQ3VT4rOWa1XSlsx+Ys5/a59Sp//f27X/wDwRAAARAAARAAARAoE0E/l+b9sbOIAACIAACIAACIAACb9/+BwqFIhwIgAAIgAAIgAAItJkAFKrNyKDeIAACIAACIAACIACFgkKBAAiAAAiAAAiAQJsJQKHajAzeDQIgAAIgAAIgAAJQKCgUCIAACIAACIAACLSZABSqzcjg3SAAAiAAAiAAAiAAhYJCgQAIgAAIgAAIgECbCUCh2owM3g0CIAACIAACIAACUCgoFAiAAAiAAAiAAAi0mQAUqs3I4N0gAAIgAAIgAAIgAIWCQoEACIAACIAACIBAmwlAodqMDN4NAiAAAiAAAiAAAlAoKBQIgAAIgAAIgAAItJkAFKrNyODdIAACIAACIAACIACFgkKBAAiAAAiAAAiAQJsJQKHajAzeDQIg0D4CUmljff272lpZba2sru5tXd1bqbRRnlPJZE0yWZM8e2IfEAABEFAZASgUFAoEQKB1AjJZk1Ta2NDwvrZWVlVVX15eXVxS/vJl8ZOnL+49eJR/5152Tl7mzawrGdfOXbh09vS5s2mnTx9LSzt87MSho8cOHD6aeuho6qFjqYeO7TtwdG/q4V17D+7Ynbpt5+6ULdvikzZHRicFhyZsCkrcFJQYGJwSGr4lOm7X5q0Hdu1NO3L80rmL16/dzM7Kyb6RnZVx40Z65o30zFuZWbnZeXcl9588fl5UVFZWVlVeVvWmoqaqsq6mRlpX97ah4f2nbvRTy6XSRkiYyvIKLgQCHCEAhWo9eXDkTwFhcpDAJ734VBmqrKz7PzF6Vfz4yfO79x/mFdy9lZ2beT3r8uWMM2fPHzl+fE/q/pQdWyJTYgMTgr2jfd3C1y4OXjF70/w/AmZO3fj7JN/JY30mjJn306KxP0UPHxEzdFjUwEFRTk7hjo5hvXsH9ewZbGsbYmsbamMTZm0dZmkZYW4eKRZHi0QJYnGKufkWK6utNjbbevbcamf3T+/eifb20Y6OIY6OvnZ2a21t3ays3K2sfO3tA50HhI8cFfXzLzEz/oidOy9i/sKQ+QtC5s2PWLQkdpXbZj//nVGxB7bvOn7k+NnT5y6fv5x55Vrurdx7dx68eF5YVFRWXFT2uqSivLy6urrhs2Zx8FePkEEABDpOAAoFhQIBLhKQyZpqaqSvCl/fufsg82bWyQtn9xxNjd+d5J8S5BrlPi9o0W8bZoz3+nmY+8h+bgN7rXKwWtVL7GbFW21m4s439uQbepMGvqSen6lOgIlWoJFWsFGPUMNuYQbdIvRNZ/IWW5mnU9QNisqiqNsUlUMQ+QQhIYg73/snIYgCgsgjiFySvP3xXzZJZn/8kPPx+4J/j8ojiFskmUmSVyjqAkWd5fNPC4UnhcI0geC4QHDEzOygldVeW9vtdnZJ9vZRvXqF2NgEOziEDPsx9NfJ4XPmhixZFrx8ZZz7uu2bglITU06kHjqddvrCuUuZV68X5N998aKouroBlaqOJxWcAQS4QwAKxcX0yZ2/b0T69u1/amqkhYWvJZL76emZBw8fiUmM99jgvWD5wumzZ/wyZ8r4RRNHrBg7wG1ob/e+Zh7WlI+ZsR9fL4DQCjbuFmbQJUpPI1ZHPUFbLVFbLVn7hxStHza38s94EbHU2uw2SX5XmJT0peSjpeV9UrGP/83/+N9skrxOklcp6rJAcJ7PP8nnHzQz22ljk9KnT8zAQSEDBoYO+zFi4qSIWbODXFzXu68L8PFNio47mXZaIrn/oVj1cXywsrKuvv4d7Ar/N4EACHxFAAoFhQIBlhCQyZpqa2XFxeUPHz7NvJF15MTxxM0pGwMCXNesnusy/5flUwctHWa1rCfpKtRdb9o1WE89XueDEn3615oYtWpOn3cwXEosshVnqVah2mFmn6pftz7WtM7weGkCwTGBYJ9YHGdltbZnz9/69h3br9/sn8ZtcluzMzHldNrpq5czbt28/ejRs4qKGjlnwX/V2+JHEAABlhGAQrEkfbLs7xLhyEOgtlb2+vWbx0+eZ+Xmnr58fs+R1JitCV7RvrP854/1mmC/xknoZmG4ltRZb6wVaNQ93FAz+oM2qSVpq8lRTPqsRG39YLDCdK6dOJP2CvVd6yr4OJ6YR5ISgsghiLM83g6BIMLKysfa2sfBIfincVELFsWs9UjaGLA3MeXCyTN5OQVPn7woKiqrrKyDV8nzR4t9QIBNBKBQUCgQYAaBurq3paWVjx4/u3nr9ulz5/bvPxiXnOgZ6vP3htlDV4+0XtHLdBnfyI0y9KG0/I26huhpRul+EKZk7bY6UAf3119lOstBfJWivusoDP2ygCBukuR5ijoqFO4Ti7dZWqb07Rs7anTQhIkhv8+IW+W2LTru4P6DF85eKMi/+7qkoqZGWlMjxfAfm5IlYgGBbwlAoZiRPr/9zeEb1hOor3/3+vWbBw+eZGTeOHL8+OatWzdFBy0OXD7e+2f7NU6Um9jIk9LbSHQPNtSM0NWI+1Be6qD9KORwvdUmf/YRX2KXQn1pfpKPlaosksykqHQe76xQeNjScoedXZydXdjAQf5TpnouXBzo4bUnZUv6hSt3JPefP3v1+vWb+vp3rP+LRYAgwDUCUCgoFAjQiEBNjbS4uPzOvQdXrl5LPXQoIil6SeCKMR4Terk6Ctdamm4Q6QeT3SMNNeN01ZJbmdatEB9qx0l03Y2nO4nOsVehvtSpOx+fNCz4OJk9lyBuUVQmRV3m8Q4JhTG9eq0dOGjFqNGb5s3fGhF15MDhi+cv37nzoKKihmtpBvGCAFsJQKFolD7Z+keGuFogIJM11de/K6+ofvbi1c3s23sPp3pH+f6yZordfEfePJGpm0DH16RrqL5G3Mep34qb9N0ON5LzEB0PoynOotM83leqwcEfJQSRRZJH+PxYS0tfG5sNg4eEzJodss4zOSLqzIlTDx88qaioqauVYRJVC/+DYBMI0JkAFAoKBQKqJtDQ8L6srOrJ0xe3buedOXc+cVvKko0rhi4ZYT7LmrdYZLCW6B6grxGt8wNd60wtu5S2t9HPA0VpUKh/l7P65I55BHGVxzsuFO4Si5N79owcPmLjr5ODFyzcHhF1/tTZ3JyCFy+KamqkUmkjFlKnc8pE20DgSwJQKFWnzy/p4zN3CEiljaWllXfvPbx05ere1NSQxPA5GxcMcv3RfLk1sUaovcG4S5ieegItJjO1bEitbtXyNRw/RHSUz+dg2UmekCUEkU2SGRR1gc8/ama2zc4urF+/gNFjghcvjQ4OPbRn/60b2a9eFpeXVdXWyrjzPwgiBQEmEoBCQaFAQFkEZLKmqqr6J09fZGTeSD10ODwpcv6mJcM8Rtqs683zNdcLIrpG6aslyrVeZaviQp8devgZjBkmPASF+t8q1Ld29Wk50FySzKaoqzzeyY+rUkU5Oq4fP2H93HnJm4LOpZ3Oy5U8e/qypkbKxOyCNoMA6wlAoZSVPln/p4MAmyMglTZWVNQ8fvw8PeP6tr27XIPdh68aY7bEmlgr1Akw6RKpp846bfpS4Lpv0h8xQrgfCtWaQjUnVbdJ8gKPl2RhscbBwWXYj+EurluTNp89eebhw6d4rK+5/+nwPQh0CgEoFBQKBBRDoL7+XXFJRcHde6fOnw1LiZju+UevBfbUEpGBF9kt1IAdg3RfqlJzn7sF6Q8bJdwDhWq7Qn0lVQUEcYWidopEoZaWQYOHhMybH+7lc2TX3vxcSXFRGd7o1ykpExcFgS8JQKEUkz6/ZIrP3CEgkzVVVtbdu//o7PlLm7dtcwlcM2zlSNFCC2O3D+tbasTQd+mB5gSo4993DdUbNFa4QyD4SgjwY7sJ5H10qeMi0Q4Li7iBg/wnTAxfuHh38j8Xzl18cO/RpylTeIUfd7odREofAlAoKBQItJmAVNpYUlJxM+v2rr17/cMC//KZbb/KyciVp+tn2iVc78P0JiasPqCkRnaJ0O0/TrAVCtXhKtS3ypVHEDco6hKPd8Tc/J8+fYIHDgqePSfYz//Q/oMPHzypqqqvq5XBpeiTX9ES1hOAQrU5fbL+bwIBNkdAJmt6/frNtetZ/2zb5hHgNdljms2a3sYb+Nphxppxuh/e18thc/ocu2aUTp+Jgs1QKCUo1GepyieI3I86dV4oPGBmFuTgsGjiJO8VLmlHjj+496ikpKKh4X1zf8b4HgRAQFEEoFBQKBBoiYBM1vRhPYKyypu3bm/fu8srcP0k91/NXK31fUy7hxqoxzNmxcvPiqPsDxqxOr1/FiQKhZ/zPT4olYDk4wrpuSS5TyBwtbVdOGhQ9PoNxw8fy7udX1FRg1WmFJUscR4Q+JYAFKql9PktL3zDEQJSaWNN7Yd3rdy8nbPj0B6fGL9ffKZZuvXU9yC0gow0YmFOzZbc1BO0bScLYqFQyqxCteBklyhqs4XFBlvb0KnTEn18j2zflXMrt/BVSU2NFGN8HOm+EKbKCEChoFAg8DWBmlppbv6dnQf3eoR5T/GZbrWml76HaY8gww/mhKG61gioJWtZTuVHiUQtpHlsUjaB2yR5WiDYLhbH9XeOmP570lqPI3v237x+q6ioDGN8KsuvuBDrCUChvk6frP+VI8DmCMhkTc+fF+5JTV3mvvIXl6m2a+z1fE27hxkw6P10tDC8FC3z6fwwsbCgk8owyrYTBp0/nyBukOQFPn+ftXVsf+ewXydH+Pju3bH73t2HWGKquX4A34OA/ASgUFAoEPhPba3s7PkLLmtcR08da77ARsvfWCNeVy2JbeuGq0iwUrTEf/ACzYV5UCjaECggiNskeZHPP2BhEeXk5DZ5iq+H19X0TIzuyZ8ssScIfEsACgWB4CIBmayptk72+vWbW9m5oQkRv8ya7LRogJEXpRmLB+uaneQkr4GlaIn+pjZainJIkkEFG+40NetjXWqrhcWyvn2XT5m6b8v2uwX3Skoq6ureSqWN3yYJfAMCINAcASgUFwWiub8GLnxfV/e2qKgsL//OnsP7l2xaMdptnIVHzx6BhpqxumpJHbaH1uYJyWshjD5PipZwNuVjLcqGQtGmCvWVIEoIIo8gcinqOJ8fYmOzftToOC+fY/sOFORKXpdUYHEpLvSEiFEhBKBQUCiuEKisrHvw8MnZCxf8k4N+9Zzaz3OgiR+/a7j+hzE7LOmkQGlL0eLPJdfZCrOgUHRVqC+NKp8gLvF420WiiL59Q/76e0tg8OXT5x49fFpd3aCQHIOTgACLCUChuCIQLP4jbjk0qbSxrKzqzt0Hew+lzvFd4LxisNDTskeIoUbcx9lOClQHnOoTgRQt3kLSrZfoBhSKCQr1SackBHHr0wCfrW3gyFFhS5Yd2LnnVlZOeXk1lkJouYfBVi4TgEJBoVhLoKHhfcWbmtx8SWhixJBZw0VzLXV8jdXjOf32FVWMJKZokYuJlb2FmVAo5ijUl3WpWyS5XyTa2LOn76+TIwMCz5+7CJHisiUg9hYIQKFYKxAt/NbZvUkma6qubnjy9EXamdMum9z6zHMiVwq7hRioJUOeVDLZK0WLWGa6xEGUQVFfJmZ8ZhaB2ySZJhAkWlsHjh4TtGzFkV177999WFFRg6IUu/tPRNcmAlAoKBSrCLx+/eZyekZ0UvxU9+kWS2z1vAjNKEx1Uok5fR7HTNEyWWmyoI8oHQrFzCrUl6qXQ5IXebxUc/PoAQPD//p7e3RsxpVrr1+/aVOawc4gwFYCUChWCQRb/0xbjauh4f3jx88PHj7iEeA93G00uVbUI8hQPQFlJ9XK079zoYxdTWb3E12GQjFfoT7pVN7HVxqfFIm22NsHj58Q6OF1/PCx4uJyLILQateEHdhNAAoFhWI2Aam08cHDJylbt8xdu9BhVX+DDWSXaH215M5Qh89lGI5/SNEyXG38p5PwAhSKLQr1SaQkBJFDEFd5vMPm5uudnVfOnHVgb2pJcXltrYzdaRLRgUBzBKBQzBaI5n6vrP9eKm0sL6/Oys6JTIydseavnmscdPxNNGLw9l9auKP+OuPpzqJzUCh2KdTnAb5PLnWcz19nZ7di0s8Hdu65V3CvoqIGRSnWd7wI8CsCUCgoFJMIfFhVvFZWXFx++dq14M1hU31+t3C31d5opBmji8qTKp62k6/ApudpNHmg6AyP9znp4gMrCeQRxFE+P9DOLmDK1J1RsdfTM0uKy+vq3n6VZvAjCLCVABSKSQLB1r9CeeKSyZpqaqTPnr86ffG8d4zvBK9fzL1ttQKNNGJReaJF5elLgdP1MZw0WHQKCsXSKtRXOphLkqeEwqSePUMnT0n08rl49sKzpy8hUvJ0a9iH6QSgUFAoBhBoaHhfVFR26sI5l6DVg12Gk17CbmEGGgmQJ9rJ0yeR0t5g8NNQYRoUihsK9cmockjyMp+/1cIiaMzYKLc1xw8dff7sFdMTJNoPAi0TgEIxQCBa/hWye6tM1vTmTe2Vq9fmuy/uNcvB0Iv8sDYm3sci34Dal5UhVX7u4W8w6kfRcSgUlxTqk0h9WuV8h5nZRmdnn+UrD+1NfV1Swe4+CtFxmQAUCgpFUwINDe9fFZacPHtm7roF4qmW+h6ERpyOKj0A12o3ge6B+sNGCI9CobinUJ/H+DIoardIFOg8YP2CRScOHH7xvLCh4T2Xcy1iZyUBKBRNBYKVf21yBlVf/+7Bwyf7Dx9c4LPYZrGdjpexegLkiaZjdt/VrG4hegNHiQ7z+Z8TKj5wkICEINIpar+ZWeCAgSFLlqUdOvr40TOIlJzdIHZjBAEoFBSKRgQaGt4/fPh0++7d89cvtl5lp7+RUEflid5jdt9VqC7hev3GiA5CoThchfqsjHkEcZUkD1pahjk5bVq8NHXnnufPC6XSRrwohhGKgEa2TAAKRSOBaPlXxe6tMlnTq1clW3fsnL1mbq/VjnpBH+UJc54Y6E8/bNbSjNR1HCfaB4WCQv1LIP/j+uZpZmaBffuunjnrxJHjJSUVqEixu1fnQnRQKChUJxNoaHj/8lXJ3kMH5q9a2MvFUcvPUCNe97u1DXzJFAKakboOE4U7hHzJvxn0c00CH7hMQEIQeQRxgsdbYGW1eu68y+cuFRaW1te/Q0WKC7bByhihUJ0sEKz8q5IzqJoa6fOXRUdOHV8R5Np39UCd9cZdonXxtB1TPKmFdmpG6fb+RfCPiF8AhQKB7xHIJck9YrGHk1OM+7pLJ8+8eF5YWyuDSMnZc2I3+hCAQkGhOoFAXd3bl6+Kz164sCpszbB1o4x9+V0j9SBPLUgJszZpRuv2msxPNBNAobhcc2o19msUtcPSMmTkqERP7wsnzzx/Xlhf/44+2REtAYFWCUChOkEgWv2tsHuH0tLKq5nXPSJ8Rqwea+It6Bapr5akzSxFQGtbJqARrWszjR9tLsj/XgWi1cyKHbhDIJ8g0nm8XZaWviNGxvv6Xb2YXlJczu4OENGxiQAUCgqlOgK1tbKnz15GJEUPXTSCXCPEi+1aFhHmbtWI0bH+nRdmKcyDQoGAHAQKCOIqj7fZxsZv/ISkkLDbt3Jra2VsSrSIha0EoFCqEwi2/g3JE1d9/bvnLwt3pu79ce5IwTLzrmH6GLZjriG12nKNGB3LP6lAK2GuHOmTOxUXRNoygTyCOM3jxffq5Tt5ypb4pAf3HmGClDy9K/bpRAJQKCiU0gm8eFF08PjRvzxmWi6z7bHJUC2ZSatEtqoL2OFbAhqxOuYzKT9rKBTRsjRg67cEsknyEJ8f079/5PyFh3buefLomVTa2Ik5EpcGgRYIQKGULhAt0Gf9ppKSimNpact9V/Vc6aDrZ/Lh9XbMXOgIzW4TAfU4HfEc0stWmEOS3+ZIfAMCLRMoIIhMijpoYRE9dFjkylXHj54oxgSpt0hVdCQAhaLjb4UFalVbK7ty9ZqHv7fTskF6/sSHpZ6wTiZn9FE9Tkc4n3TvJbwNhcJQZnsJ5BNEJo+339LS/8fhId7rb2Zm1dW9ZUHfiBDYRAAKBYVSMAGZrOnps5eRCdFjlow38RZoJOhAntpUwmHBzurx2vxFxCo7ERSq5XILtrZKoIAgrlPUNnPzecN+TExIrq5uwJrmbFIQpscChVKwQDD9D6Ij7a+re/vs+au9R1L/9phjubpXjxBDtUSM3HFx4pd6gja11HRpb1E2qlDtrcG06hac2iGXIM4KBIH29mt/m37yxKmiwlKIVEf6ahyrKAJQKCiUYggUF5efvXTBPcLTafVgA39SI1ZHDSN3nBm5+6pypp6gTawwXeAgugWFgkIpiICEIHIIYr9A4NW/f5yPb8bljLKyKkUlQpwHBNpHAAqlGIFoH312HFVd3ZBfcDdmW8J4j58FPhZdI/TUklF84mLx6bNIqSVqm6wyme0IhcITeQomIPk4rrfdyspz3PgtsQlPHz/HClLsyCMMjQIKBYVqPwGptPFVYcnhtOOzPOdauNpqhxhj5O6zRnD5g1qSttFq4z/6irJQhVJQDYZTw3atBptPEFd4vDBHR7dfJx8/llZSUsHQBIxmM50AFKr9AsH0331H2i+TNVVW1t3Mvr0hxr/vsgEG60ksWMBlZ/oqdrUkbQN342n9xDehUFAoZRLYz+e7OjklBwTmZOVUVdV3pE/DsSDQDgJQKChUmwnU1b198uzFtv07p3hO57tbfFhqnKuTfhD4dwmoJWvpeRr97CS+AYVSpkC0Wq3hwg5XKSrB1nbjtN/2b93x9PHzOrwZBitIqZAAFKrNAtEOUWXNITJZ05s3tecvXV62YWVv175afkbqCZj2xOlpT99VqB9StHS8jcY5Q6EUPBOIC0rUjhizSfIAnx85ZGjMCpdzJ8+UlFTIZE2s6XURCJ0JQKGgUG0g8PxFYXhC5MgVYwy8Sc1YrJYJeWqWgJav4agBZtdRhUIVSiUEPi0ftcvScuNP4/6JjH54/zFeC0Nn82BN26BQbRAI1vzW2xFIff27zOtZU+ZOEyww14zW/X7tAcN5IPAvgR4bDX4cZHYNCqUSgWhH5YaVhxQQxHk+P9befv3MWadPnsHsqHZ09TikTQSgUFCoVgjU1soePX4WGhthNd5Ga70h5AkE5CHQ3d9gyFDxJR7FylSNoOhMIIskd4lE634cnhwW8eDuQ8yOapMTYOc2EYBCtSIQbaLJsp1lsqbikvJDx4/+6THTbLWNRhSKT82OW8ljFZzap3uAwaDh4jNQKFShOoNALkGc5/GS+vULmzvvxKGjJXhLsQpnWLMsD7YcDhQKCvV9AjJZU05OgW+gn/OaoQYbyQ+vuvt3jAYfQKBVAt0C9Z1HiY7zeXQuV6BtLCYgIYgsitpvbh4wclR8cOijh08xx7xlG8DWdhCAQn1fINqBkk2HlJVVpR4+NGftfMJV2DVSH+8JbtUYsMNXBLoF6TuNFR4U8FmcpBEa/QnkEUQ6j5dkZ7f69xknj58sL6+GSLEpVXV6LFAoKNT/EGhoeP/o8bOQmHDnZYN1N5qq4z3BqL21i0DXYP2+4wW7hVAorGvQ+QTyCeIIn7+oX7/YsIinj5/jYb1ONw/WNAAK9T8CwZrfazsCkUoby8qqzlw4P3/DIut1dt1DDVB8+qqygh/lJ9A1RM9hkmCrSED/QgVayAUCEoK4yONFOTpGr3C5ev7y69dvIFLtSBM45CsCUCgo1AcCtbWyu3cfRmyJ+WndJCMvnmYM1nzCzPEOEegSpmf3Kz9ZDIXq/BoMFwxJzhhvUdRuCwvf0WM2R8Xev/uwru7tVxkRP4JAmwhAoaBQ/3nzpvZKxrVlG12sXe16hBriVcHy11qwZ3MEuoTr9ZrKjzGDQkGh6EUgjyBO83jh/fpFrXbPvJxRWVnXppSJnUHgSwJQKK4rVGlp5e79+8atmkR4CjVi8dhdh0ovzfkEB7/vEqFrM50XZi6UszyA3UBAlQRuU9Rua2u/X35N3bG7GEseYMmD9hKAQnFXoWprZXfuPwiMC+k9r08PX0O1JLztDv6kMAKakbqWf/A2QaE6Y1UkVboIc6+V93GOubeTU7T/pvxcCVbg/LK4gs9yEoBCcVShKipqTp09+5fnLIGrebdIzBxXmDpwsOD03ZA1onXN/6Y2WIiYm2LRctYTKPg4xzy6Z8/IRUsuHD9ZWlqJJQ/kVAfs9okAFIqLCvXyVXH8tqTRa8YZrCfV41F8gj8pnoBGjI54NulhCYWi10wg1ltRWwOUEEQ2RR2ytAwbN35LVMyjR88gByAgPwEoFOcUSiK5v2LNKssltt1CDdSSFZ87v1uTwJdcI6ARqyOYR7pZidua0rA/CKieQB5BnOHzgx0dfVxX37qVK38GxZ4cJwCF4pBCVVbWHTlx/Kc5E4zX8PHYHdecRsXxqsfrUAvJ5dZmqk+HuCIItI/ADZJMFItdZ/xx+sQprBrFcTeSM3woFCcUSiptfPr8Zcw/Cc4LBmtvNFJxNsXlOEhAPUGbWEIstIFCYSCPSQRySfK4WOw/avTO2ISXL4ogUnKaBGd3g0KxX6FqaqSZ17NWBa2xc+/TI9QQa45zUGhUH7JaorbJctPZtlAoJglE+4o3LDuqgCDOCQQhjo6Bbmtu386vr3/HWT9A4K0SgEKxWaFksqay8qrDx4/9seYvcq2oawxeGIy5XyoioJakbeRi+kdPc5blV4TDBQIFBJHB48VZWrrN+OP0yTM1NdJWUyl24CYBKBRrFUoqbXzxoij2n8Shq0boBpqqJ+DJOxXZg+pLPjS8olqKlr6byVQoFNaFYiyBHII4IRSuGTN2z5btFeXVWO+Am5LUctRQKHYqVEPD+/sPHm+I9O+9sk+3YAMaplg0ifUEdN2NJ9lZSBibQblQbkGMLROQfCxHbXB0TNwY8PjhUwzqtewLmr8eAAAgAElEQVQTHNwKhWKbQslkTRUVNRevpC8KXGa9rne3MH21FFRfQKATCOisM55gb55Dki1nKWwFAZoTyCDJMCurwEVLMq5cq6ioQTmKg6rUXMhQKFYplEzWVFhUuu/QwfEuP5t4CzRjdTF5nPXFHtoGqO1pNLav+Q0oFOpwzCdwkySTRSKvyVOO7D9YWFiKJ/WaUwqufQ+FYo9CfZj89LIofkfyMLeRWhuNsPITbd2CIw3T9jIa3d8snaJoXmNA80BAHgK5JHlIIPAf+9POhOTnT1+iFsU1W/puvFAoliiUTNb0+PFzn2Bfy8W23aL0OZKkESadCWj5GA4fYHaBx5MnP2EfEKA/AQlBXOTzgwcMTPLf9BSvgnnLkuz5XTeS80soFOP/CGSyprq6tzdv56zwdTGdy9OM1KVzWkXbuEOgh6/hsCHiU1Ao5g9j0V9uVNnCDB4v3sEhauWqWxk3qqrqUY6S0zZYuRsUitkKJZM1lZdXp507/du6GabrBOqxOtzJ0IiU5gR6+BkM/lF8lM9XZXrDtUBABQRuUNRWa+uwP/48dfBIcXE5pkaxUo/kCQoKxWyFKi+v/mf7tqFLR+hvMMU7g2muFFxrXnd/gwEjRQegUKhCsZHAbZJMNTMLGT9hV9LmFy+K5Em32Id9BKBQDFYomawpIj6qz0LnHoGG8CeuCQr94+22Sd9pjGg3FIqNAqGCSg/9L5FLEMeFwo2DBkcFhTx/Xsg+P0BErRKAQjFSoT6tPL507QqLRbZdYvTon03RQg4S6Bak32eccKtAQP9ciBaCQPsIFBDEWR5vo4OD31qPO5L7GNFr1TlYtgMUinkKVVsry7yeNXv1XOOlPPU4TH7qhEUjOehD7Qi5a7C+/URBslDYvuSEo0CAEQQKCCKdx4vq1Sto+crr127ihXosk6SWw4FCMUyh6urenr144S+vWYSHCK+9a0dexyEqI9A1TM/uF0EsFAoDeWwnICGImxS1o1evsHnzL5w5j/fAtKwdbNoKhWKSQlVV1e89dGD82p9NAgTqiag/of5EawJdwvVspwjCRSJG1BLQSBDoIIFsijpkbR3w2/SjBw6zyRIQSwsEoFCMUaiSkoqExOS+8wZoBxipJWmrrJaAC4FA+whoRupa/cYPhEKxvQbTQfNg0+H5BHFOKFw1YuTW5H9ayLvYxBoCUCgGKJRU2vj02cuo5Ng+SwZ0DzRQS4Y/0br60j7hYN9RGtG65jN4fmIxm3IkYgGBVglc4/HWDhz0T1Tsm4oa1rgCAvkuASgU3RWqQfr+/sPHm1JCnDwH9wg1gj+xTzXYGpFGrI7oL543FApVKO4RuMbjhTg5bQkJKy58jeXLvysf7PgSCkVrhaqre5ubJ3GP8Ozl2ad7pKFaCupPqD8xhoB6vA5/FuVuZtbqXTt2AAH2EbjG40U5OMR4ehe9KoFFsUOYvo0CCkVfhaqtlV2/fmvBuiUCN4suUXo/pDAmd7K1rIK42kRALVGbnEu6mJuzLzsiIhCQh0A2RUXb2vosWPjk0TNpw/tvEzC+YToBKBRNFaqmVnrt+s35HosNlhEaePPdZugj8wioJWmbLCCXQKG4N4wlj15wZ59YS0ufmbPu5Eoa6t8x3RjQ/q8IQKHoqFDVNQ0XMtLn+i+kPMXq8Ri8Y549tKlaw9qdU7SMFhPzLCwkcAgQ4DaBLVZW4XPm3rxyDQtvfqUgTP8RCkUvhZLJmior605fOj99w5+Er0gjAYs/wZ8YTMBgGTHbyjyP2+mTO+UWRNocgVyK2m1lFT1zVsbZizXVDUz3BrT/MwEoFI0USiZrqqioOZaWNsZlvIEvqZaI+hOD7YG1taW2DKrqryD+sjXPJsnmUgu+BwGOEMghyX0WFiFTp104frLyTe3nHIwPjCYAhaKLQslkTW/e1B48cqTf9P5aG4zUkmEPIMB4AnqrTGfYmV2HQqEOBwIEUUAQh0Qiv3HjT6YewpJRjDanz42HQtFFoT7409Ejg2YP7e6vjwIGCLCDgK6byW/2ZlehUBAIEPiXwDGhMGT8hLQ9+8tKKz9nYnxgKAEoFC0UqrZWtvfwgeErR2sFGGHxAnbYA6L4YbOWrrvx5D5mlyiKI4M1CBMEWiUgIYgTYnHMpJ+P7dj9uqSCoeqAZn8iAIXqfIWSyZq27N4xeOWP2iHG8CeYB5sI6KwznuQkPgeF+rcC0Wp+xQ5cIJBHEKfMzWMnTNy3eWtRURl0hLkEoFCdrFC1tbKohFjH+U7dIwzgT2yyB8Tyw2YtbS+j8c7ikzweF/IiYgQB+QnkE8RZsTh01OhtiSmFhaXMdQiOtxwK1ZkKVVlZFx4TZT3bTiMOixcwfuo0nOlbAlrrDccOFh+DQqEKBQLfEJAQxCU+P3DYj1sSU4qLyznuIgwNHwrVaQpVXFIelRRnt9ixS4Tet7kH34AACwj02GA4cpjoEJ8v/9059gQB7hCQEMR5oTB4+Ijt8UkY0WOiRUGhOkehiovLoxJi7Jf27Rasj/E7FrgCQvgugR7+BsOGi/ZBob6pQHDHEhBpywTyCeK0ULhp6LDk6NjXr98wUSO43GYoVCcoVGHh66iYGPul/boHGWD9p++mXnzJDgLdNhkMHiXcBYWCQoFA8wTyCOI0n+/r7BwaHAqLYpaQQaFUrVCFhaUx8fH2S/t1C9X/AetntmWpa3ZYBaei6Bqk7zxWuE0gaPlGHFtBgOMECgjiIo/nYW8fHhz6BmuXv1V1Xm63t0GhVPerksmaiorLE7em9Hcd3DUM43eYP85+Al1C9fqNE6RAoZqvQHBcHRD+ZwISgrhKUd6Ojlvjk6qr6tud1HGgKglAoVSnUMUl5Sl7tgzzHKUdivWf2G8PnKo2NRdsl3A9x4mCBKHwc57ABxAAgRYIXOTxNgwYeGTX3poaqSpVANdqHwEolIoU6nXpm3/2bR/uNUY3xBTzn5rLuPieZQQ0o3TtfhHEQKFQhQIB+QhICOKcQOA37MfDe/bDotqnNao8CgqlCoUqLavcum/nsLWjdEJM4E8sswSE0wIBjVgd2ymCCJGohdtubAIBEPiSwKf1olYPHXZgb2plZZ1M1qRKJ8C12kQACqV0hap4U7Pr0N4hq0ZohRq3kGywCQTYR0A9XsfyN34wFEq+CsSXeRSfOU7gKkXNHzToUOohzC5vk9OoeGcolHIVquJN7cFTR8Z4jtcOhD9h/hPnCKgnaZvN4AeIxRxPhwgfBNpB4CSP5zpi5PGDR8rLq1VsBricnASgUEpUqJpaadrFM5PWT9YPIDF+x74SCyJqlYBairbgT94GKBSqUCDQdgIFBJEqEPhNnHT++Mnq6gY5kzp2UyUBKJSyFKqu7u2laxm/ek8z9KPUErVbTTbYAQRYSYA3k+dlLi5oe/5ox107DgEBlhHIJYi9IlHw1GlXz1+uxTN69FsvCgqlFIVqaHifmZU1yeVXQ19KLQn+xLkBLFbKUPuCIudQay3FuVAoEACBdhHII4g9YvHG6b9nXM7AM3qqrDDJcy0olOIVSiptzC2Q/Ob2u6En2b6sg6NAgDUEiPmkm7X4NkmyrDyAcEBAlQS2W1hsWrDw+rWbsCh5zEZl+0ChFKxQUlnjnQcPFvovNfUQsiYLIhAQaDcB04XkClvRTShUuyoQqkzSuBadCeSRZIqNTcjS5Tczs+rq3qpMEXChlglAoRSsUC8Li1eFrOGvM9dI1Gl31sGBIMAaAiZLiaV2outQKCgUCHSMQCZJxtvZxbiuvpt/t+W8jq0qIwCFUqRC1de/cw/0ELlZasTrsiYFIhAQ6AgB4+WmC+1FGRRF51t8tA0E6E/gw0v0eLxEB4ckH9/nz16pzBJwoRYIQKEUplAyWZNXwHqzJdZqCZg/jvnjIPB/BAxdTOY4iq5AoTpWgaB/gkcLVUBAQhDXeLwYJ6fYoJCXL4tbSO3YpBoCUCjFKFR1dUNkYozNfDt1jN9thj2AwH8JGLqZ/N1XdBEKBYUCAQURyODxggYNTomOKyx8jde/qEaVmrsKFEoBClVZVbcjdc8Al6FdYvQ6MuSBY0GAfQT03Y1nOInOQaEUlD5VUOrAJWhOoIAgzvL5AT8O37t5awUWLu/UxaKgUB1VqIaG90dPpo1dO0En3IR9+Q8RgUAHCeh5GE0bIDrN49E8LaF5IMAgAvkEcVwkCh43/uzREw0N75urkeB7ZROAQnVUoS5fyZiyZrp+IF7h8t+xmw4mXRzOJgI6Xka/DBKmQaFQhQIBhRLIJYhjZmb+03+/dvW6skUB52+OABSq/QolkzXdvp3/98rZH5cgh0CAAAh8h4DOesMJQ4THoFAKTZ8MqpegqcojUEAQ+yws5k37TSK531yOx/dKJQCFaqdCNTS8z8u7s8x7JblWpJGAJaC+kzvZVEpBLO0moOVnMPZH4WE+X3mJBGcGAc4SyCXJBDOz1XPmPnn0TKmugJN/lwAUqj0KJZU23r//2Ct0vcVqW81YLAEFfwKBZgn0CNAfOUJ4AAqFKhQIKIdANklG2djEbthYhAf0VD61HArVHoUqKioNTYywW9W3a7j+DynNJo9237jjQBBgDYHuQfrDRgn3QaGUkz45W31B4F8SuE5REc4Dtickl5VVfbdYgi+VRAAK1WaFqqmRbt+3q7/L4B5BhmrwJ6wCBQItEugWqjdorHCPQPBlj4/PIAACCiQgIYiLfP5qZ+ejB4/gDXpKsqXvnhYK1TaFqq2TnblwYdSqn7T9jNWSsQo5KnAg0AqBruG6/X8S7IBCoQoFAsokUEAQh/l812E/5ucUSKWN3833+FLhBKBQbVCourq3mbduTff808CHVE+EP7WSO1kzFIVAOkJAM1rXcYJwGxRKmelTgfUMnIq5BPIJYo+5udeMP27fykUtSuG29N0TQqHkVaiGhvcFd++5hK0mPcXq8fAn+BMIyEVAI1bHbpLgHygUFAoElE8gnyCSrKw2LF0uKbiHJTe/Kz2K/RIKJZdCyWRNz18UBiaF2Ho5YAmDjtQkcCzXCKjH69j+KkgSCiTKzx/MrR+g5SCgKAK3SDKsZ8/kjQHFeEBP+Q/oQaHkUqg3b2q379vl5DoIb8HjmgEg3g4SUE/Qtp7KjxULC6BQIAACKiGQyeMFDx6SumV75ZtaxRZdcLavCEChWleo2lrZyTNnRq4YqxVgiCUMOphQcTjXCKgnaFtN50eYC/NUkjwUdSuP84AAowmcEggCJk46ffxkba3sq6yPHxVIAArVikLV17/LvJH164opuh7GakmYAiXX9BeuWQLibYGAeoK2xQxesIUwFwoFAiCgKgK5JLlDKPT/fcbNazfr698pUBpwqi8JQKFaUiiZrOnh46dz1y4wcCXwCF4LaRKbQKA5AuoJ2mZ/8fythLdJktG39Wg8CDCLQDZJbrW2jnBdXZB/F8scfOk9CvwMhWpJocrKqzZGbeKtFKthCYMWl09sLn3iexBQT9QWz6J8bYTZUChVVSCYlenRWuURuEVR0fb2sQGBL14UKdAbcKrPBKBQzSpUTY10z8FU+2VOeAQPHgAC7SaglqgtnEt62gqzoFBQKBBQOYErFBU8cNDBbTsrK+s+J358UBQBKNT3FUoqbbxy9drE1b9qhxi3O3ngQBAAAbVEbf4CYk0v4U0olMrTp/LKGzgzUwgUEMRJkShs8pSLZ85jpShFmdPn80Chvq9QDx8+/dt1lpEnhSnkkAAQ6AgBtSRtajHh0lt4HQoFhQKBziCQQxB7rK3958y9W3Dvc+7HB4UQgEJ9R6HKyqpWeriRK4QacTodSR44FgRAQC1Jm1xmutRBmAmF6oz0yZRiCdqpPAISgrhBkgk9ewav8ywsLFWIOuAknwhAob6jUDHJCWYLrDWjdZH/QAAEOkhALUnbdKXJQkdhBhQKCgUCnUfgJkX59e8fG5uASVEK9D8o1P8oVH39u7Qzp0et+qlbuH4HMwcOBwEQ+GGzllqytvEqk9l9RVcpSnn32TgzCIBAywQkBHGJolyH/Xj+1FlMilKURUGh/qtQUmljdnbeXJ+FRv48JD8QAAGFEFBL1jZaY/ynk+gKFKrzKhAtJ1ds5QgBCUEcFIsD583Px0pRCnp9HhTqvwr18mXxumBvkbuVOqZAYRUoEFAQAbVkLYO1RtOdRZehUFAoEOhsAjkUFdezZ5SPb+nrN4qqxHD5PFCo/1Momaxp8+5tdisdu0ZgCA9vcQEBhRFQS9HS9zScPEB0EQrV2emTI7UWhNkygSsU5e/sfGz/Qbz4pePyB4X6oFAyWdOFy1dGuYztEWiokMELnAQEQOD/CKRo6foYThwkugCFgkKBAD0InBQIlo8Ze+P6LVhUBy0KCvUfqbQxP//uYp/lxt68H1IUdvONDAoCIPCBQIqW9gaDsUNE56BQ9EifLZcosJULBPIJIkkk2jBv/uOHTzG1vCMWxXWFksmaXrwoCogJNFtlrR6njZwHAiCgYAIpWj38DYYPE53h8biQnBAjCDCCwC2SjLC3TwkNf/WqRCZr6ohGcPlYritUVVX9niP7nV0Hdw3XU3DmUNBsXLQKBJhOoHug/pDhotNQKFShQIBOBK7weP7DR5zYd6C6qp7LGtSR2DmtUFJpY1ZOzh++M/UCCAzhMT1Po/20JdA1WN95hOgkFIpO6ZMRlRI0UqkECgjisJlZ+Jy5t7NypNLGjpgEZ4/lrkLJZE0vXxX7RPkJPS3Vk/AiF0wCAwFlEegaquc0WniEj4E8QqkZEScHgbYSyCbJOBubaC+fwlclnNWgjgTOXYWqqqrfumdH7yWOXSIwhKes3EnbuggapkoCXUL1+v4kTBXw29q/Y38QAAGlEpAQxEWKCh0w8MD2XXjxSztciqMK1dDwPuPGjZFLxvbYaIAhPFVmU1yLgwS6hOk5ThDsEkGhUIUCAdoRKCCIY2Lxhp9/uXDuEobz2mpRXFQoqbTx8ZPny3xWGq7nqSWjAAMCIKBcAl3C9ex/FmwV8yWYDAQCIEA/AjkEsdXCImSFy/27D9vqEBzfn4sK9eZNbXRcrOVSWw7WAxAyCKieQJcIXbvJ/CQzKBTtKhBKHSTCyRlE4DZJRvXpkxKfVFZWxXEralP4nFOoBun7i1fThy4Z0TUEU6CUW3tQfarGFelJQDNS13YaP8ZcgCoUg3Iqmso1Aqf5/KDxEy6fv4zFNuW3KM4p1NNnL5cFuhiv56klYSFNKBQIqIKAZpSu9e+8cAsoFKpQIEBfArkEscfWNnjZiocPn8rvEBzfk1sKVVsri0mJt11trxmnS8/7dbQKBNhHQDNa1/JPXqCVEFUorhU2EC+zCGSSZLij49aoGBSi5FRDbinU5asZA+YO6RFsiKfw2JenERFtCWjE6JjPpDZYQ6HoW4FgVqZHa5VEQEIQl/n8NWPGpl+5JqdDcHw3rijUp3fhzXKbq+9NYgiPtrkWDWMlAY1YHfEc0stGWEC/Z5GUlIpwWhBgKIE8ktwtFC78bfrr1284rkfyhM8VhSotrYxOjLNx7a2BITy8vA8EVEtAPU5HOI9cYyuCQjE0raLZnCKQS1FBDg7REVFVlXXyaASX9+GEQtXXvztz8cIo15+6BWMhTVVMH2ZlKQVBtZuAerwOfxHh0hMKhYE8EGAGgWsk6TZ8xJWL6Vhss2VBZL9CyWRNj548Wx7iarJegCG8dmdBHAgC7SagHq9NLTFdYgeFYkb65FTFBcE2R+CAmVngKrcXzwtbdgiOb2W/QtXUSP/Zvd3Rvb9mLJ7CQwkKBDqBgHqCtuly0/m9xRjIay5d4XsQoBuBmyS5ycHh8O59dXVvOe5JLYTPcoWSyZqybudMdPtFy88Q73JpdxUBB4JARwioJWobu5jMtIdCoQoFAkwicEIk2jDtt4JcCYbzmrMolitUUVGZd+QGvoe5ejwW0uyE8kNH8i6OZQ0BtSRtQzeT3x2gUExKn3QriqA9qieQQ5JRFhYJfv6FhaUyWVNzGsHl79msUNXVDfv2H3BY5NQtUp812QiBgADjCKgla+m7G09xNMvHogYgAAKMIpDO463r3//EwSN4Ou+7pshmhcqT3Pl11VSt9VhIE/UnEOhUAilauh7GE/tAoVCFAgGGEZAQxH4+3++PP/NyCrBk+bcWxVqFKimpiEiKMnO1ZtwtOxoMAuwjoOVtNKafOapQqh+LwRVBoOMEwu3stoSGFxeWfusQHP+GnQpVV/f21PlzQ5eN0IzEU3idWn5Q7RKO7DMP1kSktd5wpLNZNkl2vDfHGUAABFRM4CKfHzph4uXT52prZRx3pq/CZ6dCPX320iXYzciHh6fwWJODEQijCWj5Gg4fZHYNCsWoeTAqztO4HG0J5BHELlvbhNXujx8+/cohOP4jCxWqtla2O3Wf3co+WAiK0UkXjWcTgR5+hkOHii9RFG2TBBoGAiDQAoF0Hi96yNDUrTtQiPrSGlmoUC9eFY1eNK6HvyGbMhBiAQFGE+jubzB4uOgMDwrFsNnELeRUbOIUgXyCOCgUbvrjz9ycgi8dguOf2aZQlZV1wRGhvOXiH1IwBwgEQIAuBLoHGAwYJTrG53Eq6yBYEGATgZskmWBnF7oxoLS0kuPm9Dl8VimUTNZ07sLFXj/ba0brMPqWHY0HAZYR6Bao33+s8ICAz6aMglhAgFMEJARxlqL8Row8eSytvv7dZ43g8gdWKdSrVyUL3ZdorzdiWfpBOCDAdALdgvT7jhfuhkJhOjkIMJlAHkHsNzcPWrbiwb1HXDanz7GzR6Fqa2Vbtmy3XWmvloh3udBl+IbpiR/tVxSBriF6DpMEW4UCTt21I1gQYB+BmyQZ4zxgz9YdVVX1n02Csx/Yo1D5kru/rp7WYxNmkcOfQIB2BLqE6tn9yk8UCdmXURARCHCNwEmxOOCPPwvy7nDWnD4HzhKFqqysi0qJtfTspZGAWVC0S5+KqmTgPMwl0CVcr+dUfjQUismDOFwTBcTbHIHbJJng6Lg1Oq6a84UolihUZtatsasnaAcb40E85mZZtJzFBLpE6FpP54eIRc11yvgeBECAKQQ+zCsXCHzHjc/j/AIHbFCosrIqr1BfvrcFSlAszsEIjdEENKN0Lf/g+ZuJmZIk0E4QAIEWCOQRRJKV1Sb3dZ+HtLj5gQ0KdfREmvOKwd3C9RmdY9B4EGAxAY1oXbO/KR8oFAbyQIAtBDJJcqmzc+a1mzJZEzf96e3b/zBeoZ48ebHMd6WRD6WWhAfxMAsKBGhKQCNWRzibWmtu1sJ9LTaBAAgwi8AOkWjln3+VcXilTWYr1JvK2i27dvRe0VczWo/Fd/AIDQSYTkAjToc/j3SBQrGlAsGsTI/WKolADkl6ODkd2ZtaUyPlZiGKwQollTbm5BXM9Jur42eCWeRMT7FoP7sJqCdokwvJJRbmSurKcVoQAIFOIXBMKPSfM/fBvUdSaSMHLYrBClVeXp2wK6XXuj7qCRjCo+nwDbu1ANHJT0AtUdt0CTHP0qJTenlcFARAQEkEckgysl+/fUmbqyrroFD/YQoCmawpJ79gxoa/tTdhIQP4EwjQnYBasrbRcuJvKBQG8kCAdQROikShc+fl5xRwsBDF1CpURUVN1D9xVu52GvG68t8KY08QAIHOImDgYvqbtaWSboVxWhAAgc4ikEWScb17741N4OArXxipUFJpY9btnIlrf+3ub4BZUJ2VEXFdEGgTAT1Xk19tLPJZdwveWXkL1wUBmhCQEMRxoTD09xlZmVlcW+CAkQpVWlYZkhjOdzPHG4XblMOwMwh0IgHd1SaTellkkyRN+n00AwRAQFEEskky3tY2KSyilGMLHDBPoaTSxpvZtwfOG9ot1KAT8wEuDQIg0CYCOmuNxztYZEKhUIcDATYSOMXn+40afencRU4VohimUDJZU0lJhXfgelM3QZu6b+wMAiDQuQS0PYx+6mt+haIUdeOL84AACNCHgIQgks3Mwv38iwpfM+W5tI63k2EKVV//7sKVdKe5AzVidTo3H+DqIAACbSKg7WU0qr/ZeSgUGysQ9EnkaEknErhEUcEjR51JO11f/67jdsKIMzBMoYqKytz9PYx9eG3qu7EzCIBApxPQ8jEaPtDsFI/XiV08Lg0CIKA8AhKC2GFtHevl8+J5ISMEqOONZJJCSaWNZy9eclo+SCMGJSi6rwPU6QkbDaAbgR6+hkOHiI9BoVCFAgH2Ekjn84NHjDx76mxDw/uOCwr9z8AkhSotq/QM9jby5mEhA7plR7QHBFol0N3PYNCP4oN8vvJugnFmEACBziWQRxC7evaM9fQuKamgvwB1vIVMUqjMm1n9lg3oEok3CqMEBQLMI9Dd32DASPEeKBR7KxCdm7xxdToQkBBEOo+3YcjQ6xk3Oi4o9D8DYxTq/68KrvZfS3qL1ZLwRjzmpc9WSxTYgfUEum3S7zdGtF0goENHjzaAAAgoiUAuQeywsQl2W1NX95b+DtTBFjJGodLTM52XDO4SoYdRPNbnWgTISgJdg/Udxwk3Q6FQhQIBVhOQEEQmRbkNGnyNA4UoZihURUXNkpXLjDwpLEfOyuSKoLhAoEuoXu+JwgShUEn3vjgtCIAATQh8eDTPzGzVosU1NdIOlnlofjgzFOr4yVPOSwd3xSyozRjCAwGmEugSrtfzF0E0FIrVFQiapHA0gw4Epjs4ZFy5xu7FyhmgUIVFr9dsXKe/jlBLwSwopqZPLlRZEGPLBDQjda2nCMJEIjp07mgDCICAsglsFwp9XVeXlVXRvJLUkebRXaHq69+dPnduyJqRmlG6LXfQ2AoCIEBnAhrRuua/8QOhUKhCgQA3CGST5LoRIzMuprN4sXK6K1RhUal39AaetxlmkdM5O6JtINAqAY1YHdEM/gaxWNn3vjg/CIAAHQhICGKrjU2S/6aS4nK2DufRWqGk0sYrGZnj1k3qGqHfageNHUAABOhMQD1eR/AXzwsKxY0KBDQCk2cAACAASURBVB1SONrQ6QQu8fkhk6fcSM+UShs7Ml5G22NprVBvKus2JYfw15mrJ2AWFGZBgQCzCaglapOzeO5mZp3eraMBIAACqiGQQ5JJtrY7wiPLWTojitYKdet27mSv37SCjOh8b422gQAIyENALVnbdC61CgqFKhQIcIlAmkAQPuOP2zdv07aS1JGG0VehqqrqE3duFrtaoQQlT37CPiBAfwJGC8jlFuYFXMofqrnXx1VAgLYEskgy2t5+T/I/VVX1HZEVeh5LX4W69+DxRJdftfxRgmL28A398zpaqDIChovJxVZmuSRJ2+4eDQMBEFAsAQlBHBaJQv6emXs7n54a1JFW0VShqqrq9xxItZhvrZaMWVBQKBBgCQHDZcR8G7NbUCjU4UCASwRukmSond2OlC3V1Q0d8RUaHktHhZLJmp48ezFl2bQe/oYquz/GhUAABJRNQH8FMbuX+DoUikvpU7ElDZyNoQQOCIXB8+YX5N+loQZ1pEl0VKi6urd7D6X2WuKAEpSyUxrODwKqJKC3yuQve3EGRTE0DaDZIAAC7SNwnSQj+vdP3bW3tlbWEWWh27G0UyiZrOnlq+KlPit1AoxV2bnjWiAAAsomoLvaZEYf8WUoFKpQIMAxAhKCSLWwiF7l9vjRM7ppUEfaQ0eFOnXuXN8VAzQSdJTdoeP8IAACqiSgu9Z4Wj/xeSgUx9Jn++oWOIplBK7xeJEjRp5OO93Q8L4j1kKrY2mnUOXl1f6Rm4y8KbzRRZW5DdcCARUQ0PEw/tVZdJrHY1luQDggAAKtEsgniF22tokbNr4uqaCVBnWkMbRTqNu5+cNXjekWbqCCDh2XAAEQUCUBLW+jiYNEaVAoVKFAgHsEJARxQSAIGDc+j0WrG9BLoaTSxugt8WJ3KzW80WUzS55jV2WGxrVoTqCHr+G4IaKjfH6rN6zYAQRAgH0Eskky3t5+R2yCjC2vzKOXQr16VTLF9TedYBO1FAgECIAA2wj02GgwepjwIBSKexUI9tkAImoHAQlBnBIIVv38SxlbXplHL4XaumtnTxcHzThdmt9Mo3kgAALtINA9wGD4COE+KBQUCgS4SiCPINb06pV24lRHZiDR51gaKVRhUel8twV6G01/SGbbzXc7kg0OAQH2EegWpD90tHC3QNCO+1ccAgIgwA4CqULhwt9n1NRI6WNC7W4JXRRKKm08duJkv+UDNSNRgoJBggA7CXQJ1Rs4VrgdCsXVCgQ7DABRdJDAbYKY4+BwLT2TBasb0EWhiorK1of7Ga3jqSXhpXjsTJ/sq6kgorYS0IzQdRov+AcKBYUCAW4TSBKLw7zXv3lT2+7yD00OpIVCSaWNV6/d+Ml9Yrcw/bZ2ytgfBECAKQQ0o3UdJwmShcIO3sXicBAAAUYTuE5Ra3/+JT9XImX4o3m0UKg3b2pTdm21Wt0LL8VjSi5EO0GgHQQ0YnXsfuHHQaG4XYFgdO5H4xVFINLBYX/SZqYXojpfoWSypoePni7YtFTfn2xHp4xDQAAEmEJAPUHHZoogGgoFhQIBzhM4KhSGLF767OlLmayJJqNy7WhG5ytUXd3btPNnhnqM7BKtx5RMgHaCAAi0g4BakrblNH64SKSoG1mcBwRAgKEErlFUxJixF46frKt72w53ockhna9QpaWV/omBfB9zTCRvR07CISDALAJmv/ODRSIJ52/BGZr20GwQUBSBXILYam2dvDGgnMnLbHa+QmXn5k31ma4VZMSsTIDWggAItIOA6A9egLkoHwoFAiDAeQInhcLImbMY/cq8Tlao+vp3e46kmrvYqMdjLQOsZQAC7CcgnMnztRDlcj55KOpWHucBAeYSuE6ScX377kvZwtzpUJ2sUEVFZUv9Vup6mbTjdhaHgAAIMI4AfzblZS3KJknm9vtoOQiAgEIIFBDEHpEocOWq4uJymsxtamszOlOhGhreZ93Ksf/LUSMaK5Kzv/zAuGSPBiuDAG8e6W4ryoJCoQ4HAiBAEBf5/JAxY8+cPNNWd6HJ/p2pUNXVDUFRoSbL+T+kQCBAAAQ4QYBaSLj2FN2AQiF9ggAIEEQuSW62tNy4YSNDn8vrTIUqLHo9fOpIzQiUoDiRO5VR0sA5GUeAWEKs6C3KhEIhfYIACHwkcEoo9P57Zn7+XZoUltrUjE5TKKm0cf/Bg9bzezIuB6DBIAAC7SZgutx0sb3wKkUpZC4FTgICIMB0AjdIMqpPn51btjNxUnmnKVRZeZWLp5t2gHG7+2IcCAIgwDgCxi4m8/uIrkChUIEAARD4SEBCEIdEIj/3daWllW2qANFh505TqOs3bo1xHacZg1E8jOKBAIcIGLmZzOonugiFQvoEARD4l8BVPj9w4qTMjBt0sKI2taFzFKq+/t223TvFa63VE7EcFIfSJ+NKJmiwwgkYuhv/0V90Hgr1b/Jg+igM2g8CHSeQSxAJPXtuZ+BYXuco1MuXxSuD3Yw3CfAsnsJTFE4IAnQmoL/O6LcBwjM8Xse7XZwBBECANQSOicUha9YWFZW1qQjU6Tt3gkLJZE0Z128Mcx/ZNVKfzn092gYCIKBwArpehpMHCU9BoVCFAgEQ+IJABkX5/Tj8dlZOp1tRmxrQCQpVV/c2dluilacdXuqi8PyEE4IAzQnorDecOESYBoX6InmwppCAQECg3QTyCSLC2vrw7n3MWiCqExSqtKxyrs9CvY2EWjImQmEiFAhwi4C2n+HYYaJjUCgoFAiAwP8S2CcSRaxcxayxvE5QqItX0kesHdMtwoDmt8toHgiAgMIJaAUYjBwuPAKF+t/k0e57dxwIAqwhcJWiPJyd87LzGLRAlKoVqr7+XXhCFM/dTD0BJShulR8UnoxxQiYS6B6kP2yk8BCfz5p+H4GAAAgoikCAhUXq9l2VlXVtmpDUiTurWqEePXo213uhti9W1IQ/gQAXCXQL1Rs4WpgKhUIVCgRA4BsC+0WioPkLnjx61olW1KZLq1qhzl24aL+4j2YUVtTkYvpkYtUEbVYsgS4Rek4/CfdBob5JHoq6j8d5QIC5BDIpanWfPumXM6TSxjapTGftrFKFKi+vjt2SSK0QYTkoxaYlnA0EmEJAM0rXYZxwDxQKCgUCIPANAQlBhFpZ7YxPKiur6iwratN1VapQ9x8+nuY+o3sAJpKjBAUCHCWgGa3be5Jwm1Ag+ab3ZO6tM1oOAiCgKAKH+PywOXPvSO63SWU6a2fVKVR9/bsLl9P7zO2vloKJ5BxNn0yplKCdyiOgEaPT6xdBikhQAIUCARAAgW8I3CTJTYOHnD99rqHhfWeJkfzXVZ1CVVTUhKVECdZaKK93xplBAARoTkAjRsd2Cj/eTJD/TdepqLtYnAcEQIDRBJLs7XfGJpSWVsqvMp21p4oUSiZreva8cL7noh6hhjTv4tE8EAAB5RHQiNWx+Y0fZSHIg0KBAAiAwPcIHDU3j12w6P7dh50lRvJfV0UKJZU2XkxPH+I2QiNWR3m9M84MAiBAcwIasTpWM3ihloLc73WdjL51RuNBAAQUQuAajxc2avSVi+n0fy5PRQpVX/9u886thKsAL3WheYZD80BAqQQ04nQs/qI2WQtzSFIhvS1OAgIgwDICuSS52clpb8qWqqp6+QtCnbKnihSquLh8ZYCrrp+JUntnnBwEQIDmBNTjdMxmUb42wttQKNThQAAEvkcgnyAOW1pGL1tRVFjaKWIk/0VVpFAPHjxxXjRYMxIrauJZPBDgNAH1eB3RXNKzpzAbCvW95MGycgLCAYF2EJAQxBU+f8Oo0XcK7slvM52yp4oU6mjaCcsVPdUSsZwBp9MnzQskaJ4KCKjHawsWEGt6CW9BoaBQIAACzRC4TVHh/fodP3C4U8RI/ouqSKGW+q4w8CHVkiEQIAACnCagnqDNW0S42AmzoFDNJI923LXjEBBgGYF8gthtbh7stkZ+m+mUPVWhUCUlFSNnj+karq+Ce1xcAgRAgM4E1BO0yaWmS+xFN6FQUCgQAIFmCEgIIp2iZg8eUl3d0CluJOdFVaFQh48ec1zVXzMWE6E4XX6gc15H21RGQC1Rm1hhusBRdAMK1UzyYFk5AeGAQPsIFBDEYlvbmzeyZbImOYVG9bspXaHq69+t8/Yy8uKpJWEiFBQKBLhOQC1J22SVyaw+outQKCgUCIBAiwRizc0jNwXV1spU70ZyXlHpCvX48fNZq+dobzJS2W0uLgQCIEBbAmpJ2karjf/oJ8qEQrWYPNp3446jQIBNBM7weLPH/vS6pEJOoVH9bkpXqJOnz/RdOaBLpB5t+3Q0DARAQGUE1JK1DdYaTXMSXYNCQaFAAARaJJBPkn/Y2+dk59F2mXLlKlR1dUPC5hTKRYRFyVWWonAhEKAzAbVkbT1Po1+cxRkUxabbZcQCAiCgDAIbbW1Tt2x/86ZW9RUmea6oXIV6+vSla+gaAx+Czn062gYCIKA6AilaOj6G4weIr0KhWrz/VkY2wjlBgHEE9otE4StcXr0slkdoVL+PEhVKJmvKupUzxm18lyiM4nF9ErHqMvRmoKY3gRQtrQ2GowdBoQjGJTM0GARUTyCTotZP+jk/V0LPsTwlKlRtrezY6bS+rgN+wIqayOsgAAL/EujubzBssDgdVShUoUAABFojUEAQwcN+PHfiVE2NVPVFplavqESFKi2tDEwJEXhb/JBC79vif3t2VEpAAARUQKBbgMHgYeILUKjWkofq7/hxRRCgGwEJQWyxt98dFkHP5/KUpVAyWdPzF4WL/JdhOQMV5CRcAgQYRKBboP7AEaJTPB7dOmu0BwRAgIYEjorF0QsXP3n8vNWakOp3UJZCSaWN17KyJnj90iUCE6FQhAMBEPgvgW5B+s6jRcf4UChMhwIBEGidQDqfH/7r5Fs3smk4HUpZCtXQ8D71xCErt17q8ToMuj9GU0EABJRNoGuwfr+fhKkCKFTryYOGJQE0CQRUTOAmRSX+ODxt/8G6ureqrzO1fEVlKVRlVV3UljjjtTxMhFJ2QsL5QYBZBLqG6DtOEO4S8VXcEeNyIAACTCSQQxC7evbc7OdfVVnXstCofquyFKqwqHTehkVaG/Fel/+OXzArz6G1IKAkAl1D9Rx+FmyFQmE6OQiAgBwECgjiuEgUOHMWDWeUK0uhHj5+2m/eAI1oXSX1wjgtCIAAQwl0CdOzm8xPEguYeEOMNoMACKiewBUez++ncfl5d1RfZ2r5ispSqDPnL4jnWaphRSismAACIPC/BLpE6Pacxo8xg0JhLhQIgIBcBLIoKsJ5wNHUQy0Ljeq3KkuhvALXG6/jYyIUQ+sEaDYIKI+AZqSuze+8MHMolFzJQ/V3/LgiCNCNQB5B7LSyCl7nqXpJavmKSlGohob3E2ZO6h5iAIVSXh7CmUGAoQQ0o3Qt/6Q2WQjp1k2jPSAAAvQkICGIc3z+nAkT6baugVIUqqDg3uA5w7pgItT/jl8wNOGh2SCgWAKa0TrmMylfSygUqlAgAALyEsgmiD+dnZ8+fdlyWUjFW5WiUNt27rR27aUehxWh8DgeCIDA1wQ0YnREc0gPKxE973fRKhAAARoSkBDE6p49006cksmaVOxJLVxO8QpVV/fW22+9oTellqyt2JtXnA0EQIAFBDRidQTzyNXWUCh5779pmM/QJBBQPYFEkSjE16+uVtaC06h4k+IV6vnzwkWeS3UCjFnQ1yMEEAABhRNQj9OhFhIrbMWq74JxRRAAAeYSOMvjLZ48pbysSsWe1MLlFK9Q6RmZY9ZO6Bamr/CeFycEARBgAQH1BG1yielCKJQciwoyN9uh5SCgcAK5JDl32I8P7j2iz1ieghVKKm08eORIz1UOeDUeC1IdQgABZRBQS9Q2WWE6p5eZwntYnBAEQIDdBDycnS+dOV9Lm7E8BStURUVN/LYkkbslljNQRu7BOUGABQTUkrSNXEz+tDNnd1+P6EAABBROIMbWdk9sAn3G8hSsUM+ev3KLcDf05bGgo0cIIAACSiGQrGXgZjINCoWBPBAAgTYSOCAWx7i4vnpZ3ML8JFVuUrBC3bn7YLLHtO5hBkrpebHMEgiAAAsIpGjpuhv/bI8qFJ7IAwEQaBuBSzzepum/P7j3SJWe1MK1FKlQDQ3vr1y7NmLNGM04vF3467Vw4JQgAAKfCeh4GI93MM9v4w2owgcFcEIQAAFmEciiqOBx4zPTMxsa3rdgNirbpEiFqq5u2HVkX+91/dQSsSIUFAoEQKBZAtpeRmP7md0iSQlB5BNEHknmkmQeSRZAqkAABECgeQI5JBk/ZGja/oPV1Q0q86QWLqRIhXrzpjYoKdTUW6iW3GzX+fk2FB9AAAQ4QkA9XlszUrdriF53f4Me6w21PY1M5lCD+1hEiERJAsFmgWCrQLBLINjL5+/n8w/w+Qf5/CN8/ike7wpF5TTfmTLr7hmtBQEQ6DiBD+8btrffFRJWWlrZgtmobJMiFaqwqHR18FotPyOOJAaECQIg8C0BtURtzSidboH62t5Gei6mxvMpk5k807/4pn/zTWfyTGfxjOfwqKlCJ0dLNzMzHxsb7759PQYNdh8x0nXM2GVjf1o5eoz3kKEbHRx8zc29xGI3MzMPM7MIkWg/n5/5sWrV8V4YZwABEGAogQKCOGxuHrNkWeGrEpV5UgsXUqRC3bn3YIbv391DDL/tVfENCIAAiwmoJ2prRuh232Sg721q6ioQrrDs6WI/aO3wyRt/Wxix1HP7+vCjsdsv7zmRfSbj/k3JiwcvXxdXVFQ31MpkNdKGsqr6VyX1D5/W5BRUXb1edubCyyPHJXv2Z27Zfj467riv38FFS/6Z9LP/0GEuzs6r7eyCxeJdfP5pikonydskmU8QGP5jaDpEs0GgrQQkBHGezw+eOu3Rw6ctmI3KNilSoa7dvNnPZaBGNN4ujHFMEOAAgRQtjRid7gH6uu7GJkt5wsXmfVY5T17/24oY15AD4Tuu7E0rOJf5IvtO2cPnVUWva99UNdTXyd41yN7LubKwrP5dQ3l1/avX1Y+fv7736EXGjQeph26ERexb4RL823TfQYM32tpGWFpuE4nSeLyMjzolwagfCIAA2wlco6iQsT/duHZTzp5EqTqlMIWSyZpOnz/HX2SmloS55BxInyx4tB4htJeAepxODz9D/eWEyWxKuNB8qM/IpckuCWc2n8o/n12Y/6TyVXlddYNM0c/L1L+T1kjrq+prX7+plNx/cf5yZsqWw6vcYkaP8XNyCrK13SwUHuXxMigKD/q19c4e+4MAgwhkUVTsoMFpBw6zSqGk0sbE7ZtNXfksHq1AaCDAaQLJWl3C9PRcTU3/5hOzBUMDRnkc9j2Zf/5J2cvS2spa6VuV9WgyWdOHf3Vv68uqyh8+fXjg8OnV7mGTp3g7OQWZmW0RCM5TFEb3GJQU0VQQkJ9ADklus7PbEhImpcG6BgqrQkmljYvXL9PdYIpXu3A6y7a3sAFo9CWQoqWeoN1tk4Hhckowx8zRzXnxtpUHbx17UPK0vLZG+rZRqXVyOU8uq5FW5925u2X7bhfX4DFjN/TqFSkWn6WoPILA6J78yQl7ggD9CeQTxGEzs4D5C+iwNJTCFKq2VjZy3piuYfpQKPrmQvgNCLSFgFqytka0rpafEeki6r28z+Tg6UFHI87fSX9a8apWKpO9bZLTb1S5W/2rkqdnLlwMj/znr7/9nZ0jLC2P8PnX8Sgf2+fH0D/xo4WKIiAhiEt8/vLRY+rr36myb/nutRSmUI8ePRswb4hmLNYlx0QoEGA8AbVkLY3YDxOeqFVipzWD58QuTDq35caTnMKqsnpZ53db3+3L/vtlw/u6/4+9qwBv2/jilpnC4NIKix1mKDPzVly5W5mZmTltUkjSYNeu3G5rt1LK27+cMsQOM3NitpX/p2RN00RSDDIklT5/rXw63b17su798u7d7+UW5bx+/+rUmUuLlx7q1z/Q3f2Sg0MMl4vVJI63g2sA14ABNfCGy53btWtubtGXt15WaZBzzCDU3zdudFjV1TwUh1CN3nziXrRvWgP/Ldu1+n65Y9flPWcfX3jm6UVBdlKRsFwiNYo1OxUnSqlYIS4RFgoSP/1x9erylfu6dt3q4vK3g8N73B+DawDXQCPXwCc7u9UdOrx4/kpv8ZdI0w5mEOrA4YP2m13NwvDteDiEwjXQaDUQxTEPav7daq7vjA7jD0w+EXMmpShTJDF6txPKH6BVUeflGTnJt+//PmXqfDe3PS4uT/Fg80ZuQQ3o/8C7NhIN+Ht5nT99zuBredhAKKFQtnz9ypY78VjyRms71QmR+aadNE1VUVEcs9BmzXa2dZvjPWLjmEN3jwkKkpD+8GqU5WJFRWrmh6iTh0ePWevre8bJ6TkOpHAghWug0WrgpJOT/8bNJSVCw05H2ECozMzcuevmN9vXFjeuuAZwDTQ6DZiFN7PZ+933Cxx6LO2z6cKOR6kvSsVGkcIT48lRCkrKJYWv3kVv37lh8JBD7u7X7O2rUx0byR/WuBi4BnANqKiB6/b2q8dPyMkuwHiWQHFpw13CBkK9iHk9cv1Y64OtGp3xwAXGNfCNa8A8uHmrld87z3WfETw3+tOD7LJCw05JOu9dCooLSlNv3z8/d/7ODh3CXFwe8Xgqztp4NVwDuAaMRANPudzZ3bsbPM0LNhDqevStDis6mwfhseT4Qh6ugUajAdOoZlYHW30/277Hmj4Bt4OSCtN1Dl/g/owzTKcSZWli6rOjwXuHDd/r7n6Xx8Ppo4zENOJiYKwBe3uBh0d8x44JPXok9u+fNGRI8vDhSUOGJPTuHeftzW+0fz98sLOb4+Pz8uVbicSQ21wwgFASifLi5d95C53x1C7fuD8DH34j0oBpRLNmm9u4jvQcvP+H2wkPy8VSw0AZw4IqiTLn9v2QSZPXuLlddnB4g7MeNNrIGIxhRyPSA5cby+PxnZwSe/VKmzo1e+3agqNHS69cET59KomLU+TnQ+xtSqVSJFIUFcmzs6WpqZK4OOHz52U3bhSdPl0QHJy3Z0/mkiUJffoInJ1j7e1jG89bsMHX9/b1WxUVhpy7MIBQRUXlob9Fclc5NSL7gYuKa+Db1UAUx+Joi1Zrvu+4pMu6y5s/ZMVVSAw5BxkcupW/fn9t9dpt3buHuLo+xt1RjQg9fLOicrl8J6c4H5+kQYMy5s3L27ev5NIl4bNn0vh4eU6OsrQUlEhAhaISBCsbOkCZTFFcLMvIkHz6VBYdnR8QkD59emL//gJ3d+PHUoFeXhciThQUlBpwDsEAQmVm5m4+uq3V5u+/XZvUVHdp4eNqihqwOtTSbolj/01Djt0LzSjOa1xsTzqaK4Wpmc9CwvxHjT7o5XUP36n3zUIT4x84jydwc0vs1Stj3ryC4ODy+/chV1NhIeRq0voApVJlebk8N1f08mVBWFj6rFnxnTvznZ1jjXWx75Szc+SOXRkZOTqaFlRpFgMIlZCUMnXLNOsDeCx5owmCwcHuN6sBm/2t7OY5Ttw/9crr6zmlhQYnplNlktJDHakUFOYV86/dDJs2fbu39zV7+w/Gb01xCQ2lAR5P4OIS5+MT36VLYp8+SQMGxPv56WElEVqt69MnZ/Pm8rt3ZampyvLySqVSa+BUrwEQrFQqQZlMlpFRfudOzpYtif37811c9DBAdbv4y8EhaP4Cfmy8HqYIpC60hVBSKcjnJwxZ9INpKE6qiUMoXAPGqwHTiGa2u777fpb9z0Ez/k16ViGWIU0K32y5RCTPeRpzZs7cjd7ef+I85oYCKEbZb8qYMWV//SX5+FGanCzPyZHn58sLChSFhYqiImlyctbq1eqaf3Xrx/n45GzdKn7zRlfIqR6UggqqgqhEL19mrVyZ0K0b39FRXbF1Wv8hjxc49qeXz18ZcMrSFkKJxYpnMS/7Lx38zf5Zjw8c14Dxa8AsvFnzbW1c53vOC18ck/VOLFUYcNIx8q5LPgqurly9o1On3x0d3xqlOdepWTJY49Vh0Q4OfEdHvrMz38VF4OoqcHcXeHgIvLzivL3jfHwEnp58e3uDSJg+bZo0IQEWZiiKi3N37tSVVDxenLd35qJFkthYVWKbYCXUvlBRVlZ27VrG/PnxHTsaT4xUDJcb0K//g3sPDTilaAuhKoTSv6JvdFjVzfitCC4hroFvUwOm4c2ab2nbcWnXtb9tep3xEcdPDU64RbHxN7Zu39ejxwVHx7eNZ4OSrqy4XnBk8pAhWatW5W7fnrd/f/7hw4XHjxf9+mvxuXMlf/5ZduNG+f37widPSi5eTBkzxiChOamTJkkEAlgsoiwtzfP314Xy+U5OySNGFJ8+rSgshO1an4WgQiFNTMw/fDixb1++g4Muxqtumx/s7I517Xr1z78MyGugLYQqr5CEnAp32OT2bRonfNS4BoxcA2bhzZptadNxadftF/Z8yBSIpI054Z2+GBCkYkUhP+H2nn27evY87eiIkx2oa9s0qJ+3f7+ipAQdEygrKorPnk3o0UOD9rW8JfWnnyQfP8KKpywrKzh6VMv2698ucHfPmD+/4t9/lRUVWvqfQLkclEqhbXrVwY8aR1CBoDwvr/j8+ZTRo40kOiqqY8ezJ08bkNcAAwi169CeFrvw7XjGGwRj5DYeF093GjCtwk/ec/y2Xt6VkJeK+58a9D/VVJCKFcWJqXf37l/TtetJfEVP946onO3bFUVFsBildqE8Ly93506Bh0d9zKHTkuQRI8Rv39aWpOZcWVFRGB6OZe9cbnzHjnl79kjj4jTZageCoFisyMuTxscLX7wou3Wr5MKFkgsXSq9cKbt5s/zOnfL79yv++Uf06pU8IwOUSGoGotIJCCqFwvK7d9NnzBC4umI5ao1+Yxfat//1aJABeQ20hVDFxRUbd262Odhad2YAbxnXAK4BDTRgGtmMs7O151yfNRc3ppVk14AD/ER1DVRk5NzZtmNdx44XCVUXpQAAIABJREFUHB3fazTFG9zGNBYBstetU3G5SvLpU9q0aXpezkseMkT06hUsyFAKhUW//YaZnrnc+M6dC4KCFPn5sN0hFYJSqTQ+vuTChcylS5OHD0/o1SvOzw/yFXG59T98V9ekoUMzFy/OP3Cg9MoVaI1SHVoEUC4XvXqVPneuwQPM//L0DN2yLSsrT/WXGtua2kKotLSsedsW2gbiEAr3QuEaMCINmEZybPe19lzqu+rMhsSCVGxnjW+oNSlYmpDy15p1+9q3v2Fv/xFHUTrTQOayZSqCBlAsLr16NWngQH3GNSf27y96/hwWvihFopKLF7GBUFxuQvfu+UeOyLKzVVm8A+VyRUGBMCam+LffslevThk1KqFLF76Tk+rC8J2cErp1Sxk5MmPevOLz56XJyaBYDDvMOoWgTAahqFmzDIui7ri4HJ2/MDHRYFOcthDq/YfYkZvGWh3FSaGMyHxq4LHAb2liGrA62Mptqdfi8BWv0z/i5E/aYD6pRJn36t3vS5f7+/resbfHU+mpbp7Vqpkxb548N7eOnYb/CoLy3Ny8gwf1uZyX0LOn8MkTWHlAiaT0r7/UGix8ZS43rn37/MBAWWZmw4RPIKgoLhY+eZK7e3fK6NEJXbtCHJhaAFy+o2N8585pU6cWhoeL37+vVChgB1u7EEJRL1+mzZhhwOjyfxwcAseNf//2ozbvuDb3aguhHj151m1tH4tgPMEwDqFwDRiLBiyPtLCf7zw9cPajhBdCCR4/Dq1RaPORVkiznrw4PWfuVg+Pf42VqVkb82kM96ZNmybPyaltoVHOQYVCwuenz5ypN8nju3QR/u9/sCKBUml5dLT2kgjc3XO2bFEFP4ESiTQhoTA8PPWnnwSentp3XdMC39ExzscnZdy44lOnQKkUdry1CyEUFROTMmpUTQt6PnnO4x0aMPDZo2favODa3KsVhJJKwXv3H/qs6WiG82o2xUwgTcwx840Mxzykebt5vOFrRkR/eiDC8ZN24KlmbpUKZan/e3r0xxE7XFxe4TQHWng7kExs6oQJ8qys2uYZ/RyUSoWPH8f5+iI1iG15nJ9fxYMHsCKBcnnFP/9o2R3f0TF97lxZWlqD63fKsrLy27dTp06FnHA6AvQ8XpyfX96BAxCNZ0OJ9kCJpPj8+TgfHy01oNntb7jcQx073r9zv+ZV1fOJVhBKJJL//tdVn02dzSKafyP2CR8mrgFj1oBpeLOWa9p1mdfj1+fncP5xbCdTaamIf/H3ne3bhzs5vcNRFNYoKmXECMgBo84BCoXFp07pZxVJ4OFRcfcurHSgQiF6/lwzBPDfXTxe8tChSLFWtTtVlJQUnTiBrecJSXK+i0vOpk1QVFZDJAiKvLys5ctjDcF6+sHO7qiHx7U//zJUuIJWEKq0VHT8TITnDj/TcDy7i7Es4hizgcdl06kGTCM5Nnu+81zsu/2vPfkVJdgCCLw1maxSkl8SczR4R5cuFxwc8CR6SKZXs/KkQYNk6em14ULD51XxQJnLlunBePOdnctv3YIXCQTF795pNurqu+L8/ArDwpQiEXz7n0sVpaWFYWHxnTpp05da9/IdHTOXLYP266GjKKVS+Phx8pAh+gzwrx7IJzu7UBeXi6fOiESGiVjQCkIVFpZtO76Lt8vVNAKHUDiEwjVgYA1YBrZ0XOY2P3JJfEEKjnh0pIHS1Myr6zbs8vJ6qKM1FKy9O2qZTANWTujVS5aa+hktqPw/CIrfvEkePlznxpvHK7t+HUksCZ/P1/T3wHdwyJg7V5qcjL5kBspkBSEh8Z076/kZ8e3tM+bPh9AtKopSikQFx47pxz1WRwMnXVxOHQspKRHq6JVHb1YrCJWXV7zowLLv9nJNIw1sPHT6xz3eOK4B49eAWWjztivsx+ya8G/SM4lUif7a41c11oBUrMh68iJ84qRAV1ecKaqOMdPma3ynTrKUFHiMolQqiovhL1VWglJp8enTcX5+2vSuyr2lf/6JBCOk8fEa80zGd+tWducOOoUmqFDkHzoEjdEQK8h8R8ec7dvleXnoIE+WlpY8bJj+Jbzk6hq5e29ebpHGL7U2N2oFobJzCmbumGu7DyeFwhEkrgFDasA0spntrtbd5vY6/fSiSIKnENZq/12D86lUKBOcu7ikZ8+rxpEpTBXzb/x14vz8pHFxsEYalEhKLl5E2SCmKC7OXLpU10FRJefOIQEdaWKixhgue+1aZWkpEkCsLi+/fTu+QwcDPkSBp2fR6dNQdDnKoVRCjihvbz3L+ZeLS9ja9elpWQ2+ubqooBWEik9Inr5rlu0hHEIZ0nwav4MEl1C3GojiWB5p6TDNZX7E0vSSXF1ME3ibtTUglYLCnMIby1bM9/J6ZAivgJ5NlH66i/P1heiI4FaLlBUVmQsXCp88AeVyJAsuevUKWs7TdDVNlTEWnTiBlA5Fmpyc0L27Ko3UqRPXvj36uCpBUJqSkvbLL/r37nwlKpebPHRoxf37SBqofi7SxET9O6JuOTmFzF8oiI2v/ZLq7VwrCBXz+s24XZNtcGpynNEA14DhNGB2vHm7hfaDNg57nB4jlUF/J+MfPWig4t2n3UOHHXRxeYujKCzit+J8fEQxMbCMjkqhMHXSpKzVq9EChpTK4nPnoFAhnT2OwpAQECHiW5aamjRgwFeYQxWd8HjZa9YoCgqQcGFlZaWitDT/yBG9cTegDIHv5JS1YgX0CJAPUKnM3bs3Tr+OqPsODsGTp7x+8VoPb339LrSCUHf/90//rUMsj7bU7R/ZhjNO+LhwDRi7BqI4tjtae8zwPvXyAs4CVX+C02lJ0q+/bejS5Q9HRzzxC4rpVfFSnLe38PFjWD+TUiRKnzEjoWvXwogIBfJakrK8PGfbtjgvLxV7VLdafkCAsqICFj/I0tOTf/xR3QbjO3Uqu3ULROYBBxWKigcPIO+aIfgC6g8nsU+f0itXYJ9RjVqET58mDR5c/17dlfzL44X8OOJ/dx/q9GVHalwrCHU1+prf+s7mwTgpFL6Qh2vAMBowD2rRbo797F8XFFVUIL3keLmONCApFV1dtGSvl9dTLhdP/KKljYzz8oLWieCS3YJicebSpQJX16RBgyr+9z8UEy5NTEz/+We1ksSpLnbe3r0KhKAleWZm6rhxqjdVXTN9+nRpYmIN+Kh/Ii8oyFy2TODiom7LOqrPd3DIWr0aPQ+PIj8/c/FiLbPNqCX/Uy43tG+/6D+u6ug1R29WKwh1+foV++UuOCmUsTsqcDdeE9WAaRSnxYZ2PVb1fZT03FDMcujzS5O/mnH/X//BQ846O+M0UWqZvfqVBZ6e5TdvwsaMgxJJzqZNAnf3WC43Y/ZsaVISbNR5ZWUlKJeXXb+eOHCgLoKicrdtQ9oYKM/OTv/ll/qDQinhOzvn7d2LzgVV/s8/SYMGoTSi/0uJffuWRUcj6b+yslIpEhWGh+uTvCqGy43s2vX3qJMGmW00h1BiseLClcttl/BwAIFrANeAQTRgcbSFw3yXLZd25pYVG2T6wDsV5pdE79x9sEMHPHeeluZc4OEBLRKJxfWdMaBUmrtnT/UKncDNLT8gANpgj3AoCgry/f3j2rfXUp76t2evW6coLITtVp6bmzF3bv1bUEoS+/Uru34dbRVPJsvz99dnKmUUaWsu8R0csjdsQHFEQYuP//tf8tChNbfo+uQ1l/urr+/JwCMGmY40h1BlZeLwsye4a5wMYjzwTnEN4Bpoue77H7aO/ifhKR4FZZDZE+pUokx7+OjY+Am/ubjgNFHaGEuBu3vJhQuw8dqgTJZ/+HBNSHVSv36lV68qhUJYNFOpVIo/fMhYuJDv6KiNPPXvzVq2DAm6KfLzs5Ytq38LYgmPlzpxouTTJxR3jjQ5OX3GDN1FxyPK1lAgfGL//uV376JJnpqauWgR5vpHEvgdl3vW0zNo+06DTAKaQ6iSEuHe4/5tN9njlgzXAK4B/WvA4mgL1zmee/72zy3FXVCG3IQozC64439of6dO93W5ox7JfjSZcoGbW9Fvv8ECI1AmgxKbdOxYPVgoI++MGeI3b2C370HLeVJp2e3bSVg7QjLmz5fn5MDiNkVhYfb69ao/C4GbG7ovpxIEy27d0j8XuSpD4Ds65gcGorAbKEpKCkJCdBfXX0fID3Z2l11d961c3cggVGmpaNHOpZztOCmUYeKI9W+z8R6NSgPfLbUbtHX40+SXuAvKIFPnl06lYNa/TwLHjQ93dHyjsx31dcxG0/sqcHUtCg+H3fIGyuVFv/0W37VrzajjvL1zd+5UFBXBAhooIqe8vDAiIh7T5bz06dNlWVmwPSqLi3N27KgRr8GTOD+/ohMnYPFidftKobAwPFwXEV0NyqZKhcwlS1ByQkMQNjpab+FQH+3srjk6bpw958srqUdiF829UEKhbMSC0dYHWhmVXcGFwTXwLWjAMrAlb7rT7r8P5JYZJq2BQWYro+1UnF9y+8DBnV5et41j87kqVtDY6ghcXAqCgmD5r0GFouTy5YSePb/IzOUm9etX8vvvsFSc1ShElpmZvW6dxnlXvvT1eWErddIkWUYGPIQqLc33969/C1JJQvfu6EHZ8tzc7M2bkW43eHnyqFGi589hVQEVgqD406fEfv30Juc9e/ulEyYaZH7QHEJJpWCPcT0tjrX4FiwWPkZcA8ajAdPIZi3XtOu/Zcg/8XgUlCGX8GpP2VkPHwWMGh3u5IQzbWpmOPnOzvmHDinLyuobZlChgPbZfW2S+Q4OqRMmiD98qF//vxIQFD55kjpxIlaJX1JGj0ZKhKwsLy8IClJ14Fxu8g8/CJ8+RZS8slKakpI6caKqDX4GeXqrH9+pU/G5cyj4VYP4em2Ef8TjzR0xUiSS134l9XOuOYQqL5d0Hd3NLBQnhcIX8nAN6FUDloEtHZa6br28K7u0QD/TBN5LgxoQZRfc2rXnoJfXAzwiSiOLzndyytuzBz5bnFJZfu9e/e39Anf3rFWrUHaHKcvKis+cSejVC5Og7OShQ5G4uZVCYVFUlKogoCqWHA38KZXi9+9rL1yq2rJGmtegcb6LS+6OHbB4txoXKsvL8wMDNWhZs1te8HizBw0uLCxr8D3FvILmECo5Ob33L/3MQ3EvlF7Np/H4QnBJDKIB08hmnG1t+m0edP3THYlUifmMgDeooQYkyrTb944NG37W0RHniNLAEPIdHXO2blWUlMD4ZpTKikePIJLuehAhzs+vMDQUlk0KagcEZRkZOdu28bFgp0zs2xeJCVMpFhefPVtfPPgSHi995kwkh9Z/4fC3bgl0RrMOL1U93aJU49vbZ8yZI0tLg3lYVUWgTFYWHY3SAraX3vJ4s/v0ycrK0/Dl1SJ2SnMI9fz5q96L+1uE4BAKh1C4BvSnAfPg5t+vclwYsSy9GM8obCyreNUTd0VGzh+r1x52dn6OB5WrY4+rrSlEOLRuHTx3JQiKYmKSR42CtbvJP/xQ8fgx4h57hUL8/n3K6NGw96pVmNC1qyQ+HhY0gFJp6Z9/qtoaj5cxbx5KLDwoFheEhhoPKTnMuHi81HHjJAIBrDYgFFhFLQFzo/o/DFUa+WhnN7tLl4SElMYEoW7eutN+ZRfzEHwhT3/m0yBuD7xTI9JAFMf6QKuOa7qF/3NSKDHAwr/+Z6hG1KNEKHt75rx/9+7ReFC5+pYSSh6yYgU8dyUIit++TRk7Ftaa8p2cMpcvR9sgJpGUXb8e5+cHe7vqhXF+fhI+HxY0gHJ5+c2bqjbF42UuWQKbyqa6cVAszlq1ykjy4iENKnnoUIhXAvmQpaVhsn6KJECd8kWdOr1580H/SRo090L9du6c1zo/HEIZkX1tomlMYDQcyWGH2rKDbNhHbNiHrFn7rVl7rFg7rJhbLZlbrdhHbWBuaRLKMY3ktNpoN2bvhJiUd1IZNAnjH+PRgFSizHn1LnzK1F/xxMPqQ6hYe/uMhQsVBQUwRhkExbGxqePH17Ga/33lcuPbty+KioJlNq9uTVFamh8QoOXuPIG7O0SGCXsoFBUPH8KLV08VfAeHnO3bYZupLgTF4ozZs1VszVDVEnv1EqI4/yor5QUF+syUt7pDh/89fCQWK3Q3IcjlEBOZQvHVrKs5hAoKP+680cMstFlTNVf4uIxTA8wNlmQ/GtmbRvagkV2pJCcqyZ5C4lJI7SjE1mSSM5Wx3Nw4JddeKvOQ5k4r3Dee3pZZYoBVf93NTU2m5fLcotvbd+7x8sL35alt2rnc9FmzFPn5sNhCmpiYOmkSYps8XmK/fuLXr2HvhQqrgqIy5sxBbKEe0Klfk29vL0HaAAiCoufPVXS68J2cCsPDEVceKyuVFRXps2er2Fp9OfVTEt+pU9mtWyib8hRlZdp7/lQfy9b27e/ciBYKZTqaTBSKyuLikvj4eKUSIwgVcPTw9xsc8RzD2ttFvAW1NMBYZE5APgBzIn2WqVoNNqLK1vtbdVrZ/czjSxUSXc0UOpqAvpFmJRXShMt/ru3dB0+Zp7rx+68ml5s2dSpSBhVZWlrazz+jtcnlpk2ZgrJHrFKpFP77b2LfvmiNNASkxK9eIUEf0atXKqY04Ts7l1y+jJIdT1FcnD5njpFDqDhv75JLl0C5HAm2KqXSxNpUXg3pVpvnEmtnt8fH5+9Lf5SViTGfauTySrlcyefzT58+fefOHWwglFQKBh4+8t1aO5MoPBLIyDQQxTGJ5JhEcEzCbU3Cqj6htuzjtuwQW3Zw1SfIln3Mhn20ahXsiA37sA070IZ10Jq1y4q5yZK52oKxxJwxx4z+iyltvAl1BJs6mEnpw6B0oZN9aGQ3KolHITlQaBNNDIU8mCsskBEUATAh0n5pmhDKNJLTYmu7n7ZOfJb+GvNpAm8QGw1IlMWf4vzHjI3COkGblgamUdyeOmGCPDsb1iTLMjNVSRgHkXOKRLAtQJTlQmHB0aMCT0+NtSF89AgJ+ojfvFGx5f8glEyGJKc8Ly9j3jyjpSav1p7A2bkoIgJxL2TV2JKHDdNY1ereGOjjc/HEqeLiCmxe5M8xElKpIjc378aNGxEREWFhYdHR0dhAqLIyceCxI23W8QxlR5t4v5Eck7Aq3FMd7hNowz5YFfGzFwI6/wX9bLJkbrBkrrWAQM8KC8Yyc8Zic8Z8c/pMM/pUU/p4E9ooNnU4izqQRenDpHRjUDrQyV5VK1/2VFJbCrElmWhDAsyIABMAyAAKKKl/CWAClCEsQz0C5nrL+iLVlAAsIm2SweCdTnVidrw5d5HTsrDVOeWF2E4TeGsYakBcKrq1YtUyd3d1bQBeP/Wnn6B98iBYH1vIsrIy5s3jNxSnH9+5c/m9e4h2HQRlyckZc+ao6C6q/0TK795FCgOHmJxUyyfDd3YuPntWKRbXH2Z1iTwrK2P+/AYHW188fZbw7e2hTHnIo6hUKlN++klvIgV7ePx2LKSgoBSrd1kuBwsLi2JiYs6ePRv2+cAMQuXnlxwMCWy30UGnNqPpNx7OYe2wgkDPZBPaeBPaaDbtRxZ1KIs6kEnpy6T0ZFC6Migd6WRfGtnzc9wPryro5zsysTkJwkAWRMCECDCIBCpAINYACd2eAHSA0o9pqKfD2maFMjyACdB+YhtKNp32a3Gkhd/UjsGPwnE6KKxmSR21k/Lrb+M6dozBqQ3UXLtJGT1ampAAC6HkOTmZS5Y0CH349vbpM2dKYmORMhBXVsV9J/Xrp9kyWdnffyOl15V8+pTQrZsqiIHv5AQlyKuoQIJQsvT0jAULjB1COTvnBwai+PxAiaSBtVc1fx7ouo1wc/v1UGBuLgYJr+TyyrKyio8fP129evUzdvrvf8wgVGZm7o6ju9tsbjxeqCgOO8yWHWTLPmzDOmDN2lm1aLXKgrHQnD7bjD7DlD7dlD7NlP5L1WeGGWOhOXOTJTvABvIGhVatgoXZYr5qyQ62pU82BaxIAAMg0AACWX8wCAWFNHgJoAKUngydwgWUxll7rNEkpAG0kU0RQkVyONvbdJve62nWKx0ZfrxZrDRQ9urd4t69Lzs4fMTUSKCbkCZwNWXECAj9KJX1sYU8Nzdr1SpVdnjFeXnlHzwoh93ZV9WuUiwujIjQLNIZiv5B8LtI+HwVA62gcPLQUJSwLVlqauaiRVjlpdHRD0Pg4ZF/5AgKhFIKhVBEl75egVOuruG79mjPrimXgxkZmdHR0b/++msd/ITlQl5qaubaQxtbbGuHYuqM5VIUh3XEhrHCnDaSRekKLWaRHKikNmTAlgSYEiHgQgEABgCwAcidY1r1qT4xAQAGkWhGJDlQKL0Z9JlmrC2WrAPW7BBbzIYWYkufaALhp0Z1ABSA0pmOmRLUpBtgHbJB0xYFoA4z2CKj7nRiGtms3Rz7fnsGl4skWFl6vB0daUBaJo4c+9NBV9c3uCNKHQuaPHy4+O1bWAeSPC8va/16FUnGE/v2Lbt+HSXSGayogHxa6lOWF586BQqF9RFeZWWlJD4+ecgQVRAD39Ex/8gReBLRqqZl2dnZa9c26HJTpS/d1Ynz8Sk4dgwNQpWWZi5erDsB6rR83sXl+OatqamZGr/UcnmlTCZ/8uRJddhTffyEJYRKTkmfs2OB7c7WurMZGrYcxYHipv2tmavMaRNMKN0ZxLZkgIYFRiESiBYksgeNOoRJ/8WUudaCHWgDhWyriQC+qh9qS59qCjD1tQKHBj3UuUYGyL60rwaijRLUvJcdZIsmK4lAHWiwRUbd6cQ0rJnjSJcND7brnztO4ynpW77xxeata/z8nuEQSh0IlTRkiCgmBjZeW15QkLN1q8DNrY7hhP/K5abPmIHk0KoGQBBl+Zgx6np6IO9ReTkshJImJqaMHAkvz9dK4Ds65u7ZI0egb6isrFQUF+ft36+Ky02V7nRUJ87PryA4GAVCKYqLs1au1FHv9Zu97Ox8dPXapKQ0jaYdUCgUx8fHX7hwARY51RRitpCXnJI+fs1km33f6c5mqN1ymC3L35q51oI2lk32pBGtSVCgNEUHS2MAATAlkrgUSm8mY64Za7c1+7imQCrclj7DFGA1NghFJJDcDQahTMI5aBAKIFD6NkEIZX2gleMklxvx9yQyPC/eV7wsGs2YOm8h59zFZb1737W3//S1+aw/9eMlNRpIGjhQ+PgxrPdIUViYu3u3wMOjpjL6icDdPXf3bllWFmxkFUQUJRYXnzuX2KePWkFR+YcPwydCrqyUpqQgkn9+/RuAUtls3AjJhnCAIlFhWJiWRKDo+tH+alyHDgUhISgQSl5QkL1mjfYdqdjCFWfnwCXL4uOT1ZoQqggLwNTUtHv37sGu3NWAp+oTzCBUSmrG0Lk/WAa2VBvoqOlyUKn9SA7rgDVjthmlF4PYlgKYEAkULNxOaIaaQAAIBBpAtCWRfWj0ySas/daaREpFcOhzzBofhAIIJCeqSo9GF4/7BAd9CyEUpxVpZEwTWuuhxbq2fus7J+al4aTkak2RhqpcFvNmx/AfLjo4vPvafKpoD77Naon9+lU8fAgPoYqL8w4cUCvzbnyXLsXnzqGEHMmzs3N37lQdlsXa2eXt3QufCLmyUpaenjZ1qioPjm9vn7l8uTQ1FQFBVYIKRcnlywLj3tQZ37Ej5JNDppCQpaVlLlyoikIwqXPdySlg/oLY2HjVX3mForKgoPDx48fnz5+vA5WQvmIGoTKzcntP6GcebPgEeexgW+YqC0pPJtGaBO1K0z12qousyABgTqR0oTO3WqmNoqI4jAXmANsIvFAAAYBiwqr291lAe/2gKDHkg8SjaLuIqQWqQNcYpRudHaqpX1ALqXSIKaM4bRZyJx7/OaMYJyXXuQNJ9SkYpaY4rzh86s8RTk4v8bU8lUFkYu/e5XfuwLIGKEpK8g8fjvPxUcPccrkp48cLnzyBxWQQfFEqRW/eQLvGVH5GOVu3IqUHlmdmps+apZJ49vYZc+dKETIWV+Oq8vv34zt2VKk1ldWLbWvxnToVnTyJFFwPBYfFxqaMG4dtpyitRTs5HZg568MHPspbWXNJLq8Ui6WfPn26dOkSSuRTfSCFGYTKyyvuOrSbaaRBs7uEc1i7rWg/sYktSMi2Xl9XyARSGzJjoZm6wIKxxByKaoc9gCpfF0CA2ApqPiQCofpDrtrBV/0vBQqKhz40AGATAXMiYEMitiATW5OJdhSSI5XkVpURpT2d3IVO6cGAGBMGsajDWNSRbOpYE9pEE9pUU9p0U/osM/o8M/pCM8YSc5I9BQWPkrgUdrDBYAoEl5EPSmc6O8hgsukCSJkfb952Pnfb5d35FZixntTMJviJLjQglSivr1571MPjCY+HMu/jl2prIKFnTygMXCqt755RlJYWBAfH+frWrt/gucDVNXvDBsjfA8c1BS3nyeVlf/2V0Llzg01VV8haswY+i19lJUS7oKLThcdLmzpVjJQrpmrwolevkgcPVlEqg1RL6N4dPWZf9PJlQpcuepPtvqPj3qk/v38fq8LrrCwpKb1582Z9hNRgCWYQKisrv/cPfXRhLVRtM9SWsdic7EMD6GjOEmQ7W+uK1g381xZAAMyI1EEstr+N6u4o5moL0vcUwApy/BBtScRmJGJzMrEVmdiWAvGAO1HJ7lQoH1wHOqULHWKK6sugDmRC6GcEmzaWTZtgQp9iAjEyzDZjLKhi11xmzlhhzlhtwVhrAXFvboYy77J2WEGcnHutoR2FB63ZgVXs5EFV7J3htiaRMICD0oWBBqHakdmHDZbNl9iKXOv51T0ld6CzjxhMNlV/wOq4uywDWtotdYy8f0ookaswQTQOP02TH8iLwKMBnTs/wCGUym6ShG7dSq9cgYVQyvLywsjIONW4K7+YbS43oWdPiIQJIQYcit0uKsoPDIzz9v5yF7LAmUuWIKWgUeTlZa1YoUojsVxu8vDhwqdP6yPFmhJpQkL6tGkqtYYsrQ5v5/GShgwRPn+OhE0h/q0HD3Tr3yYZAAAgAElEQVQoQL1R/+PgsGvCxLdvP6JMLFKpoqioJCYmRpWwJ1g4hRmESk3N7Dt2gOpAAWO7EmpLn21GbE1GsfF17SqhypFDAQBmFW2BVRVY+Y4Mpad1qkpV60IlV32gnLWtq5i7GVXLgtWuIJjm4IsAJpHai8naq2poFOuQDWOxOX2+GcQtvhyiGodwzyZL5hZL5jYr5g4r5i4r1u4q9LPfmuVvDWViCajKynLUhh1kA20/DLVlh9maRGBMW0XpxUDh6iS2IbP8rTF+rCqjChKPAq/9qlKyL419yGCy6UInNvu+817T4fdXf6PMDvglY9NAwvlL/v3632qIUFufZsbI+4rv3Lnk4kVY7kplRUXRqVMarG3xHR1Txo4V/u9/Neik/ok0MTFz8WK+k1OD+smYM0eem1u/BQiKFRZmr1/fYAvVFeI7dy69ehWWAau6cXl+fu7u3Sq2pv9qfAeHtGnTJHFxsKqojtYvuXhRn4I9cXDYNnrM69fvYecBubxSKBR/+PDxypUraq3c1QFSmEGoT5/i+k8bbBZhiFioUA59iglgS1IDP1X5h0hOVGpvJm2cCWM2tFDFXAN5aP7zzeyxhmDKzqrcKZstmWssmMsh1k3aJFNKDwaxHQUKvqFULauhmO7PlwAmkdKXqSrCiIQ4P6FkduFVue2MJucgdQATDUJ9R2btttIFXFClTbIr7bOyYf4ne9FYB5oUhOLsbD1g09BowX3Y2QEvNE4NZNx9GDBy1J8ODvimPBVNaXyHDsVnzsBDKJGo+Pz5eJVX3Gr3KHB3z1y6VJaRgWTvIZfJ/fsQJUFDLkMoETJCFj9FcXHO1q21+0U5F3h5FYaFoeR4ASWS0qtXUVow7CW+o2PW6tVIDjkozKy8PP/AAX0K+ZzH2zD8h1ev3tWZDeRyiGgsLS391q1bJ0+erAOJ1P2KGYSKiXkzYP4Q89AWqhg8LOtEcujTTImWaKEwtY0qYEGk9GAwVliwj9hA1AOQt+YzUqkPVqI4kF+t9ieiKlddiC1znQWlJ4PYgoweZP2lawqBNoqtOdmByv4YLHX7dafUYSwo6ArhILYkM7cZDkL50hHkgopJ7jTWnqYDoUwjmzXb0mbs7onPU/Hswo1pjTLv5dvQKVPPOjp+qLfooE/T0oj6ivP1LTpxAjZCGRSLS/74I75rV82GE+frmxcQAAvOqnGVsqysMDy8Qcry1LFj5ZmZsFBMWVaWt3eviuIJXF1zt29HikyH2gdBMZ+vgddNRQG0rMZ3ds7btw9Fn4ri4tSJE7XsRa3bX/N4awYNrgOhqlK1lD969CgqKio8PFxdwFS/PmYQ6vHj532XD7QI0S+EiuIw10KRQyjekWrLCtABEpdCm2LC2mcNbc6qj5a+hgsqAZEIW9ZWK+pQFqkNBQJSDUVQAVYkxkoLyLekQV9GcAttFJuAHHFEbEFmbrQ01NAo3RhoEMqFytppMHiHuU5Mw5u12ND258MzEnJT6vyBhX81Zg0UxSWdnDv/hKPjWxxCqaaBuCrfDDyEkkjK/v5bxSR0MKaXy03s168sOhqWt7MaskCb8JctQ+cETx4+XJ6eDguhQKEw/9AhmK7hxs53dMyYPx/NMVa1Mpg+c6aKDeq5Wpyvb/HZs7B6qFamRCBI7N1bn1J94HKXDhhYeyFPKBQnJiZevHixPhLSuAQzCHX//r/dV/UxD9YrhGIH2lB6MiDmApSDAhBbkak/slhbrKAtY5iAp9qAJrSKQ6EHA9oUhuykqRYQWlHapT7TQe3uDHdOG8+GcvYhHEQOibHaAnO4oGKD1H5MBLmgYpIjBSKYMJzqsO3aLLRZ63XcWaELsosLjRkx4LLV0UBpeval1WtDnZxeq7xnXp8mxwj7Eri7I+UMAWWysujohB49NBab7+iYPmuWhM9HioAGZTLhs2fJw4ahdJHYr58sLQ0WOoBicUFQEMq9X13i8ZKHDpWgbsqDGgwO/uouODRmkAqJAwaI37+H1UM1hCq7fj1e3dh/rUe3oE/f16/eVREWyDIyMu/evRsVFaUxWoK9ETMIdfP27a5re5kH6RVC0X82BSzRQqAAOkD2pDGXmkObxXRJrsjaZ02fYEJqR0Hx0xAIBIAGUMewG+nuMPpUExSGUqINibHMHFusoHpr1KEsNAjFoxjQQ6b6KFSsaRbanLfWZelvq/PLSuoYafyrMWugIr/k2vadx3BqKJVNI9/FJT8gQAmXhA6Uy8sfPEjo1UsbxBDn45N/8CASNyYUwVNFWR7n5YXUS3zXrrKUFFjoAMpkRRERSDfWLxe4u5f++SdKRHklCAqfPTPONC8ZixbBPqb/NKNU5h86pEp4fn21aFOypF+/OH58fj7Elnnu3DlYDKRlIWYQ6q8b1zuv665PLxRzsyWJi7aEBzAASkc6c72lusxMKlqyr6pFcdhHbeizzIht0baGQR6RNhTmWkud4rmvBMPO9UKfaYoCoaBlygVmOuq6wWZpY9goEIr4PYW5zmAesgaFV7eC2fHmrqu9Nl3aXlBRZsyIAZetjgaEJcI7BwMCnJ1f4F4o1VAU39Exb98+eNusVFY8fgzlY1GtKfhqVRwH5ffuoQAXRVlZ9saNfIR9lHG+vtKkJFgIValQFP32G3y/sDJzuVlr1qCEE1Xv8kubPFl15k81eocVScVCLrf06lXEJdHKSkV+fuaSJQ3G5mMrbdLgwfcuXHj9+vXly5cjIyO1hEpIt2MGoa5c/9tvTRe9QSh2mC2lNxpNEYFEgPxPG/UKVtjHbaHYdhu09TyATaSNNWmMTI+M+WYoa6aABYk+22AQij7ZFA1CtSEzVjUpCOWxwmfPn/5FwvI6Rhr/aswaEFdI/wkO9Xd2fo5DKBVtM4+Xu3OnsqICBqOAoPDFi8R+/bS3uyljxypKS2G6+FwkS09PHjkSFrgI3N0hVnFYok4QLDl/Hgl7wYqd0L07UnB6tSygQlF8/ryxJctL6NFDlpkJr4QquYXPniX27w+rQFg9aFko8PTMWrcuRyC4du0aEvTBqhwzCHX1+jXf1Z3MQ/REasDaZYW+j53YjESfa6b/tB7soza04Sy0fCMUgNyeztrX+DaIMZaaA8hhZ4A5kf6LqboOFazq02eaoUGoVmTGcoMtMmI1xpp2zINauK/wCbwWVCIWGTNiwGWrowGJWPHkxKl9zs7PcAilIoSys8vZsgWJBlP0+nXiwIFamttYOzu+g0Puvn0oyd1Aubz0yhUo7qregxO4u4vfvweVys9wq9b/IFh6+TLfxUUtCUv++AM2oU1Nu9KEhLSpU9VCZmoJoHZle/u8/fuRnlE1I1Th8eNqZR5UW4bPPyeBp2fy2LHpFy68+PffEydOYIWTUNrBDEL9feOG1/L2ZqF6SvDCWG5BtEJ29pAIlD4M1iHDEFKztlmRvWiIQVEAgdiKDIUN6TI2q8bcYnjCXGUBIKfJA0yItEkmGHanVlOMReZoEKo5mbG46UAoi6Mt3FZ4H4+OLBNL6hhp/Ksxa0AqUb44c363i8vTepZYY5vR5G/MXr9eUVxcAyBqn4jfvUsePrw+rNFAJ3GenqV//w1Lg17do6KgIHfnzvpBUQI3N9GLF/BrWCBYeuWKwNNTLXky5s6V5+fXHmadc1AsLgwLa5BtQa1ONa/M5Sb26SN69gyiWkI45NnZ6dOmoW9s1FyAz+CJ7+SU/MMPmSEh727d0pItEwUw1b+EGYS6GX3bc7GvWbheIFSoLW2yCdruMCsSfY6ZoTAKO9SWNsUEnqoKIBAoALEZCUIbYTBJVNTCDXquzNxoiQahWETaT4aDUCst0CCULYmxoElBKNcVXpF3TlVIZMaMGHDZ6mpACr68cHm3q+sTHEJ9tnwN2s6sVauQIIX448eU0aMxgVCxdnbJI0dC/iQkKKBUit+/T/vllzruH4Gra/m9e/B+IxAsu3ZN7Sx+np7Cx48REyFXwRTxp0+pkyZhNfAGHwFKhThPT/R4/MrKyvLbt7XZOInSe82luPbts7dvj/v772t//aU9W2Z9nIRSghmEunf/ofscb/2kGWYF2lAHMVF4mEj2FEPyAEVxoFB3R2odow5tD3Sj0n5kM5aZQ5vyMKdXwC5yHBacsbZboeQfBBgAdQQb9kY9FLI2WtbRdu2vxGpIrWP96GGY1V1YHm3huNTt1P1zIjxBnqwxUWvKJMqXFy7v9fB4jEMolSFU5tKlSPTf4thYiK0RI2XynZyyN2yA+LVhA5sqKyvl8tJr1+owUfFdXKClN7EYxgUDguW3bsV36lRj6VU8ydm2DQk1VvdSvddPXXCmYu+qV+Pb26dNmwZxGSBprGpLY9aqVQI1VzNVlwFah3VxSfX3/+f27VNaU42jQCWkS9hAKKkUfPjwkccMH/1YEdYha4gOComiiEgg+9IN6+NhH4FAHmBOJNqQyN402ig2c7WF/gOzsH0crL2oEIoGUIeysO1R9dZYu6xrY6Y651Cc1gyDxWmpPgoVa1ocbcFd5HTmn4sSqbKun6NxQYpvTFqpSP787IX9Pj7/ayhtiFompGlXzlywQIbAXSmJi0v7+WcM93kldOtWfO4c/AbAKvCirKjI8/evjV34Tk5FUVHwkUAgWH73bkL37uo+oIQ+fRp0RClLS7PXrzdkXDmXm9izZ8mFCygxZJVKZdnNmwl9+mAFc2E1yXd2Ttm9u3FDKLFY8b9HT32mtVfRBmhZjXXIhtwZGUJRAUoPhpZdaHt7BIe13Yqx3IK12wpyOIXaGmpVUduB1PLcsA9ZAwwk3EogUAFqfyaG3anVFPugTR3YVPsrYGLIUHe1BqJKZYtjLdrNtz/9zwWpDFpAwD+NRQNSoezpqTMH27fHIRSsLYQtzJg9W5acDOPjqayUJiSkz5qFIYSKtbNLHTdO9OIFCseBNC0tY+HCGuzCd3TMDwyET8wCghUPH2pAuyBwc8s7cAAl3xykDRCUJiWlz5plKJoogYdHzpYtEJ06sgsKondfvLjO0ifsU9aysNEv5InFisdPn3eY0VkVA6B9HXaADdmXjuSFglaUhhjMHfJldBEciI+qsa3WfZG/FniqLmQfswGYyBCKRKD0MhhyZQehQigmQJtssDgtFJVqdskiqEXb+byT98/iXqjGAp6q5ZSWSx5H/nqoY8dHuBdK5YW89OnTIdYAuEOanJyxYEEsAmOTZlaZ7+ycvXEj2hZ9pbL8/v2U0aP5Dg7/7ebbsUOemwsjIAgKHz1K0mDPII+XMnJkxYMH8CFWNT2BYPmDBymjRlVLotl4NbuL7+qauWSJ+MMHlJgtpUhUcvGiZnmgNZDqv3Dy48cbZTi5WKx4+jym0/QumpkEde9iH7Yhu9SNNKrxOgAMgPaDEUCoehBE3WEaXf1QWzQIBRDIXekGkznMlkBEhHcAHaBNMGkycNY8uHmbhdyw2ydEEkXjwhDfuLTSUtG/QccPdur0FIdQKkOotClTJLGxNbCh9ok0NRXKYYcphIq1s4vz9S1EWpur6l5RWloYEZFQleGY7+CQtWYNfG47EBQ1lB8GCSsIPDyyN2xAWsGsUYJSKCy5dClpyBBscSSSVNXlAlfXzGXLpPHxiKH3EK27UhIbmz57NuZPpwHZGimpgViseB7zquv0bvqxoOxjNlBqYYQDIAOULgZzh+hHA4bqBY3vikAgd6AbDKZEcAA6EeEXQYAg1FgTk4jGmuC5zuM2D27eehH38LXgCpH0GwcljWv4kuKK+wcD/Dt1isEoAhrdnDSNq6njxyMlX5Olp2evWaMLH0xS//7l9+8jQgQQlKakZK9dCy2i2dtnzJ8vTUysgTVfTkBQ9PJlysiRmj2IhB49is+dg2ec+tJHJSgWl127ljRoELYLmkgy852dM5csgYeMtaRSFBXlBwbWDhpDalAX5Y2PWlMsVrx4+br7tJ515nodfWWH2qLxagIEYjNyE4g90pH2tGkWjYuLAEXxsw3F1BDBAUyRIRQNoI1kQxFpTcI1aB7S/Luldnt+9y8ur2hcGOIbl1ZcWHZv5+4jHTq8xCGUyl6olNGjRa9fwwbcyLKycjZt0gWEiuVyMxcvhjIQw3JmVlaCcrnw8eOUMWNieby0n38Wf/pUCz98PgVB8du3KT/9pCFKsLdPmzxZ/O4dkgyfu6lUSiTl9+6ljBsHRWjp8qcV5+2dtXKlNCEB9nHUyANKJCW//544YIB+UB2Set8PGfL68uWXL182ggQvEony5eu33X/ppScTFckht0eMhYJcESSAtctKT8I0Causoq6ILclInh4CgUD2orGDDENnahLBIVojUq0CVIA6kMk+1kQglFlo81Yrvt94ZltuKZ5muDFF0wsLSm+sXR/i7Y1DKCSzV788+YcfoPhuuJhleW5uzo4dOoFQdnbx7dvnHzmiKCioQQZ1TpTl5SXnzsV36ZI6diwE8uAOycePaRMn1h+UiiUCT8+cDRtkqamww6/dISiTCZ8/z1y2LKFbN11k8xW4uqaMHl0YEiJLS0MXBpTLRS9epE6apKPnoqLqYu3snvJ4gQMGxjx7UVBQZOxphqVS8PXr992n6gtCneA0kCCPQIDCocKbyMKNivhGD9VIdojrpxBw9aCxDxsGQjG3WaFAKAKRQHKkQgmnGxsjPOwzNQtr1nJNuyXhK9MKs75xv07jGn5pTuHlRUvCXV1f6dJVoLqNaRQ1kwYPFj55Amu25fn5ufv26Yj2mm9vnzxsWNnNm4gx3SAoz87O27s3ZcwY4ePHtQFNzblEIIBoF1R2udWtyeXGd+iQd+AAFN7e0AHK5dKkpOLTp9NnzYrv0gUrDxDfwSFp8OC8gwfFb9+CIhHsg/gimkIhiY+HAtR0SQRVV0sI6n3G4+3vP+Dhg3/l8kqxWJaRkXn37t2oqCgkhifNyrHhhZLJKl+/ft97ej+zSD3lyKONZBMoiOHDkDlvRWbtsDJYaE4TdU2RnRGj+CGdu9LYBw2Q+48dakvpSkf/PQB0gNKXyfI3gHiwMEibQtPwZi3Wt50WOCc2J7FxYYhvXNqipLTTs+f86uj4FodQCGavvnVM7Nev4t9/YS23oqgoLyBARxAK2m3n7Jw+a5Y0KekLRKhzplRKBILcnTvL796tc6X6qzQxMX3mzPqDUqOEy03o3r0gKAieN6FOryAISiTSlJSiU6fSpk3TKhSJx4vz80ubMaMgKEj49KmipKTB9cRKpVIaH5+9bl0N44Maw1T596B6my94vB1Dhj5+/Lxm2hEKxYmJiRcvXtQMLcHehRmEevXqXd+5A8zDWmhjG1S/l7HMHCX2hUAgADSAOozVGEnAVVeC/muSvWkoC3kkJ6oB0idHcegzTAEzxECoGoEhgs0ppk0gIso0slmzLW1+2jPxWcqrmtkBPzF+DeS9ehc6Zeo5R8cPOjAYqpuWxlUzoVevivv34SFUSUlBcLAu1q1qVCTw9s7btw8UCutglS9fq9atoIgluEOWmpoxb15Naxqe8HiJffoUnz0LOYFUO0CFQpqcXHLuXM62bakTJ8Z5e/NdXKCVtTrYncuFSni8WHt7voMD39GR7+QU17596qRJuXv3lt26JU1MVFZUwCq/riAKhUQggNg+jcD/VK3nVzze2qHDYmLe1J4Z5PLKsrLyR48eRUVFhYeHw6IitQqxhFADFw2xCNEThGIdsiF+hxaXQwAIAAdKRWeopSX94xs99EjpTK9BJPVPSA4UfYegRXFYO6zIHmjA7oucAIHUhsxYag7xdTVqN2EUx3ZX6yEbf7jBv1t7dsDPjVwDGff+OfzjiN+r+IQ0tKbfHvZK6NKl/PZtWCuuLC8vjIjQKYSKtbNL6Nat9OpVxOW8SmhPHHyCl8pKWWZm5uLF2j9rvr19Yv/+JefOQd4glQ9QLpcXFEji4oRPnxafP5+zdWva1KkpY8emjBqV/OOPyT/8kDx8ePKPP6ZNmZK5cGH2+vV5Bw4UhoeXXr0qfvdOUVgIq3PYzkGZTPz+ffaaNQIvL+0Hi1UL73i8+UOGfvoUV2dakMuhnMhpaem3bt3SPqEeZhDq9ev3P6wYaRXUSk/GKYpD6UEn0NDW8ghEArEFmTaWzdptjcdFafJcojgmkRx2hC073JYdass+bkvpzviCSOqdkXgU5ja9RvGzj9nQRrEBk4ZdUP8JSyKQvWnMLVaNPSjK+kCrbqt6nYo5V2d2wL8aswbi/rp+pFu361jzGGFlcoyznfgOHcpu3IA150qRqOjkSZ3Tczs4QJTlb97AygALKWoK5bm5WStWYKNYHi+hR4/8gAAooFvNA1QqlSKRoqREUVAgz8mRpadLk5IksbGiN29Er15JBAJZRoaioEBZUYFClQnfJwgqSkoqHjxInzNH4OmJzUgx+jvhk53d5AEDU1MzYecEubxSKBR/+PDxypUrERERanmealfGDEK9fftxzNpx1kf0BaFOcJhrLYjNETdh/WcyiQTAnEj2pdFnmbEDG19mX01wT33/ShTHJMKWHQZhIHaILTvIln3Uhn3Yhh1gwz5kw/a3Zu+3Zu21Yu2xYu2yYu2wYm6zYm61Ym62ZK63YKyyYCw1py8wo882pU83RWE0hWKhvqcwN1liI3P9UdQvieQwV1mQuBSCyggKWuFlAtRBTIPEbGGoGcvAlh4rffdGB8DODnihMWpAJI85deagu/t9nFdTHRsZ5+1d+tdfsPAFlEiKz5/XOYSysxO4uWVv3NhAxhU4iKEoLMxeuxYzYMHlxvn6Zq9ZI4mLg1UInAj1ykBQ83vrNKZQyDIzC8PCEvv21V1EmjbaG9O3b1ZWPspsIJUqiopKYmJifv3119rASPVzzCDU+/exEzZMtg1ojaGdaKCpCA51AAtgqmA/iQSiFZHsQ6P9bMo+1GgDiiM4/8GgYJtqDMQKsGb5W7OqAdAuKyaEfiyZWyyZG6vQz1oLxipzxgpzxiJz+lwz+gxT2hQT2jg2dRSbOoxFGcCk9GJQutLJHehkLxrJhUriUYhtycQWZMCaBJgSAQYAUAFC9YcCQMHaFAAdrJDakJnr9AehoFzOfRkAuieynqsMWuG1JdF/MWUfb8TLeRbHWny/0nHxqZV4jheU+dGoLkkKSu/u2bfbxQXn1VTLKArc3Er/+APW6oMyWckff+gBQsVyufFdupRcvIiynFcHXVR/VZaW5mzapNZ4G6wscHFJGT0aKcQeVgxdFIISieTjx6xVq4zN+VSjwI92dqO6d8/LK1ZhHlCWlJTevHlTdeRUUxMzCPXhA/+XrTM5/nqEUCc4zI2WJJ7KTggSAWATic3JlO4Mxnxz1i4rdoCNSYgtRFodwTHyvXvMrZa0qSa00WzqjyzqEBa1fzUAYkAAyJtGcqOSHCkkOwqpNZnYnES0JgHmRIBFhDAQ6lJnfYChTQmxFZm5yqIB4FvfmaRZSSSHMc+M2AzZDQkQEMdO+sxx0GgzGJodb95ybbuf9k3KLS9SYYJoTORJTXU45Vn5f86Yud/Z+ZM6Ppgae/DNnvAdHUsuXoSFUJVKZenff+tt/3zKmDGST5/gJUEAKcqKitzt2+sGcWv/A+DxIMqobdukKSmgRKKWSAiSqlEMbfpLSiqKikoeOhQr6gRd/Lyf83gz+g/IysxVZUqpIj6Qfvr06dKlS2qt62EGoWJj42fvnMfZ10ZPFrTa7h63pf9iSmxBRveOfAULAAKBDPlXiNYksieNOoRJm2rKWGrO2mrJ8rdmH7FhV4Mqzey6zu6iTTJB34H41RgN9IXYvCpYW2dK+PLTiuKw9liRfWgEBAQFPV8O5EtD0gTAAChdGSxDUDB8GYUWijKNaMbZ3nrQiqFPs/FNeY0BIErBkuT0Yz16RDk66sJaNOU2udziM2eQdtSX3bolcHPTz/D5Tk45mzcrS0pUhyxKoTBvzx4dkUxCzFWDBxdGRkLR38XFoFSqumBqIKZaVUGpVMLnF0ZEGCS3sbpP+QGPt2LEyDSEWChYXKVQVBYUFD5+/Pj8+fM1fib0E8wgVHx88oLdS1rsaYeJhVC9EfbhqoBicyKiywHJin4uB5hEYnMSiUch+9Gpg5m0ySaMRebM9ZaQm+qIjZEkVqNPMwXMEQHB56EY+H8ih8RYaK76s9O4JjvIljaWjZjzGCCQ2pLpE00onRjQQiTsARAAMyJtBMtgGWm0wE+Q3qI4Vodadp3e48T7M7BzAV5oXBqQKHPvPFji4RGNx5Kr74MpOnECKV1d+b17cT4+6hpXjevH+fqWnD8POX5UO5RCYb6/v06XGgUeHskjR2Zv2lR286YsJUVZXo4EN1UTGaYWWBXzVH7vXt6BAyljx+oNs2r8mKpvvGFvv33K1NTkdLWmArm8Ui4HU1PT7t27p0qAFGYQKikpbcWB1S13fq+xXdTwxigO+5AN7Uc2xAyEYC5hbShMIRFik4IW+yxJpHYUsjeN0otJ/ZFNn2HG3GDJPmYY3u1qtdBnmwEWCC4XmJEYpohoQ6LPNdPwOaoOKSI4zDUWKKlmACZAG8FmB9kyllsQWyMzXwAEoi2JMU/3Aqs+NHVqmgc3d5vhufLv9WpNEHhlg2hAKgUFu/dOc3d/qz6A0NKQNIHbC48fh1wscEf5w4fxnTrpc4xJ/fuLXrxQceeaUiTKP3JED5iD7+QU36lT2tSphWFhFf/8I+HzIb8UQoI/OEXClIESiSwjo+Lhw7wDB9J+/jmhTx9d5+DD9jn+4eBwcMGiFDUh1Of5ARQKxfHx8RcuXNCTFyo1NXND4ObvtnF1bkHhzAw7xJY+xZTIIRFIWsKoeuCDQiCaEYm2ZGIrMtmbRptowtpuZRL8OYhKX8E0jIXmgKXRQyhLEn2mqa5/AKwAG4hbAcklRySQHKhQlNsJDvSrmGhCoCP/JAACiUdh7dQrEQNW+jENb9Z2CW/4npGlItHn174xLGnJvkUhpeWSkz+O2OHqipNqamAmCw4fRmKVrHj0KFFacbEAACAASURBVKFHDw3a1OaWjEWLZOnpqqyagSJRYUiIngOu49q3T5syJWfLlqKoqIqHD6vpMUG5HPLkKZXQp3pTXs25XA6KxcrSUkV+vjQtTfz+fVl0dEFISNaqVamTJiX27Stwd8c+nEv3f0ucc3IK3rApLU3zLFhyeaVMJn/y5AlKdBRmXqisrLwdQbtbb+ZhZSHUbYd93JaxwIzsRYPcUUj2tR5AUqMAIECRN9VxVM1IlG4M2hRT5vKqsPRgW4itUZdwCmJjR06jq8YodFkVMCPSf9ExhAq1pc8yRVEFYEGkz/niWGIHVuEtMjKKogKUXoxGyb8axeHsaN3tlx7Ps7+i38XhlBFqoOTl22W9+1xycPioe8uhDTgwznvzDhyAOLLhDuHTp4n9+ulZ7Dg/v8KwMFUyroBicWFkpD6XGr+ogsuN8/ZOGjgwZdSo1HHjMhYuzN25s+D48aLffis+d67k8uWSP/8svXKl9M8/i06ezD9yJHfHjqxVqzLmzk0dPz6xXz+IJLORs2+ccnML27UnKytPywlBLgczMjKjo6Nh1/Uwg1A5OYUHwgParLdXF/pgWT+cw9xhRRvLJjtQocghFMOJCZKgAERbEtmDRh3KYiwwZ+220t0+eeYaC8BG714oIoFABQAmAHEcWJCINiSiLZoMAJtIm2yC5QOt43GM4rB2WZG9EKPICWSA0o3x1ZJrJIe104rkQEVZ5CWaE+lTTUzCGh/Hgfnx5r7D24e+/FXLOQK/XacakEqUnyJ/XdSly/8auU36Yp71CwRzd+5UlpbCIahKYUxM0tCh+haMx0seMaL87t26y4tKJeTOKStTFBbKsrNlaWmS2Ng8f/84b299S1jnAXG5fCcngbu7wMND4OYG8bl/Az/FKA+P8EOB+fkl2r/dVWlhKj5+/HT16tU663qYQaiCgtKjJ0K+X+2oQwtax6DCfo3isINtmVssaRNMyD40og1JJx6p2ggMgCKoiBwS2YdGn2LK2mapC2PM3GgJLVNqdpAhPknAjAjYkIgtyaS2FJI9heRKJXvTyB3olG4MSm8mdSCTOpxFG82mTTChTzWlzzRjzDNjLDZnLDNnrrBgrrZgrrNkbrBkLrNAE4FJpI1n6/AHEMaBoshZiC4lYgsSxKpQxx0YyWEsMCei+PAAAuk7MnOz/hitMFSR/WTnBb8tw9fytJ8lddeCOK/44tr1+zw8cEYozZBEzqZNiuJiWAglevMmeeRIzZrV5i6+iwuUSG737twdO7I3bsxasSJjwYL0WbPSp09Pmzo1deLElHHjUkaPTv7xx4Ru3XS0I08b+b+Fe8NdXYMDj5SVibF6teVysLCwKCYm5uzZszVACjMIVVxcEXXulMMKNwzNg+ZNRXFMwmzZ+6wZc8yoA5ik78kABdHuomECta4RCQCTSHah0n9iQ3lOIjmay18PHbK2WxFbkwEoKotE+o5C4lHJrjSyL53SlUHpw4Q2Eo5k0Saw6T+b0ueYMZaYM1dbsDZbQo4xf2t2YBUX+WEbiLLhqA37mA1EUB5c9QmBKMuhzLthVZ/wKpasyCqWrDpApEokdrAtmkpoAHWMDiEUa7slsRlyeDgZoA5msUNhnEnsYFvqMBYaCSdAIPvQ2MEw92L4EHXRVIv1bYdvGPkum49zbGI1UWLeTuHLt4GTp5xxcsIDoTSz3FmrVysKCmAhlPjDh5Tx4zVrVtu77O2hvLwODnx7e8ipUyeDbx0/EP5Vvxr4ZGcX7uJyJPCIVArxoWL4kUoVubl5N27cqA6QwgxClZWJL135w2mRuy7shOZtVjulNlsxZptR+jBJbcgAmwhtdNcloALoAMmZSp9uCnEi1ANDjbskkoOmOgpAHcHS1QBDbCldGCi9E1uTWdus6rqgPuuftcua5Ia8AlgFDGljTSBWsM+3NIoTiyMtusztcfbV5XKxFMNpAm8KKw1IhbJ3F3/f37vPTZzOQFMjmjZ1atm1a+XR0aVXrhSfPVsYEZF/5Eje3r05mzenz5oV1769tmBIU8Hwfo1WA++43EgPj6DAI1i9yLXbqSI+UPL5/NOnT9+5c0ep/AqiEWpXVf1cKJTduB3tNs/LSA1PuC37sA1rrxVjmTltNJvSkU6ypxKbkyBuIWrDqUvQXC+w10gEoiWR2pep57S7elA+ItMSAYq1pw5j6YRJK4JDn2kGwV+kgwzQx5ugJZOOgHYbEJuTUUAYYEJkLDCHfHKNB0WZhjezX+iy4cLWnJJC1d9WvKbeNFCRlf/39p0Bvr4vcC8FjlRwDehLA6+43PD27SOCQ3X3pisUlcXFJfHx8dhAKLFY8fDfRx4zvI3d/ERUrfGF2LL2WTNXW9BnmlFHsCldGSQHKrE5GUqNYkKEksFhcUDuKCcqc2296JzGY6HrP01IP0gHGcrgiz0EieKwtlmRHKkoYW1kNxqUORhu8bFmCOxgW9ooZELOqkGRHKnMDZY6QYG6eeimkZzmG9r+tHfi85TX+Fqe7qZLDVuWgtlvPkROnnLSxQVfxTNajwUuWNPTQAyXG9S16/nT5zR8c1Vb+5PLKxUK6FO7Fw29UFIp+ObNB+8pfjUWq7GcsEOrHFT7rZmbLOmzzWij2JTeDLIPjcSjQpvnkWNvkIDEV+UkiHmIudIC29AoA+oWitBHOsgApT8T84gi9jEb2nAWShQ5YEpSUcOsg9bk9nQodSDCAdAAam8G60ADaMyA+q/ftbV/K7+VnU7870yFWFb7TcbPDa4BiUj++uTpgN59btnb46nxmp6dxkdktBp4weUe6Nnr1q07+p8ENIRQMlllQkJKhwmdTKOa1Z/lG1lJJId92Ia5GdqARp9hSh3KIrnTIBOOaHkRDHJ1MZFAdqexdjcmq4zyvEgtkUElGaD0YX7FKaC96yWSw1huTmqNvAAHEKiDmarHMDG3WpLaoaWmhpilJpmYhDSaODbz4ObfLbNbErkyrSRb//MF3iOKBioycv9YufqYh8dzfBVPXys4RmvUccH0qYEXPN6WQYOfPzdAClHNIVRWVl73ST3Nw5ujGODGdymCwz5mwzpozdprzVhiDsEpZyqUwpYJQEybqoEqKOXIaDbm7hmDKJP0PQURMJIIlB4Y01SyD9lQejIQN9MBBJIdBVoqVR2rhXPoP5tCvjTkZ0f6nsJYbo4WWaV6d7qvaRrJabalTd/Ng65/uo2v5aEAGn1fkijTbt8/Nmz4eQcHfBVPn+YT7wvXwEseb1H/AckaZnf5amFO3XlDcwhVWFjWb8pAi+Mt1LBnujcwWAoTYcsOg7gAmJst6RNMKJ3pUEA68qrQF6gBEEhtKIyVTSEoiuRM/TKuOmckAqUrnX0IO/9NBIc+oypvDwLcAUyIEDYNUq9Hlr81pR8TYKEFdZHb06FMPpgyU2D5U/z6xbEMaGm/zGXL+Z2ZpfnqvvB4fR1pQJhTeHf3Xn9v74ffAI0hbrNxDRiVBl5xuVN69Cgvl+jo7UZpVnMIJRLJh/3yo8XRpguhatutKA47wIaxyJzSiQ5YqZCbj0yg9GayA9Uz9rozuhq3TPak1QFOX76SCOSOdCiQqLaiND6v5iJ3oyKGo5GqVki3WKoNdCI5zA2WZA8aSnw6wIBYplgHMRqLxkpQ7UbT8GYt17YbsvHHO3H/oLzb+CW9aUAqkmc+fh70w49hTk7v8TUsXAO4BvSrgSdc7rTevTEnhVJlAtEcQslklePmTbAOaIWNBVXNeBi4r0gO67ANfaYZyYHSoDuKaEtirmmUFNi1lUzuQP+CmeqckQhkPxprLzawA9pAN5wFMBAcUAQClJLvZ1PVo6Bqj8Ik1JY+xww9Zw7RmkT72aSxLL9a+7dymO+y5/L+3PJiVd5zvI5ONSDMK37kf2idh8cDnA5Kv7bTqHwhuDCG0kC0vf2qsT8JhQbYYaMVhJqxahZnXxv0veVfWbJGgZNUEBLyavjRUOw9BDYAAm28CfZ7/lUQD0OdU7oz6gCnL1+JBLIXjbXbCoPuIjjMJebEFsih60CVx2uP5n2xj9nSRrLQgC+RQHKkMlZZNAqOg2pH1IgtY+/HP5LKMCbk1SnaaHqNS8WK7Bevg0aMDHB2NpQJwfvFNfAta+CSg4P/shWlpSL9Ty9aQail21a22mVnGtn4N+Wpi0siOMyNluROdICO6DUhEAgUHxprl+ZWHwNoou646tWn9Gd+wUx1zogEkjuNtUPrAUZxWPusKd1Qucg5JMYCM63ATRSHtcea0omOko4aYACU7gys/Gq6fnxWAS3dl/ns/v1AFh4RpRqti46mV2F+yaNDgZv8/B7hUVC4CwrXgCE0cNLN7cSBgyUlQh294yjNagWhtgRsb7fd0TT824NQJzgm4bbMlRYkB+RoawKB2IzEXK7O9rF6CEbXZrjB9qnDWHWA05evRALJmcrcqi2EYofYQpvmrBDDvaFApQFM9lGtA8uiOMxVFiQuBXF3HkAArEhQxPrxRkBZbhrRrOXm70dsH3OX/69YqkB5yfFLutOAVCTPevz82E/jIpycvmU3AD52XAMG1ECIp+fFyF8xzDGs+oyhFYQ6FHHYYYubWVjT4jVQGcdAtn+KKWCKaPsJLCJ9pmmDMMWYK9BGs79gpjpnRALJnsLcpF28VxSHtcWS7IbMRQ6xlVJZmy0xWS9mh9jSJpsAlsiPjEggtiIzFpob80Opkc3ycAvXFf9n7zzAorjaPU7vLlWW3mb7AoJii72XxBITY2JMLIk99o4NFRDFgtK7JUZjiz322HsXiDFqrCiCCErZHcveZ+W7hCAsC2yZnfnfx+e7s7uzM+f82Mz7m/e8c07g/F8X5bxCRVS9nkxW/opZac/i3ILD4RFhgYFnkILSRvpBi2Ebp6YOgeW+vnu2bC8t1cKdZL0UKm3z2oCQpjaJDFWoBmvYlmH2Ro2qT0QZ6Jl+ZaWS2F8eNTW8YTawQSVx+velgZ4hx1i+QIrS0lnFnomOpv2sFIyH6rMMPiyHp7K0kFVUQ+N25gqG8/SM9Az5xpaL6tev+jBR+rusNCeXBd4dZ3U7eOt4pdCOl5ogIH2ffe5SZPceawSCTAgECICANghcJ4iowMD923dq4j/5j2oG6qVQ23/f+cn89jZxzJjXoKrAZrWqoUnn6quF9PXkI1DxKgv/VShIVa1S4W5mw1j/OlOlLX09Q69aTnRZqbXpbIuZdgZu1VeRG+nLK9ZVW0+WxraYb2egYMpQPT19E32T9uY6MSeFTZwLb7x4RNpPBSVaqAPQyjWLOictfVm0b+LkRX5+Z5GC0kbspE4WBC3RIoELHE5su3ZHd+/TypWhXgp15MTxbgs/s4tmsEIlOZoqyNPo6xm3MVdBEU8l89DgS7PR1pXE6d+X+h/GvKbXvdjLKrqhcavqn/jT0zNwMDT7gdUgWdUOmuRoNtJa36r64Tw9PX1bQ9NBDXSgKCqNzQ73bDy6WdLFNVq5gjD2pNLSt3d/3TqjefOtAgFWxNNiBMWpGU7gFI8X36fvmaPamSSvXgp18crVr8IHNlzlrsK0h44dKo1tPsbmX6uotFWmUAmqNgANKpT5REW9M3A2lC+NUrf2pDia/cCqdi0XPT09I33jT8yt1DPdpXwaqk8tq53GU09Pz0DP0NvYYoYOrBjNSnHynMjpPLX7lZwMxgqNpjsuff/iwpWovp9H+vpexop4SEGBgPYI/CEQJAwecu3SNU1fBD4M6tVLobJu3R6+dLTTCq86BtG6hV5KfSuVbT5WUZ7GuI25TtdCmc+wraSF/77U19N3NDSfWCeF+jAXuYGL4b9Hq7T14eE486lqWyQnXb62tKHYpNqn8+QOp2fUxNQqut5PAqr/F2sb4yL8xnfMuonZhXlamaJXKxcvLZ60+MnznVOmzQwIOMnlIgXF8CwIuq9dAocFguhRo+/+/Y9WLgj1UqgHj7KnRQW7LPHRjkKls+V2ksq2inG0DLc3n2prPt7GKk6zKZ8UR7Ph1SuUoZ5xR3PtwFFR2LaYZ1fJbSq+1LczMB9fJ4VKdjTubKFnWP2sWgbyMrIGqer9a1rMtpWvQFz9/+kb65v1t6r1kjIqgl+rX47jYveWQ9usv7ipSKKFKXq1cvHS1kmlpW+ztmwP7tzlNx4PVeTaDZ84O8MJZBHEPj5/5Zixz57maeWCUC+FynmeHxof4RZK1OpaX9+d09kNEhytIh0sZtuZj7U2/bqBcQcLI38TQw8jQw8jDa+pYpXkaNKz+pmTjPRMelrUt7/aiMflbbYMs69eMD4sujLWunxnZTfS2OaTbAwcFbmLoZex5VLVLB2joFXyOQ6+tNJvoLAoimUgH6xMZSs4DhU+YqU6eU7mfhEx4OTd8yWSN1q5mjDipJJ3T89eTPzu+xg/vysYwtPe8A3D1QHdLyOQQRA7/fzip0zLfa6diV3qpVAFBcXR6fFu8zSlUB8mmDYb1MCki4VRY1NDb2MDO0M94wqZDGN9kz6WmoxnVqsaKlqWxEjPbKhuzwtlGeGgV73q6DcwMBtpXduRSquVDkYtzBQd1spAzi1NE9Yinxi9udl/fkUfOaOhj7F8BlGNtKc+v1671a68n8ST1878J+8RI2zmoweMNdDrV3cf7Jw8dXmTJsfwFB78CQS0TeAGQWxp0mRteET+i1ca+M//41PUS6FKSt6s2/SL+0xOfa77tfjuh9mlDZyrfwZeX8/Aw8hK/dmL/7U5nW32o7UCFdAz0rNcWt/Ju2vBRw35KsulDgqWApQr1DBW7TI06WyzIQ30ratP/BjqGzU3s4pUewrqf2DT2PJZ5j2rn7K8rLC9nbnVyoa1lUUN/+1YaU7shZ6NxzdbcSjmeVHBx/+14516EijNKzy9dFl4y5a7ebwMbQcP5CFAAASuE8T61q23JKdpZYE8kpTVS6Gk0ve/7d5FTBVobJk8q+iGRoGmH6UJKryhr2fc2kwzz6JbLnUwEiiqRzbyN9FMS1QTquWFZY5WiY5WcY5W0Q0toxpaLnewmGmr4OF/fSsD0+8bNEipRcWSZaSDoY+RXvUGZeBoaP6TZgfOUtmmgxRanZ6ePsvAdGADK8o/XClffnimt9+4wF8ubsVMUfUUpkpflxSTf23cPLtjp2Sh8BqG8GCQIEABAte53KR27ff+tqukRDvVC/VSKJKUHTxyxH9qY+tkzS2TZzaogb5FhcG7Cvr0v01TfdOBVg3UusxZOtsquqFJbyt9i+pdQF/PbBjLqjZ6UdmEyurl09jyIaTUD/9SHOW+kiz/Z5XsaJX04V/iB+9JcLRKcLSK/38BWtnQMtLBcrGD5SJ7ixB7izl2FjNt5RX3k2zMx9mYjbE2G8EyG8Yy/b6B6bcNTAdYmXxhZdLH0uRTS+NuFsadLYzbmRu1MjdqbmbkZ6Jfcaj0v7T1LeVi0SBJaYVKkleRK5rIwETfuJOF1UoHDed7rOIaGncwV/y7MvQykhdFUX44zzrR2WsUt9v8XsdunS4qlVbyALysGwFp6duHf5xc0v+rMF/fi/AnCsROJGBA4E+CuMLhrGrb9tjR49p6Erm+CnX63Pm2szrZxmtudk3LxQ6GPgqHXfT0DFwMzUaw1PV0XhrbcrmDaX8rA7ahgkfiDT2NLCNrrQJW8Y5y9Vlibxlub7HQ3mKenUWwrfl0W/PJNubjbczl6mNtNoxl9n0D04ENTAc0MP1/9THpZmHc0dy4rblxKzPjFmZGTc2MGpvKq+zFJoYCE0OusaGPsaGnsYGbkYGzoYGjob69ob61gb6Vgb6FvtxpDPUU9OW/4vTvK30LA9P+Si/Km8o2G2utr/AJOANPY/Nptg1SNFEFVUlYLULsDf1NFRVFGeoZtTCzXGyvYb2r1E5lXtqtduGOEg5ZPfzknXOvYVH1LpmSlrx5cu7S2jFjwz7MYoDQBQIgQBEC57ncqO49zp0+X7dbo/p/q74Kdf1m5ufz+9tHuylzZVfNPmls0wENFIwuySO8gZ6hp5HZUJZVrEon9fnwMKDlQnvjrhb69or8Sb6y22BWHVTAfKqtUQszQ5GJIc/YkPPBe7yMDTyM5OrjYmTgJLcfAwdDfTtDfRsDfVaZAxnI15gz0ZdPFFl9Uuxf8VHdlr6FvsnnlkquYGMZbm8UZKqgdEzfWN+kn5XWJnNPkU9ZbuCuaJBR31zfpJelTiz8Yr/CVTDJb0zKhIsPrpVKtbD6Zv2vTRQ5glT6Pvfmn9unzVjavPkhzAKF/BMIUInAKT5/5dffZN78U1uXi/oq1N27D0ZGjHWJ0ujUUFaxjkZBpgoGmMosyoBtaNzZwjJCFc9SpbMbJDlaLnUwHdTAkDCWK4uCsUQjfeNW5lbL6lIQbTacpW+nSM5U5z8qONL/lEKJubjks4F/00DfpnrF09czFJpYLtRmjke+4mGfGuY4MLA1MPuRpd5hYpU8FpDOdoh0850YMGntjNu5/0jJ99q6xOj6eV//82j/vJAlLVvu5fNRQk6R3AOaAQJlBI4JBJHjJjx8mK2t60x9FSo7+/m81Qu8lgpUk2FSOnhYzLNTnDD4nyAY6xu4GJn2s5JPMpT6oahI6VP8r0cfCpIsw+1NP7cy8DBStCTI/zuJgauRxaQ6FkSbjbbWd6h+FoH/PwVF/r++mb5JD8uaU31pbIvZdoZ8EwVJMn1rA/lyeGqeS7OGX2k62zLU3ijITN5O/Sr+6Zvo67MMjFuYWYbpwIOWHx7Q8wgY0WT25pCHL59q6xKj0+ctfvzsaMjCeS1abIc/USn3AIEAgTIChwWCiHkhL18Waes6U1+FyssrXJUaww/3ryE41VZcatw/xdF0gJWBwtG0/3mGvp6esb6BvTzymQ1hWUy1sZhvZ7nYwWqlg1VMQ6vYD/9iGsq3oxtaRTW0WuEgr0YKtzefYWs6mGXS1cKQa6KoArqizujrGTgaygcQlUjMVEnMfJyNvsI5JyueTevb+mb6xp0talwCxWp1Q5OelorGXo31jFuZyavIa/y7q3uHZEeLUHvzCTbm020t5thZLrK3XOJgGdVQ/gfVRoVWPYFYpzg5z/UKGt580bbFfz+/jxE95a+z0tK3L+89PLx4yZxPPtnI59+AQIAACFCPwHaRKHrxkqLXEuX/01btnvVVqKIi6doNP/uGBNbzWl+Hr1tGOhh3sdBnVT82VJVi6DcwMPQ2NmpkatTSzLiDuUlXC5NuFvL/7fqhHPsTM6NAU0OBiYGrkbzSSF5nrWDE7r8nMNQzcDcyG2ZtFeNY54pj80k2+k7VT3z13xNq/ZW+qb5xe3Or1QoLzlLZ5j/ZyFOGVYLU19M31pc/7Dbeps7Q6vDjYc5XrJOdnOd7Np/UasGW8Kynf5dKUBclq/EaKi19m/fn3/uXRIZ16LBRILhGvciBJAQIgMCfBJEWFLQxKVWHFUoiebdj1+7A4GYamxrq3+CXJh92MW5vrmhmAcWWYaCnZ6Kvb/bhn/mH/5UXZdfp8TRjfUOesfkoa3m6Ir3uD5SZT7c1cNUZhdIz0TdqZW4VpVChkhzNx9qYdLaQ/+tpYdrH0rS/lem3DcyGsMyHs8zHWJuPt7GYbdcgXumZEdSdiKLd8VkpTk6LvJpN/SR44/ybT/+qUSAYvoNU8i7vRtaekIXhHTpsFAqvYwoDGCQIUJXA8g4dD+/5vbhIa7O31DcLRZKyI38caz2rg02i879yo7EglMa2WGhv3MZc37LKFIdigVLZpwbWBsZtzOVP49d7MiqLYFt5wkZL/6dvrK/fwMDAwdDA1Ug+CYLIxCjQ1LiFmXE7c3murrel6VcNTAexzH60Nh9rYzHF1mK2nbxqXvH6cels+SxWCfLJq+QzSCV/mNqqrC6tHq6phR+bxn7VajiR3KLCPAPGB41Ln3L9mdaeXtEBOZO8e3ktY8ekKYuaNdssEMCfkOoAASoTCOnV+9L5y6WlWkuuq0Chzl+60mf+F3arXbUV1SwjHUz7WBq4GSma1EcdUmKgp2dmYMg1MfuOJZ8CShWTLlrMtzPwMv5fY/U/TFJgqCcfTDTSl/fORF/PVD6NkzxzZq4vn9LJ8sO8BlYG+g0+zHFgbaBva2DANjTwNJJPi+BvYtzU1Li1mUknc5NPLU2/sDId2MBs2IfczyQbi5m2FiF2lovtLVc4yJNnqmi/tn4DOG+NBFipTo7hHqIR/kOjh5+6d7G4VDuT+VLZoiTF5LOzFzePGj1fLN7B59+k6p03lUMa2gYCGiNwhSBm9/38r1t3tDWvZn0XeCm7Gv556+8RS0Y7RrjXeBFX3w5WMQ3Nf7IxbmYmLzCvfjZt1XiUvp7cY2wNDEUmJn2sLILtGqhu3Q/5qrddLYwCTI2amBq3lKd/jOXjX5Ymfa1Mv/ow/jWUZTbC2vwnG/PJtnIHmvu/kuey6nh5mgepHTVkcdT309XkkVlp7IZL3fljfL9dMnjH5b05r15q8dJDKZeSSt8X5eT/te9A2rAfQv399/F4WfAnEAABahM4wONF/jj83t0HWryYqCAL9fjxs5C4UNd5Gp0aqorAk+RoGWpvNoRl3NrM0MNY2WfolLcqAz35M+2W+gauRsZtzOUP982zkz+MplplSZMPe9UwNAZFAIE6E0hn26105U4SfTa7b/TBhH9ePtbi1Ycqp5a8e/3k+ZXktOjefZb7+x/h8TR2G40TgQAI1JnAzyJRysLQJ09ytHglUYFC5eUVJv+Szp0qqkJr6nyhr9sX09nyVXJXOFhMtTXtZ2XUxFS+Bovyj9RVr1P6FvqGXGOTDhZm3zWwmGsnL6BORr6n7lXz2v+p1O0HRo9vpbNtY1w8Z3Cajf9k0rrpl55d1+IFSOunlhaT+bfu/LFgUXj79iki0RkOB/mnOoc0fBEENEkgJiBgY0p6fv5rLV5GVKBQRUXSvQcOiIcHUCguprOtkhwtl8sX2TWfYmPSy9JQaCJfEcX0Q/FQgw+VQ2X/aylfJE7P7MPqKIZ68iSTECkTBAAAIABJREFUvaGBu7Eh38SosalxW3PTL63MZ9jKZ49M+VAtpNqcEz1CMnqhgwRYKU7sUA/uMOGX4V/vvX1YIn2nxcuQtk4tKZI+O3Zq/Zf9hzRu/ItAcAMP31F74EaT4RnnojiBmxxOREDAb1u2SyTavHapQKEkkneXLl/z+zqARc165DS5TsmTRmlsq7iGFgvtzSfbmP3IMv2+gel3DUy/lz9dL1+490eW2Whr86kfqovC7C2XOVitbihf/S0FD9sj20RTAuls+xVuPuP4Xab3XL4/+nbuP4wSqdf3H1+MS1zerfsCX9/DPF4m7AEEQEB3CJzlciPbtTv4+0Ft3YCVnVcFCkWSsr/v/tPy21a2sdqY10AHEwAUSteBHuMJ2Ma4uM8k/Mc1Hho3cl/m4dzXhbRfUK80J//h0RNbfhofEhQULxSeR/JJdwInxVMjaJ7GCBzm8yO/GXjp0jU6KFT209z+479uuFSbD+XBS0AABOpGwDrJueESd2KSoPO47nM2L7jw+NqrUgktRUryqjT3/OWDYYtDu3aL8PPby+Nh5ieNxTycCARUSGCvULjgp3HarSVXzaQGJCkrKCieHTHPZZ533a7g+BYIgICWCaSzbeKdnUO8RT/6fza/b+Kp9H/yH5fQazWYojv3r8Ylrvj6m7nNm28TCK6gchzJJxDQTQKZBLFVLJ47dXpxMUmHLFRJyZsNmzbxJom1HAYYPygD/iBQLwLpbJs4F8+xXN7Xoi9jB/6eceThy6dFElKnp4+Slr4teph995df04cOm96qVYJYfI7LxWN3KswH4FAgoGEC1zicNU2axC5fqV1/UlkWSip9f+HClUY/NFHxJElQIhAAAY0TYKU5NVzi7j2C12Ry87FpkzZf/O3Pp3deFheVSrW2ikJdLpSSd5KXRS/+/idzy/atEycv7twlyt9/P493Fckn3Uw8aDhI43RUJnCZy13RoePve36vy5WBrHmhceUPq5pycpKU5eTkN/u2JSvZqV43wRqPFmgtCIBAlQSsE53ZoR7ek/mtZ3UYlTg+9fj6S/evPy18oQMiVfq2+NmLZ1duXFz/y6/jJ67q1j0uMHAHn3+Bw8Fjd1SOi2gbCChJ4AKXG9yt+12tzkteplkqU6iSkjfdR33mEO2GRFSVAQlvgoDuEUhn2yQ4N4xwJ6YJmk9pNXDF4GW7o/ZnHn1Y+Ez5uzTN7Sl9TxZJXz/Mvn/y7MnouHVDhy3t0CEmMHCnQHCOw8GCd0oGJ+wGAhQnkEUQx3i8GX0/LyqSau7yUk3uSmUKVVr6dlTIGNclBCsNiSiaTiOEHCEzCaSzWalO9ivdPKZyROMadZ396cSkacln1155lvmqVKL1S5i8AZJ3pS+LXt598Pe+A/tnzFrVuUtI48bRYnHZsB0yTxSPiGgeCNSKQBZBbBeJIidP1e6kmmWXPtUplOTt8tQowSJ/VgoUCgoFAnQkkMa2i3J1nuvlNYHb7KeWn8/vP2XjzM1Xf/vr2b3nrwvKqs41V3gufS8tJkvzCgvvP7535PjpxUvWf94vxM9vjq9vklB4DFNlouAJBOhLIMHff1PqGloplFT6ftuenS3ntbVJctG9AQtmZhfQaxCoPQFWGts21qXhEnfXOd6CyX5NJ7XsvKDHxDXTkg6vOfTnsZs5t54V5hcWl7wulZRI36g4R1X6tjT/dcnD7Jc3su4dPXEufd2OmcFJvfssbtw4RCyOFol28fmXMU8mfQNnrXIV2JmuBG4SRETjxscPHdXcDVs1o3gqeyKPJGVS6ftzFy51m/OpbZwrFAoEQIDmBNLZ1slOtnEuDsvcXOf7EFOFgnF+rSa1HzD/2/HJUyIPRm26vP3U7fNZT/6+k/fgUeGzvKLCEolyRiV9Ly19S5a8kRaWlOYWlD7JKf77n7zL1+8fPXF187ZD0bEbgufEDhm6vHOXyKCglX5+awSCfTweSsXpGi/RLxCoROAchxPZpevlc5dUfIdWvScpOJHKBvJIUnbnzv3+875pGIU5yuk4iFP7dAXNHQJAygiks1lpTnKdinGxX+7mFOLpNZHnPzyw5fDW7aZ1+nTJ5yOSx87buGjVrrjUo+s3nN+yLWPX3ruHjz06cynnxl/59x4WPM0tKnxVKikqkb7If5X3JOfZrTsPzl/+69DRy79uPZ6QvDs8Yv2UaclDhkb36r2iTZuopk0TAwI2icX7+PxTXO415JyQcwIBhhE4wudHjxh5+8+/FZiNxj5SpUI9zn42dtkEtyUcPJQHewABRhP4MNc5O9TDbbKPzwgeMYzvPZLnM5bfaGJQmwkduo/+9NORvXuM7dV5XPdW49o3/qkZf4yvzw+8oC5+P/r7L/T1ne/rO9fXd7av75wP2+FicYJQ+KtAcIDHO8PhYEmWSjfleAkCjCKwQyCInTv/6dM8jXmSghOpUqFycwuWrVkpCg9kpaKiHIkoEACB/xGwTnGyjXZxWO7WMMLdMdzDMUz+j73Iw2mBp/M8L5c5Xq6zvN2nEo17iaf5+W0UCLbx+Xt5vCNc7hkuFzNhMio6orMgoJhABkH8EhCwfuWqly+LFJiNxj5SpUK9elW6Ze9vrUI6WKc4M/oWHEM8IAACigl8mCiBleok/5fm1CCdzUpx8v+Ov1IkUnwBxacgAAJMJnCdw0ns0PH3zdtevSrVmCcpOJEqFaq09O2ps+d7zu5tkwSFQgYCBECgNgTS2OIh/EgoFMPqWphsA+h7HQjIl3b5vN+F0+dLSymx3pQqFYokZX/dvvvN3EH20XgorzbBQ/H9Oj4FAWYQEPzAX+wrxgLAdYgr+AoIMITAcT5/+eAht6hRS67KSQ3KMl2PnjybtGyaS7g3BvJAAARAoFYE+MO5C/1FWImFIbEQ3QSBOhDY5u+fOnf+w4fZCgbXNPmRirNQeS8K4zYk8Wf51urSiZ1BAARAgDeKOy9AhHkK6hBX8BUQYAKBLIJIbtbs15T0/PzXmvQkBedSsUIVFUkPHTva8qdWiAcgAAIgUCsCnLGc4MaiK5jqCeVQIAACVRG4QhBRbdvu3bmHCku7lHmVihVKKn3/1+27nQZ3xbwGtQoe2BkEQIAYz5neVHQRClVV8GBCjgF9BAHFBI7xeCv6f3Xu9HkFaSENf6RihSJJWV5e4Vcjv7ZfgYpyVJSDAAjUgoDPJGJyM9E5KBQUCgRAoCoCe0Wi8ElTqFMIpfpycpKUFRVLQ5eFu83ywV01CIAACChPwHuqz7iWojNcruI7UXwKAiDAQAI3CWKjn1/EorDiYlLDqSYFp1N9Fkoqff/7/oPi4Y2wzIvywQN7ggAIeM7wHt1KdBIKVdX9NwNDJroMAhUJXOZwolu33rRhkwKh0fxHqlcokpQ9ePCk9ddtrJOxzEstRjEQQUGA4QQ8gr1/bCM6BoWCQoEACHxE4ByXO71Hz8zMvzTvSQrOqBaFkkje9R3Wr2GUOxJRDA+K6D4IKE/AbY7XkHaio1Coj4JHxXtxbIMAAwlkEcRhPn/sVwMoMil5uVSpRaFIUjZnyXzvhQI8l6d8/MCeIMBwAm7zPQd1EB3i8RgYIdBlEAABBQQyCWKtv/+qRWHl7kKRDXUp1LZdO5oFt7JJcmF4VED3QQAElCTgstBzQGfhfigUslAgAAL/JZBBEAuDgo4fOUYRcypvhroU6mbGn5/O6GMXg6kNUA4FAiCgFAHnMI8vugr3QaH+GzwU3JrjIxBgCIFzHM6cTp3/ufug3F0osqEuhcp5nj8k5AfnSC9WmlJXTyXvU7EbCIAAXQmwI9z7dBfu5vMZEhXQTRAAASUJ7BIIVo2f+DQ7lyLmVN4MdSlUQWFxaMJifpgfKwXP5UEiQQAEaibguNTt057CnVAoZKFAAAQqEMgiiHR//1/iEgsLisvdhSIb6lKo4mJy694dbRZ2sk1EOVTNwYOueQX0CwSUJ9BwuVvXz4TboVAVgoeS9+jYDQRoTOAKhxPTqtXB33ZR7XE8tcxOXuaGEsm7S1eufR7S3z7GTflrKPYEARBgLAH7KNeOvYVboFBQKBAAgQoETvF4qwd+e/X8ZeqsLlyeA1NXFookZff+eThq6TiXpVjpBVkoEACBmgnYRbu07Sv8VSCg8f00ugYCIFBbAvuEwujJUx89eCKVvi93F4psqFGhcp7nr1i3WrQwEBNsMjavgI6DgPIEbOOcW34h/AUKVeH+u7bBBvuDAM0IZBHE+qCgX1auys0toIg2VWyGGhXq9WvJvsMH2s3qDIVSPopgTxBgLAGbBOdm/YXroFBQKBAAgf8nkEEQK7t0PbLvQFGRtKK7UGRbjQolkby7kZHVd/qXNnHOjI0K6DgIgICSBGwSnIO+FqSKBJn/f/Wk2f00ugMCIFBbAqd5vIgv+1+5fJ2Co3hqLCcvM8THj59NipjqEuat5DUUu4EACDCWgE2ic+Nv+Qm+ggwoFAiAAAh8ILDZ1zdx9twH9x9TJO1UqRlqzEKRpOzly6K1m38WTvBjbFRAx0EABJQkYJ3oHPg9L9pPcBPBAwRAAAQIIoPDiQkMXJeS/upVaSV3ochL9SqURPLu6rWbjb8MYqVhgs2an0hSMtJgNxCgJQHrJOdGQ3grGglvcDi1zfZjfxAAAfoROM3jRXbpevjAYYoI08fNUK9CkaQs53n+Z9/3cViB2aGgUCAAAooIWCc5+/3IXRIovAaFQgYCBECAIPYKhQtGjb537+HH7kKRd9SuUEVF0qWrlnvN4NHyvhmdAgEQUBUB6yQn8QhuaGPhVSgUwicIMJ7ADYL42d9/0fwFJSVvKCJMHzdD7Qollb6/cPGq76AATG2gqkiD44AALQlYJzsJx3DmBwmvQKEYHz7pNyaFHtWWwAUud3mnznt37f1YXKjzjtoViiRlr16Vtv+uk12MKy2v++gUCICASghYJzsJfiJmNxVehkJBoUCA2QSyCOI4jzepT9+cnHzqCNPHLdGEQpGkbPriWR6LOKw0RZUQKrkK4yAgAAI6SsA6xYk3wWdac+FFKBSzw2dt0xXYn34EMgjiV1/fZVOmfWwtlHpHQwq1fc+uJjNb2KRgjk1IJAiAQNUEWClOnMk+E1sKL0ChoFAgwGwC1zmc5S1bHtzzO6WE6ePGaEihMrP+6jK1h30MnsurOnjoaNoAzQYBFRJgpTr5TPMe20p0HgrF7PBJv5wKelRbAqe53Pndut/5+5+PrYVS72hIobKf5o6PnOy1lI8JolQYcnAoEKATAVaqk/dM7xGtReegUFAoEGA2gR0i0epZs59TuxBK7Qu8lNtiYWFJ6qa1TRa2sE7FWB4SUSAAAlUQYKU6ec72GtpWdIbLre09K/YHARCgDYEMgkhs1Gjz2p+pPJ1Bmd5oKAslkbw7fvJ0pzndbePwXF4VwYNOuQT0BQTqRoCV5uQ+z2tQe9FpKBSzMxC0UQF0pG4ELnI4y3v1Pnv8tETyrjwRQ80NDSkUScpu3b4zculPbpGcul1e8S0QAAF6E2ClsV1DPAd0EJ2CQkGhQIDBBI4KBEvGT3z4MFsqfU9NcypvleYUKje3IHZdknheIL3DAHoHAiBQRwLpbOdQj36dRCehUAwOn3XLW+BbdCKQ2rTpz9Gx+fmvy02FshuaU6jS0rcHjx5tNa29TQLKoTCWBwIg8BGBdLZTuHuvzuLjUCgoFAgwlUAmQQR36Hjq+GnqF0Jprpy8TCGz/rz9Q+gIx8XudbxJXfPRNRfvgAAI0IiA4xL37l1Fx6BQTA2fdEqloC91I7CXz48YOuzO7XuUzTxVbJjmslAkKcvLK0xcl8qZIsJ6eZBIEACBjwk4LHPr1F18FAoFhQIBRhLIJIhVgYEbElNevHhV0VQou61RhZJI3p04fbbJyOY28RjLQ0YNBECgMgGH5W4deooO8Hh1u3/Ft0AABHSawBkuN7RDh2NHj1PWmSo1TKMKRZKyu/cejFw0xiXU++MbULwDAiDAcAL2K9za9hLt5kOhCJ0OhGg8CNSNwHahMPKn8ffuPqhkKpR9qWmFKigo/nnLRmK8gOGhAt0HARD4mID9StfWnwu3CaFQUCgQYByBqxxOSlBQenSsThSSl1mdphVKKn1/9cbNFj+1so11+fgCindAAASYTMA+yvWTLwQbRfy63cLiWyAAArpL4ASfH9Xvi1PHT1M25/RxwzStUCQpe/o0b9LSaS5hGMurXAjC5NiJvoNAgzVsu1WuLQbw14mhUIzLQOhu4EfLVUIggyB2icXLx03Iyy342FQo+44WFKq4mNz42xbuNDGWHEbUBAEQqEjAbrVrs4H8FF+BSi7KOAgIgICuELjK4aS1bv1rUmpxMUlZYfq4YVpQKJKUXbp6vf2ULhjLqxg8sA0CIGAX7dJkED/ODwqFLBQIMIvAKT4/qk/fi2cvUn9Rl4oipR2Fevo0b2bEbNdIAjEDBEAABMoJ2Ma4BA7mrfIX6sqtM9oJAiBQfwJZBLErMDBuZvCjR08rCgr1t7WjUFLp+3U/b+DP9mOlOpVfPbEBAiDAcAK2sS6NhnGXBkChmJWBqH8MxhF0msB1gkhu0WLzzxt16Fm8Mr3TjkKRpOzM+Qu9Z39uH+vK8JiB7oMACJQTsIlz9hvODYNCMXJmap2WADS+PgTOc7kRX/a/dPEq9dNOlVqoNYXKzS0IXjTHJcIbi72Uxw9sgADDCdgkOItGceY3FtXncozvggAI6BaBPUJh2MzgF3mFlQSF+i+1plDysbwNGwKCm9okYLEXzG4AAiAgJ2CT4CwYywluAoXCQB4IMIhAyCef7Ny2Q7cKycv0TmsKRZKyjIxbQ2f9yF7hyfA7b3QfBECgjIB1khNvPDElCArFoPCpW/kStFblBE5xucM+/exp9nPq55w+bqE2Faq4mAxbvNhrHp+VgqJyJCFAAATY1slOnEk+45uKVX6ZxgFBAAQoSCCLIFb7+cWvXPXqVenHgkL9d7SpUCQp23/oUNfZPR1Wu+MuHARAAASsk528p/qMagaFQhYKBBhB4ByHM7Vt26uXr5eWvqW+MH3cQi0r1LNnLyaHTXNZ5M1Kxy04CIAA0wmwUp08Z3gPa+5LwdtlNAkEQEDlBDYJhVFTpz99mvexnejEO1pWKKn0feqmtYFzmtnEo6ic6eETORgQYKU5uQd7f9cCCsWIDITK4zEOqFsErnA4q1q02Lt5m85NB1Wud1pWKJKUXbuRMTj8B/ZyFJVDoUCA8QTS2a5zvQa0hEJBoUCA/gQOCIWrhw7LuHqz3Eh0bkP7CpX3ojAsPoIIEWKmciQhQAAEnEM8P2/ll4W5JUEABGhN4AZB/BwU9POyFXm5BTpnTuUN1r5CFReTe4/s7zqvp20cZipnfBJiDQgwnYDTQs/ebfyuczi6NSSB1oIACNSKwFkeL7Z3n+P7DxUXk+VGonMb2lcoqfT9/QePx4ZNcFrqhVtwEAABhhNgL/L8rL3vJSgUrTMQtYq12JmWBHb6+cVNmnL3zn1dnFGzXPW0r1AkKSsoKE7elO4/swnDgwe6DwIg4Bjm0aOT7xkul5ZhA50CARD4kyAyCCK2Vauta9a/fFlUriO6uEEJhZJI3l2/mdlvUn88l4cICgIMJ+C42L1rV/EfUChkoUCAvgT+4PGWDfj63NmLEsk7XTSn8jZTQqFIUvbyZVHIsoUeszkMjx/oPggwnIBjhHunHqIDPB5u1kEABGhJ4CZBrPXziwtbrLvTQVFOoUpL354+e77JwOZY7IXhERTdZziBhkvdO3wm2s3n0zJ4oFMgAAKnudyILl0P7Dug6ykokpRRJQtFkrLXryXfjxniHO7N8BCC7oMAkwk4LHNr20e4FQpF30EcOASTCWQQxE6xeN648U+f5pbncnR3g0IKJV8yb/8h3+EBmCCKyREUfWc4Afvlbq36CX8RCJgcZtB3EKArgUtcblTbtls2bNJdbarYcmopVF5e4ec/9Xdc4dkAS+ZhhiQQYCQB+5VuLfoL1kChkIUCAdoRyCSIgyLRou8HP3mSU1FEdHebWgolkbyLW5vkOyeQlezE8HtxdB8EmEnAPsq16deCRKGQrnfh6BcIMJbANYJIat58Q0IyDaqgyrSPWgpVtmTep8F9Gq72QCKKmREUvWY4AbvVrk2+5UeLRIwNM+g4CNCVwHE+P6Lv5zevZehu2qlSyymnUDk5+Ytiw7mhvqw0JKKYvtYHw2WCmd23jXEJ+J63HApFu0EcumoB+qUkgSyC2Ojnl7B02YsXryqJiO6+pJxClZa+3X/oUPu5Xe3jsWQeFAoEGEfANs7FbyhvsVis5HUZu4EACOgEgStc7pIuXf84dFSnV3SpZHuUUyiSlN25d3/Ssmmei7kYy2NmHgK9ZjIBm3hn8Y/cBVAoZKFAgF4E9ohES6ZOz36SA4WSVRIx1b4sKpJu3Lal6ayWNgnOTI4l6DsIMJCATaKzYCQ32NdXJ26s0UgQAAFlCGRwOOFt2+7e+ltxMalaYdDu0aiYhSJJWUbmreGLRjuFezEwhKDLIMBkAtZJTtwxnKl+fspcl7EPCICAThDYIxDM+e77B/88olMKilqzk1d0yVevStdsWC+eGmCdiEQU46phmCwQ6DsrxclnPDEOCkWvQRydCPNopJoIZBDEwubNd27ZXlhYUjHQ02CbolmostkNhiz60SXCGxVRCKsgwBwCrFQnr4nESH9/NV3NcVgQAAENE9gtECz8ZuDft+/RwJkqdYG6CvXqVWnyhjTfWYHWiZjdAIkoEGAMgXS2+xSfYY0aafgqj9OBAAiog8BVDie2efMtaWvpl4Ki7kBemehdunrtmwXfOS7zYM4tOHoKAiDgNt3nu8BGGRyOOi7oOCYIgIAmCRwUCKIGD7lx5Ual/A09XlI3C0WSsrwXhavWxvDm+rJSkIhiTBKCkQvDQZsqEnCd6T2wif9VKBTKoUBAxwlc43DSgoJ+Xr6yoKCYHs5UqReUViiJ5N2p8+e+mD/AIdqt4hUW2yAAAjQm4Brs/VVz/wtcribvlXEuEAABlRM4yedHfTPw3OnztFkUT5cUSip9/yznRXj8Us4CEYrKaRwy0TUQqEjAZa7Xly39TkOhdDwDofJ4jAPqFoEsgljfpEla2OKn2bmVzIM2LymdhSJJWUnJm+OnT3ce3906GWN5GMsDAUYQcJ7v2beN7zEoFBQKBHSZwBkud2XvPn8cOlpS8oY2zlSpI1RXKHlFVF7htAWzXOZjmk1GhM+K2QhsM5OA0wLPXu19D/N4unXPjdaCAAiUE8gkiPVi8fK5859mP6+kHXR6qQMKJZW+P3XmXNMvmjMznKDXIMA0AuxQjx4dfX+HQulyBqI8lGKDmQRO8Xih3bof+P0gnYTp477ogEKRpOz1a8m4qePdQjioiGJaNEV/GUjAMdyjW1fxLj6fmbEHvQYBXSdwgyA2+PlNnzTl5cuij7WDTu/ohkKRpOzM2QutR3Wwi3dhYERBl0GAUQQcI9w7dRdvg0IhCwUCOkggiyBO8ngLu3U/ffo8nWypyr7ojEIVF5MzIoI5i8SsVNSVoygKBOhMoOFS9/afijYJBLp+L472gwADCdwkiA1NmkTNmVda+rZK7aDTmzqjUCQpO3v+YtvJnexiXBl1R47OggDTCDgsc2vTR7geCqWDGQgGGgO6XJFAFkGc4nLDOne5fP4ynVSpur7okkLl5OTPW7WAF+qLRBTTYir6yygC9ivcPvlcmAaFgkKBgK4RyCKIjX5+MYvC8nILqtMOOr2vSwpVWvr24OEjHYO72cdgsnI6j+MwShfQ2Y8J2K1ybd5fmCgUVry7xTYIgAD1CZzncBZ3637i6Am6Tkdeyf90SaFIUvbwUfbcVQt8Fgo/vuziHRAAAXoQsI12aTJAEAOF0rUMBPUDPFqobgK/+vuvmBfy7GleJdWg60sdU6iSkje/HzrYKbi73Wo8modEFAjQk4BNnEvAQH6USKTuyz2ODwIgoEICFzmcWV26nj5+msbTkVdyQR1TKJKUZT/NDVsZ4RnMxRxR9Eg5oBcgUImATYKz3/f8SLFYhRd3HAoEQEDdBBIaNVq5KOz585dS6ftKqkHXl7qnUFLp+6PHj3ed1rPhcvdKV168BAEQoAEB6yQn0RBeOBQKA3kgoDsE/uDxZnXvce3ydYZUQZVJoe4pFEnKcnMLopKj+bP9sPYwDeIlugAClQiwUp34P/IWQKF0J3yqO72B41OcwHUOJz4oaG3UaoY8iFeeVNNJhZJK35+/fOXrBYPYkZ4YzqsUfvASBHSeQDqbM5I3x9eX4mEDzQMBEPiTILIIYg+fv/zbQdcZloIiSZlOKhRJygoLS+I2JPnODrROdNb5gLGGnkXB+LuAQJ0JeI/mzvTzzUIaBgRAgPIELnO5Ca1abYhPys9/XZ6eYciGriqURPLu+s3MH0NHOi33qvNlGl8EARCgJgGvcZypjXxvcDi4ywcBEKAygSyC2CcUxowYmXkjizlV5OWCqKsKRZKygsLi5E3pjYObs1Kwah7yWCBAKwKeE4iJjcVXoVCUz0BQObqjbRogcJXDSWzXfmvqmvwXr8rFgjkbOqxQEsm7W7fv/jhvpNNST2reSaNVIAACdSPgMZn4qan4IhQKCgUCFCaQSRA7RKKYMWMzrmcy6kG8ckfUYYUiSdnr15LNO7c3HdMCiai6BSp8CwSoScBtms+o5uJzUCgKh08NZDhwCooTOMflLmvffsv6XwpeFpVbBaM2dFuhSFKW96Jw6Phhrgu8qRkJ0CoQAIE6EHCb4f3jJ+JTXC7FQwiaBwKMJXCTw/nV33/ZtBn//POIUdpUsbM6r1BS6fuz5y5+MqyNTTwezaNVNUwd4i6+QhsCrrO9hrYWH4dCIQsFAlQlcILPD+/eY//e/RWVgmnbOq9QZX+w2RHziDlCVhrqymFRIEAHAi5zvb5rKzoKhaJq+GRs6gUdLyNwjcv9uWnT2EVheXmFTNNQJ1yJAAAgAElEQVSmiv2liUJdv5n56bQ+jlEemGmTNnkIdITJBJxCPL/pIDrI4yFigQAIUI1AJkEcEgqX9v/qyoUrFX2Cgds0UajCwpKY9AS/eU1skl2YHHjQdxCgBwGnRR79O4n2QaGQhQIB6hG4xuGktmq1Pi6xoKCYgdpUscs0USiSlN3I/PPbeYOdl6OunA7jOPTwAPSizgTY4e6fdxXthkJRL3xSLSOC9miYQBZB7BcKFw8e8mfGrYoywcxt+ihUYWHJuk2/NJ3TyiYBdeWwKBDQbQKOEe69ugt/4/M1HB5wOhAAAcUEbhDEynbt1q3bUFQkZaY2Vew1fRSKJGW3/743PnSyWziHlYq6ct2OoHXOXuCL9CDgsMytx6fCrVAoZKFAgEoEsghim0CwcMKkJ09yKpoEY7dppVAlJW/27t/fcWpX+5Wu9Agk6AUIMJOAwwq3Lr2EvwoEim+I8SkIgIAmCZzjcH5o1er40eMMXA6vSk2klUKRpCw3tyB8RYRwbiPrRCSikIgCAV0lYB/l0qGvYAMUikoZCE2GapyLggSyCCKqcePYFVGoIi/XKbopFEnKrt3IHDRvsPNiL1aarsYPZiYe0GsQKCdgF+PSpp9gHRQKCgUClCGwWyCY3e+LJ4+flQsENmioUEVF0nVbNrSe28EuBsN5kEgQ0EkCNnHOn/QXpAmFFLwXR5NAgIEELn5YDm/n5m2oIq8ojjRUKJKU3bl3f/qqYG6oGHXl5bf12AABHSJgnejcbIAgGQpFmQwEA6UBXS4nkEEQm/z944PnPHzwpKJAYJueClVUJD10/Ohn8z53WOWuQ2EDTQUBECgjwEpxajxQEA+FgkKBAAUInOZyF3z62fHDfxQXk9CmigToqVAkKct+mrsidZV4eiPEJBAAAd0jkM72H8SPEYnK74OxAQIgoC0CMS1arImOzcnJr2gP2CZJGW0VqrT07bUbGYPmDHEM9dC9+LFGJ+tXwBkEVEYgne03mLfSV5hJgVtwbcUtnBcEtE4gkyC28fmLBn2XefNPONPHBGirUCQpKygs/m3vruZjW9nFoq4cTgYCOkUgnS0exlvqL7oBhQIBENAegZM83oIOHbdv/e3Vq9KPBQLv0FmhpNL32dm5YbERPtP4rBRME6VTERR5OIYTSGeLhnPDA0TXOByt34ijASDATAJXOZz0Jk0SQ8OfPs2DLVVJgM4KRZIyieTdjYysAbMGOkd6qWyIgeGxDd0HAQ0QSGcLRnEXNBZdhUJpLwPBTG9Ar8sIZBDETj4/4puB1y5dw1zkVfoTnWuhyjtcXExu2rHVf3ITm0QsP4xEFAjoCIF0Nn8sZ06Q8BIUCgoFAtogcJHLje3cZcu6DRjCK9eJjzdonoUq6/DDR9nTwma6LeYgEQUCIKAbBNLZ3HHEzGaiC1AobYRPZGIYTuAmQfwaEJA4M/jenftIQX1sTuXvMEKhJJJ3x06e6jymm02ci27EDw0MlOAUIEBlAulszkRiSnPhOSgUFAoENEsgiyAO8/lLv/jyxOE/SkrelOsCNj4mwAiFKns6Lzo21n9KE+tUDOfpyFAOlQM82qZuAulsnyk+41uKznC5DM8HoPsgoGECl7nc1W3apMcl5uYWfCwNeKciAaYoFEnKnj9/+e3o71xDfVhpeDoPFgUC1CaQzvae7j2mlegUFEqzGQgNR2ucjmoEbnI4v/r6howZ++jRUwzhVbSlKrcZpFAkKTt16lz3cZ/Zx7g1SKd2/FD3LT6ODwIUJ5DO9pzlPaKN6AQUCgoFApoikEkQhwSCWd26nzl1rkpjwJuVCDBLoUpL30anxTWaEWQTj+E8SCQIUJhAOtt9jtfQdsJjUChNhU+qpUPQHs0TkD+F17btuoTk168llVwBL6skwCyFIknZnTv3x4VO4oSLWakYzqNwBKV4jgTNUz8Bt/megzqIjkKhoFAgoBEC8qfw/P1jp898cP9xlbqANz8mwDiFKi19e+T48Z6zezuucMfTeSAAApQl4LrA4+tOwsM8nubvxXFGEGAggT+43JBevc+eOCORvPvYFfBOlQQYp1AkKcvLK0xKTQ2Y1ZSVjEQUElEgQFECzmEeX3QRHYRCaSQDwUBjQJcrEYhs0SIxLiE//3WVroA3qyTARIUiSdmtv+5MWjzVaz7fGmvnqX9EhrJ5DjSMygTYi917dxPuh0JBoUBAzQQyPgzhLZ024597D5GCqlKVqnuToQolkbw7euxEv5n9XSK98XQeleMo2sZYAo5L3Xv2EO2DQqk5fFZKReAl0whkEsRuHm9+vy8unb1YWvq2OlfA+1USYKhCySfbLCj+eevGFjPb2K1yhUUxNk6j45Ql0HC5W5dPhXugUFAoEFAngVM8Xni7dtt+3lhYWFKlJeBNBQSYq1AkKcvOfj4/aiF3ltg6CUVRFC2IoWyAR8PUTcA+yrV9L9FOPp9pWQH0FwQ0RuAGh7O2WbPk8Ignj59hIk0FqlTdR4xWKInk3aWr14aFjXBdSiARpe6IiOODQK0I2K12ad1H9BsUSp0ZCI2FapyIggQyCWKPr2/0yFE3Ll9HCVR1kqT4fUYrFEnKCgtLNu/e3n5aF/sYzHGARBQIUIiAbYzLJ/2EmwX8LDgECICAqglkEcQJHm9Zt+6/b9n+CkN4pEyxKlX3KdMVSip9/+RJzoqkVb4zGmM4r1ZJAuwMAmolYBvj0uJLwQYhFIqgYAIDTdJ1Apc5nNXNmydHLsdaeNXpkTLvM12hSFJWWvr277v3R8wd7Rrs0yCNQnfhao1PODgIUJyAbaxLswGCdLEgU9X337oe/NB+EKgngUyC2NioUeTkqRkZtzCEp4wqVbcPFEqevistfXvhwpWeI3uxl3tSPK6geSDAEAK2cS5BA/lJvoIMKBQIgIDqCGQRxO8CQdgXX54+dgol5NW5kZLvQ6H+NwJaUvJmy67tzae0so1xYUiIQjdBgMoEbOJcGn/Hj/WHQmEgDwRURiCLIE7yeMvbtdu69mf4k5KepGA3KNS/RWTPc18uiAoVBPtbpzhTObSgbSDABAI28c4BQ3hRjQQ3VXf/Xc/hD3wdBHSdwGUOJ7lZs5gFi548fqbADPCRkgSgUP8qlETyLiPj1ogFo10X+2COAyYEafSRygRsEpz9f+AuDRDcgEKBAAioiMDORo2Wj5tw7epNlEApKUmKd4NC/atQZUVRB44e6TC6i120CyyKyvEVbaM9AZsEZ98R3LDGwhscjq7f+qP9IEAFAif5/MX9vjiy/1BJyRvFZoBPlSQAhfqPQpUt/JKQkNxs0ic2iSiKwvOJIKA1AtaJzqLRnPlBwutQKBVlIKgQxdEGbRE4x+WGNWu2JiFZSTnAbsoQgEJVVqgPC7/kzlkynz/bzyYBRVFai6C0z7Kgg4oJWCc5C34igpuKrkGhoFAgUD8Clzic6ICAhTNm5eUWKGMG2EdJAlCoKhSKJGWZf/714/yRPmFCVgqWz4NFgYAWCFgnOfEmENOaia5CoeoXPrWV9sB5KULgBkFs8PMLGTnqzp37SpoBdlOSABSqaoUqLX17+Ngf/UIGOC/3RlGU4mwBPgUBdRCwTnbiTPaZ0AIKpbIH2ikS0dEMTRLIIojDIlHEwG/PnDyLEnIlxUj53aBQVSsUScpeFhSv2/pLi+lt7aNd1REhcEwQAAEFBFgpTj7TfMa0FF1BFgpZKBCoK4GrXO6Sjp12b9n++rVEeTPAnkoSgEJVq1AkKXv06OmS2GV+sxrbJKG0XAtDOQriKz6iPQFWipPXTO/hrcSXoVB1DZ+azHbgXBQkcIPDWR0YmLgk8kVeoZJOgN1qRQAKpUih5DNFZd6atnQWESK0TkZRFCwKBDRHgJXq5Dnba0hrKBQG8kCgLgSucTjJYnHYT+P/uXMfE5HXSoyU3xkKpUihSFJWUvLmzIWLA+d85xzixUqFRWkugtI+y4IOKibASnNym+c1sI34ErJQyEKBQC0J3CSIDULhvG8HXbpwBbNAKa9Etd0TClWDQpGkrKhIuvfAgd7B/dgrsAgxFAoENESAlcZ2CfHs3058EQpVy/BJwRElNEmTBDIJYp9AENrvi6MHDhcVSWurBdhfeQJQqJoV6kNpedHazT+3mtneLh6l5RqKoIpTFPiU/gTS2U6LPPq2h0LVZRBHkwEb56IagXM83oqu3bZv2JSf/1p5G8CedSAAhVJKoaTS99lPny9OXCqc5m+dhOE8WBQIaIIAO9y9Z0ff88hCIQsFAkoTuMrlprdtu35F1OOH2SiBqoMV1eorUCilFKps+bzMrL8mhEz2mSNkpWkiftA/zbAGGEFAEYGGEe7dOotPc7lUu8tHe0CAmgSucjjrGzdOnDX7Vsat0tK3tbIB7FwHAlAoZRWKJGXFxeSVqzcGzfjeI5QDi4LhgYC6CTRc4t65m/gYDwqFsTwQqJnAdYLY5Ou77Icfr56/XFxM1kEI8JXaEoBC1UKhSFImkby7lpHZcXQXx8XumLVc3REUx2c4AYdI9449RQf4PGre8aNVIEAdAjcJYqdQGNHvixNHjhWjhJysXWSvrTmV7w+FqjXokpI3O3bvbjm6tcNqd4ZHOHQfBNRKwGGZW/tewt1QKKXrYKgT0dESTRLIJIhDAsGSrt22//IrZiEv9xsNbEChaq1QJCnLyytMWpfabFZr23jMWq6olkWt8RUHpz0Bh+VubfoKtwv5moxGOBcI6BaBLII4weNFte+wZnXM06e5GvAGnKKcABSqLgollb5/kp2zKDqcN0OMWctpH8jRQW0RsF/p1uoLwSYoFLJQIFA9gYtcbnzLlnGLwm7fvoeFhMvlRjMbUKi6KFTZ3+buvQcjp4/2DOayUjDNAXJRIKB6AvZRri2+EqwVIQtVcymxbiVO0FpVEbjG5aYHBkZMm5Fx8088gqcZbap4FihU3RWKJGVZWbe/HfmdRxi3AaY5wAwFIKBqAnarXJt9w08WC1QVb3AcEKATgZsEsdXPb/aIkdeuZWAKqIpmo7FtKFS9FIokZWfOXvg6eKBbJIEV9LQ13IPz0pWA3WrXoEH8WF8oFLJQIFCZQAZB7PPzixg85NTJsxozBpyoEgEoVH0VqrT07a6De3vM6e0U6cVKw4ie6kdz6OoH6FeNBGxjXAIH81b6CemUOUBfQKD+BLII4phYvPKrAYf27sf4XSWt0eRLKFR9FYokZS9evErbuK799C4NV3qw0mFRsCgQUA0B21iXRsO4S/xF9Q85OAII0InABR4vskfPHRs3FxYUa9IYcK5KBKBQKlAo+Qp62c9jUxJbTm9nH+tW4701dgABEFCGgE2cs+9w7iIoVPVPY9FJC9AXJQlc53IXfPJJelzCq1ellSI6XmqYABRKBQpV9jd7/PhZZOyKoLmf2Me5KhMesA8IgIBiAjbxzqJRnLkBYiVDC3YDAdoTuEYQEc2aRS4MRf24hm2pytNBoVSmUCQpu//wyYLYUL+5TexiXbH8i+LoiE9BoEYCNonO/LGcGVAoZKFA4AOBK1xuXNOmq+cvwBJ4VQqN5t+EQqlSoUhSlpF1a+rymcLZjWzinWuMENgBBEBAAQHrJGfueGJSoC/tUwvoIAjUSOA6l5sWFBQfPOfpkxzNuwLOWCUBKJSKFaq4mDx/8fK4sEm8+b6Y5kBBdMRHIFAjAVayEzGJGNsYClX5gfYawy12oB+BtQEB0ZOm3Ll1Ryp5V2U4x5uaJwCFUrFCkaTs9WvJ2fOXRi0c67GAU2OQwA4gAALVEWClOnlN9RneBAoFhWI6gQ1+fmFDh/15IwtLuGjekxScEQqleoUqs6gTZ858EzzIbRGm3FTN8+3VRVm8T2MCrDS2xwzvwUF+9MsooEcgoCSBmwSxxc9vwTcDr56/XFLyRkE4x0eaJwCFUotCyS2qSHL01Mn+875xCfXGiB6Nwzy6pkYC6WzXYO9vmkKhmJ6DUdI26LfbDYL4zd9/1feDz584U1Qk1bwi4IyKCUCh1KVQJCl79ap07+EDvWd87hTmyUpHMgYEQKDWBJzneH3Z3D8DD2SBAPMIZBLEbj+/2EHfndp/qOi1RHEsx6daIQCFUqNClU1cvmPv7i5juzssw5SbtQ6fakxvqHpBXDRVTQSc53l9/onfVQ6HfgkG9AgEFBPYLxKt/mrA0Z17Cl4WacUPcNIaCUCh1KtQJCkrKCjevnNn28EdbGNc1BRmcFgQoCsBpxDP3m38zkOhmJeDUawX9P40iyCOCIVLP+u159etL/Nf1xjIsYO2CECh1K5QUun7goLizdu2tR/TuWG0B6bcpGuwR7/UQcBpoedn7X1Pcrn0DpnoHQiUE8ggiMNi8ao+fXds2JSXW6AtOcB5lSEAhVK7QpX9GV6/lvy6Y1u7KZ0do2BRGNEDAWUJsEM9enQSH+XxygMMNkCAxgRuEsRhX9/4fl/sWP9L7vOXykRx7KNFAlAoDSlU2UwHv+zY3GJSW/tVqItSNoKqI7GBY+oQAcdwj65dxfuhUBjIYwCBTII4IhLF9um7fc36nGcvtGgGOLWSBKBQmlOosmf0EtemNh7X3DYWdVGwKBComYBjhHunHuJdfD6NEw/oGgj8SRBZBHGcx1vevccvqWuePXuBVYSVlBjt7gaF0qhCkaTs5cuilatXBYwOcljl1iCt5hCiQwkDNBUEVE6g4RL39p+JtkGhGJCDYbJIZRDEUR4vvEPHlPik7Oxc7WoBzq48ASiUphWKJGXPn79csTKqxcTWDVd4sNKcVB51cEAQoA0Bh2VubfoINwoETI6v6Du9CWQQxEEeL6xDx4TY+Ozs58rHb+ypdQJQKC0oVJlFxSbHt53ekb3CC7ko2sR7dETlBOyXu33ST7gOCoUsFE0JZBLEYR4vvH371LiEZ6h/IrUTkeusYlAorf3Bnj7NS1yb2mFWV8coT8x0oPLQiwPSg4D9StcW/QUpQiG98xDoHWMJnOLxwtq1S49LRP14nT1Gi1+EQmlNoUhSlpOTn7wmrf2Mzg6r3WFR9Aj56IVqCditcg36WhAHhaJpDoax5lTW8csczpyWLROjYwsKirXoATh1nQlAobSpUCQpy87OTVmf3nl2d+cobxaqy7HuCgj8l4BdtEvjb/lRIhHDYy26TzMCWQRxUiCY16Fjalzia6x/p2vjd+XKBYXSskKRpOzp07w1v/786cK+bis5rFRUl+MpRRD4l4BtrEuj7/lLxWKaRVB0h8kEMgnikFC4+NPPtq7/BZMXlOuILm5AobSvUPIRvef5P+/Y1GtRP5dlPhjRU+1IEI6m0wRs4p19h/LCoFAYyKMLgSyC2CsQhPf9fO/W34qKpLroDWhzOQEoFCUUSv6MXt7LTbu39pzTx3mpt07HPDQeBFRIwCbBWTicN9/Xl8lJC/SdTgT28nhTu/fYu2P3y5dF5ZEYGzpKAApFFYUiSVn+y9fb9u3sMb23a4QP6qJUGIZxKN0lYJ3sxBvJnQWFoksOhk4yVNu+ZBLEDoHgp44d9+zc8/JlEYbwdFSbKjYbCkUhhSqbu3zvkQP9Q77xDOdapzrrbuRDy0FAJQRYKU6csdypfn61DVfYHwQoReA6QWz19Q37sv+Bvfvz81/DnyqKiO5uQ6GopVBl6+gdPnV88OJhPqECWJRKwjAOosME0the4zjjoVDIQukygatc7ubGjWN/HH768B8FBcXwJ911pkoth0JRTqFIUvb6teTkhXM/ho30mS/Q4eD336fT0REQqBsBj4nEaH//TF2OoJRKh6AxGiZwhcNZ16RJ7PiJF46ffv2qtFIMxkudJgCFoqJCkaSspOTN9YzMobN+9JnBr1vgwbdAgB4E3KcQwwP9bnA4Go58OB0I1J/ARQ5nlUi0ePzEi+cvF2H+J52d/6k6z4NCUVShSFJWWvr2zr37o+eO5c/ws0lGXdS/cwXRwwzQCyUJuE33GRbkdwUKhTycThHIIogzPF5CUFDYhEnnz1/G/JnVWYhOvw+Foq5CkaRMKn3/5GnO3KgQ/1lN7OLdlAw52A0E6ETAdab34OZ+56FQOiUQ9c/f6PQRMgnilECQ2r5DyvwFGTeyiotJnRYFNL46AlAoSitUmUVlP3u+LCWq6fSWdvGudAqN6AsIKEPAJdj725a+p7lcnY6paDxzCGQQxFGBIL5b919WRN29fU9S+ra6AIz3dZ0AFIrqClX2C8vPfx2TGt9qbHv7OFgURvSYRcBlrteA1uLjUChkoXSBQAaHs5/PD+3UeU1swoP7jyWSd7puCWi/AgJQKN1QqLI/Yeq6tV1Gd3eK8sLEm8pkL7APPQg4z/f6sp34MI/HnDQGeqqjBDIIYp9QOKdT5+Sk1JycfAWhFx/RgwAUSpcUiiRlO3bvHjDnW+8lAhSY08MP0IsaCbAXevbtKN4PhdKFHIyOqo9Kmn2dy90VELD86292b/2tsLCEHoqAXigmAIXSMYUqKXlz+I8/RoSN4S/ys010wZrENQZg7KDrBNihHr06i/dAoaBQFCZwlcNZFxi4bNToE4f/QPG4Yu2g06dQKB1TqLKJN8+dvzQpfJpwpr9djCssStcVAe1XTMBxsUfPbqLf+HyVpApwEBBQOYFLHM5KP78FY8ZeOH+5qEhKJ0VAXxQTgELpnkKRpEwieZf15+25ofMbTWhiv8INpVGKYzA+1WkCDZe6d+0p2gKFonAORuVSokMHvMDjhbdoETJ56qNHT1E8rlg46PcpFEonFarsh/jwYXbk6uUtp7RjR3qxUp10Okyi8SBQHQGHZW6degk3CgQ6FFbRVCYQyCCIAwLBgk6dU1bHYNk7+umRMj2CQumwQpGk7PHjZ8kb0j+d09c9nGOdDIti1tP+1TkHzd63X+Haro9wHRQKWSgqEcggiN/E4oW9em9ct+HFi1fKhFvsQz8CUCjdViiJ5N2zZy927N89aNEQIkRkm+BCs/CJ7oCA3SrX1v0EaVAoKgkEE5JMCvp4icNZGxAQOXTY8QOHX7x4hRQU/dxIyR5BoXRbocqmLy8oLD576eKkZdP95wTZx2EdGOSiaEXALtq1RX9BklCoIKThIxDQGIEzXG6or++y6TNvXL5eXEzCn5S0DVruBoXSeYUq/13e++fh4vjI5jNaO6yGRdHKIRieiLKNc2n6jSAWCoUsFAUInP5QPB4dGn7v3kPIU3n0YewGFIo+CiWVvn/w6EnSz2ndZ3zmtBgF5rAomhCwTnAO/Ja/SiTSWJoBJwKBjwlc53B2CoXLevfZnJz2GA/fkfQJnfXxPygUrX4HEsm77OzcrTt3fDl1gHuwj3WiM8MTGOg+DQhYJzv5fc9fDoWiQA7mY7FgwjtZBHGBy/0lICD062/2bNvxLDsX+af6aAedvguFopVClZVG5ee/Pnn67NiF4zlThLaxKDCnSTKGBjJUty6wUp3EQ3gRYjETojX6SDUCmQRxnMdLadMmbsq0MyfO5Oe/hj/RyYHq2RcoFN0UquwHUVLy5s69+4vjlwSMbyovME+HRoCADhPg/8ALhUIhC6UNAod5vGXt2ydGLL1z+15p6dt6Rlx8nWYEoFD0VKiydNSL/FdrN/7cfdxnTss8MWtU3VIg+BYVCHBHcEP8xRnaiKBUS4qgPRojcJXD2ScWR/bq/XNiysOH2Zh5nGb2o5LuQKFoq1Blv4/XryUHDh7+fspQ75l8uzgsqKfDmRgqqIy22sAZzZ0TIL7O4WgsfOJETCaQRRDneLz0xo3Dh4/Yv3vfi7xCDN6pRDjodxAoFM0ViiRlJSVvrl3LmB4W3GhakGOUBwb1tOUBOG+dCRA/cWY2Fl+BQiEPp34CmQRxRCCIa98hdvbcC+cvv34toV/gR49URQAKRX+FKluW+NGjp3Hrk7tM7+myzAcL6tU5luOLWiHgM4GYEiS+BIVSv0AwOflU1vedQuGcrt1+Tkx5cP8xBu9UpRp0PQ4UihEKVfbzlUje/X7o4HcTB7sHc2wSMN8BBvV0hoD3ZJ8JzUTnoFBQKHUSuM7hpPn7T/qy//49vxcUFNM16qNfKiQAhWKQQpX9bq5evTk9JDhgatOGK91ZaToTRLWS/MBJKULAc6rP2JaiM1wuciQgoA4CGQRxlM+PaNFi7rQZWVm3VRhicSh6E4BCMU6hSFJ29+6DmLT4HvN6eS3l2yQjHQWPpDoBj5neI1uJTkKh1JmDUYea6MQxr3A4m/38ln3x5cak1CePn9E75KN3qiUAhWKiQkml73NzC/Ye2T86Ypxwlr/9akwcRXWHoEg2SFvNcA/2/qGN6BgUCgqlUgKZBHGKx4sNClo2avQfB4+8zH+t2viKo9GeABSKiQpV9rMuKpLeuJm1ePXSpuNbsiM8UGOuLT/AeWsk4DbXc3B70REeTyeyGmikThC4SRA7+Px57dqlr4j6+9YdPHlHe91RRwehUMxVqLLf07NnLzZs3vT5zC99QoXWGNRbg3QUFQm4hHgO7CA6CIVSaQ5GJ0RHTY28yOGsDwwMG/D1ji3bc3ML1BFccUwmEIBCMV2hSFJWUFB84uzZ6cuDm8xs7rDcDemoGpMi2EHDBJwXenzVWfg7FAoKVW8C1wniqECwunXrqOkzz5869/JlERMiPfqoJgJQKCiUnEBxMXnr9p2Y1ISuU3t6LuKixlzDioDTKSbgFObRr6twDxSq3gKhpqSOThw2iyDOc7m/+PlFDfh6Y2zCn3/+XVQkVVNkxWEZQgAKBYX6HwGJ5N3z5y+PnjoxIXJKo1lB9qtQY07FIS3FqkHXT9kR7r27C3fy+ToRqtFIChLI/DBtQXLr1lHjJx4//EdeXiGmzWSI5ai1m1AoKNR/CEgk7+7+8zAqbnXzIR9qzNOc6BqV0S8dItAw0q3np8LtUChkoepE4DqHs0ssDuvWPXlV9D93H5SWvlVrWMXBmUMACvUfgWDOH15BT6XS9y9evNq7f/+3k78XzQuwj0V1FNJRWibgsMK1Sxy87ZkAABt+SURBVC/hFihUnQSCgjkhjTUpkyBO8/nxAQFhY3/atX0nKscVXPnxUR0IQKGgUFUTkErf37l7PzJuRacZ3d3DOTaJLlifWIfSNjRrqv0q1w59hJsEAo2FXpyIBgSucbk7/PxW9ei5Mjzi+vVMqfR9HWIkvgICCghAoaoWCAXIGPVRTk7+jr27fwgbGRjS3CHKjZWCcT0t52No5kZKdscuxqVNP8EGKBSyUEoTOMfhxLdosWT4iP279uY8ewF/YlTk0lhnoVBQqBoIFBVLb92+E5UU3XF8V9cFPtaJWBAGFqVpArbxLi2/FK6DQiktEDTIIdWnC9v4/MFNmyavir535z4eu9OYTzDwRFCoGgSCgb+JKrtcWFhy8NCRocE/+s5u3HCVOwb1lEyfYDeVELBOdG76lWCNEAN5RH3EgvbfzSKIcxxOWOPGEwZ9d/H85ZKSN1VezfAmCKiKABQKCqUsAYnk3e0791anxvaY0ctrEc82AdVRmk7GqERHdPEg1knOjb8RJIuEWUjDgEBVBLII4iKXu9HXd9Hn/dKiYx89zFZVjMRxQEABASiUsgKhACJzPpJK3+fk5B84fHjSsqmt53RwDPewTkZ1FERK7QSsk50CB/HjxMKMqsIn7ZMr6KBiAtc4nJ0CQVT7DsunzTj5x8mXL4tQ+cScqKTdnkKhoFC1JlBUJL33z8N1mzd8FTyQN9vXLtZVFxMbaLMOEbBOdmo0mLfaT3gTCgUC/yVwnMdLCQpaMWTojg2bHtx/XFxMajem4uyMIgCFqrVAMOr3oaCzhYUll69dj0iIbDGiFTvUQ4fiMZqqcwSsk538hvGWNRJe/2/4VJycwKf0JnCFw9nq57e4c5e0JZHXLl4tKChG8knBFRsfqYMAFAoKVS8COTn5e/ft7z9hQMC0IPsYV1aa2sd0dC78o8H1J2Cd4iT+kRsRKLzG4dBbC9C7GglkEcR1gjgkFMa0bLl09JiDu/dlP8nBai3q8AMcs0YCUKh6CUSNfJmwg3xc7/7DuPSkTyf38V4gsI13qX/IxBFAoCIBVoqTaCRnUWPhFSgUs/NwNwniJI+3oWnTlV9/sykhOTPj1qtXpUy4zKKP1CQAhYJCqYZAbl7BiTNnQlaHNhvXyinUUz4JZzoyUiCgGgKsFCfBGM68IOFlKBRTFSqTIC5yOLv8/KK690gKWXjy6PFnz15QM6yiVcwhAIVSjUAw5xejoKelpW+zs3P37T84cMog/8lNGq70YKXieT3VOETFlAwDt1kpTrxxxKxmwotQKEYq1A2COCIQxLZqtWT0mH1bf3v44AnKxhVcivGRxghAoaBQKiZQWvr21avS5JS0ToO7eIZwbeNdUCDFQOlRbZdZqU7cicTUFsILUCiGKVQWQVzhcn8JCJjzxZepMXEP7j9GzbjG/AAnqpEAFErFAlEjcYbsUFLy5sKlKwsiQ9tP7+IVzreLd2WlISOFjFQdCbBSnYgpPhNaCs9BoRijUFkEcZnL3enrG9a1W2TIwrOnzmGpFoaEDx3qJhQKCqVGAs+evdiz9/fJy6a3ntfRY4k8I4UCKdWmZxhyNFaqk8907zGthGe53Bqf2MIONCBwhcPZIRIta9s2cvrMg3v35+Tk61BYRVOZQwAKpUaBYM7PSEFPJZJ3d+892PjblhGLxwTNadlwMSY0r2MmhiG2VGU3WWlOXrO8hrcRnYZC0T0LdZMgfhcIlrVsGTlq9P6dex49eqrg8oKPQEC7BKBQUCi1E5BK3xcVSf+6fTchPeXLmV8LZzdyWOGGcb0qXQFvVkmAlebkMcdraFvRKSgUfRUqkyD+4PGWN2kyo1fvXb9uffwwG+sEa9cPcPYaCUCh1C4QNf4NmLNDUZH0ytUbKxNXfTajL2eeWL4yDCY+WIOkVM0EWGls93megzqITkCh6KhQmQRxgctNDQyc/elnaz/UjKPsiTlxQad7CoWCQmmawLOcF8dPn14UE955SjevRXw7+ZzmqDSvWSOqTM8w5E1WOtt1gceAjqJjUCh6KdQNgjjN4/0SELCs3xfJC0MvnLmQm1ug0zEVjWcUASiUpgWCUT+v6jpbUvLm4cPs/UcPzY1Z0Cm4u9dCvm0c5jSHRVVPIJ3tHOrRr7PoDygUXRQqiyBO8XhbGjWK7tM3efbcE0eOZT9+htmeqrtm4n1qEoBCQaG0Q6CsQOrho+z9fxyatXJO07EtXRf5YCpOhmSVat3NdDZ7sXuvrqKjPB4NHjdjeBcyCeIcl7tVKFzVtVvczOAje35//OgpRu6oqQholWICUCjtCITivwpzPpVK35eUvMnOzj1y/PiIaaOE3/g6RLpBpGptGAwoqHJc6t6jm+gwFEqXs1D/m+pJIFjZrt3sceN3b/0t+0lOaelb5lzx0FOaEYBCQaEoQaC09G1OTv6ufXuH/V975+HVVLr14b/ggoBKL3pOekIQFBgQ6+dVx7HNjHotM451UAEdxIaghC7Sm3RBEVSqiIiCgKgoKiBVURTEQhFCSQKJit+30Hv91r2Oc82MkIT81nK59Bhy9vuck3c/7vfNPk6bzZwsdAMI1ShttDWHS30kMD5Ab+5C5mUolGIqVANB3CXJi2x2xMxZ7tt3pCanPn/ejj7jY8wnlHA4UCi5EAglvPM+HbJE8k4sHnr2rC01/ayd+y6zfRaGvlS1CB1sNv+oEcr8B40g3VmLmBehUAqoUBUkeY7NDrG2DtjlmJZypqmpBZWnTydAHFFEAlAoKJTcERgcfPv48dPsC+ftvHdZ7rHR9ybVwrHZ/PNbrZVgFe9viZoawbo2Sxjn6NgLRSjQVqpKkjxNp3tbWwfs/C03I/txUwtaPSmiKCDmzxGAQsmdQHzuUinb8cHBt62tL7Pyzm9ztTd3mq7rMRnf2lPmKpR6iK71ckY6g6ZAAqHMod4lyWQm097U1MvOvvhS4Yvn7ag8KdscrgzjhUJBoeSdQGdnT1pW5m+H9ljutjZwI1VjtNGQUwldSj1U95sV9BQmrUEBV7KUx6UaCKKKJE9xOPttbNwddt28fqunR4g9T8ogE8o5RiiUvAuEct6Xn476aeuL7Au5e/wPzHdeNMmNrhGmpxKHhpxKtLqnHqZjsYqexKJDoeRQyIbNiUIpodGSTU2PfLc4wtmltKCo7eUrVJ4+ncpwZCwRgEJBoRSGgEj0uvnp88KSYtdw3veHV9JcOZoBhuiAoCQVKbUwnWlraLEcKJR87YWqJ4g7JJnPYCRZWYWtWRvv5XOtsLj16QuBQIzi01hyBYzldwlAoRRGIH73+inhQZHodVt79/Xy8tATx348uIrlyJ1wxADtD8a8SKmF65j+RIswhkLJi0LVE0Q5hZJDp8dYWYVt2JgSHHr7+q22ti6hUAJ5UsKZWTmHDIWCQikkAbF4iM8X1D9oTMk4s3zHjxxb04l+BsNLe3hu8Rj9gp5ahM6UX6hBXAYW8mS+kDcsTyR5nsmMmDnTc/OW4xFR1RXV/O5+sXhIOfMoRq20BKBQCikQSnu/fjpwoVDS1t51NjNj467Nljun6/uRGhHvt0nBpcaWS6lF6nA3UfxMoFCyrELVEkQZlZrJ4QTPmetlv/NU4smmR80wp0/nJRxREgJQKCjUWCAgFg+1t3efy73g6uv2rctSFm+KdqCRWhTaco6d/ebjjmmzt1I8p0ChZKNQ90jyEo2WMGXK0WXLA3ke57Jymp+0osmTkogChvk5AlCosSAQn7u6Sni8s7PnWtmtsMTInzx+sXCZrudNaoTqqeK7e4pfkRoXpc3cRh42Y9ajqcEoEqgniDIKJZXJPGJp6fvLhuOR0WXXb3V29ijh3IIhg8CnBKBQUKixRkAiecfnCx40NqVkn93p6Thv/0LiIGOiv4FqLJogKHBRSjVam25HOk+FQo1SFaqOIAqp1HATk4Nz5oQeOFiUX9DS/Ky/fxBbxT/NoziitASgUGNNIJT2Vv504BLJu+7u/qKSUt+Qoz/sW8XYaazjNWm4M6fil2SUcAiqMdrUnYTTNBaqUCO9nbyKJDMYDN7UqY7fLkoKDa+vvd/DF6DD06czDI6AABQKCjXGCXwQqYrK6pSMs/Y+u+buW0DhsceH6KPLuWJ5mGqsFuk42cEcVagRqULVEkQFhXKFTk8yN/dZsDDYziE3LfPB/UevXvVitzhEAQQ+RwAKNcYF4nMXXgmP9/cPNjW1XC4pOhLr/7P7BtP9FrpukzRC9VQSsMCnAAt8KnFak5wm21qgCvU1FaqeICoplKtUaqaJSfT8BYE/rz8VEFR6paTpUXNvr0gJZwkMGQSkIgCFgkIpEQGJ5J1QKOno5NfUNZzNyXQN5s3b/S1tN3vCUX3VeG2VeE20lZLb0pRKvJbhvkmbLKFQX0GhGgiiliDuUCj5dHq8lZXfjysinPZeSMusq73f3tYlEr2WKovgxSCgtASgUEokEEp7l386cLF4SCR63dHBr7/fmHTm1Cq7NdM2fmN0mDq8wBeNzVLyWJRSidfSdzb6yQoK9VcVqoEgblMoKRwOb97fd6xZmxgaXlVR/aqzR4Su4q+RDkBAOgJQKOl4fZqMcUTRCUgk7wQCcdnN24c8eCt2/sPM2dLAhzo+VH/4G3wJ8igTclsoGtHAVBI0dV2N/mHNrhvFr/SP9MbtUXv/BoKoeb9md4HB8DQ337h0meu+A8VXSoRCiaJ/fhE/CMiQABQKCgUC/yQwOPj2QWPTqTOneYGey91WTnW1muzDGB+iPy5KG8/gG1E9+qI3P66p7Wb4/XQolBRVqHqCuEuSxTRaBpMZMWOG27qf3Jz2ZqVltra+RG8CGeZdnHrMEIBCQSBA4N8IDA6+bWvrun2n8nR2+oEwl1Xua6cdtjbgkRMCDdCi84tcZ8R6Rmh6GC6ewalBFeq/EWggiDskeZlOT2axIq2tQ3/ZEMXzOH8mvb72PspOYyZ5YyDyQAAK9W/pUx4uCWKQBwIfVvdevOyoqKo+lX3aLdzjR7fVTHtjI1eqWpiubE1Cac+u6WWwaDb7LkmO2vqXYp2o/r05FTAYyWx2hLV1+M/rE7x9806n1VRUt7d3CwVitCeQh7kFMYwlAlAoKBQI/BEBieSdWDzE5wsqq2vPXch1D/GasWEOc5OxlqeRSvz7bgh4nvGIlZ3+QxYnehss+B9WGRTq36tQDQRRRZIlNNpZFivCwsJ/7bpgd8+MlDNVFdVdXX1i8RDW7MZSzsZY5IoAFOqP0qdcXSoEI3MCg4NvOzr4jQ8fn8u74Oji9P3WH7hOZnrexMQQw3HROipxWtgy9R/S83X/OtFXf958VjGFoljFoRGKdnifE4VSzGSmc7lRNjaBP68P5HmkJCXfLq/o7OyBNsl8ukAAykAACgWFAgHpCAw3lxJJ+voGHjU1p2dle/v7bnLf+s2+mcY8M/0jw081VovSQbvOrytPH95twhH9ud8yL1GpIyQlCvG21SRZSqFkM5nRbHbg7DlBttvCjwZknE6rvHuvo4OPpTplSNsYo/wQgEJJlz7l58ohEpkT+PAffaFQ0vjwcVHx1biURFsfu+8OLLM8ZGPoTtU+OkktXAd1qa/oUhOO6s9azDxPUzqFqiOIWxRKLp0eZ2zsM3Wqz+Il4c4up5KSS4pKHzY+7u0VoeYk89kAASgnASgUFAoEvgIBieRdf/9gW1tXTW1DatbZwwHuWzxsp++bRTjSdXmT1cLgUl+hw9Z4fz2bZYx0Gk0hykV/Pch7JFlEo6Ww2f4mJjwbm4BNm5NDw0sLihrrGzs6+AMDb5QzaWHUICA/BKBQXyF9ys/lRCRyQmBg4E1TU8ulgsK4pMTffPfMtp03xXaaoTNVI0QPW6b+dF1KI1DP6gd6Cn1sKlQDQTQQRDVB3KBQcpnMBC7Xz8LiyLLlEc4u6cmpN2+UNz9p5fMFWKqTk884wgCB16//FwoFhQKBESQgEIhbnj6vqW3ILyw4Eu2/1cV28Z5lXOepel6EZoChRqTeuDhtlXjsQ/+iGpVGkK7lSnoig/7XCzzy8w4ftKmMSs3ncM5MmxZrYxO2dNmxXY5JYRHnMs+V37zT0vysr28AS3VI2CAghwSgUCOYPuXweiMkWREQCiVd3X3Pn7ffqag6k5UeEB60w3PnvP0LTfdbMNy5un6Tx4fqq0fqqsZq41HHnytTqYfoTltNi2Yy5EeA/nQk90jyKoWSxWDEmZgEWFj4f7c43H5nUkhYVnrWjdKyxsbHr171ouAkq08rzgsCX0gACgWFAoHRI/Chy5RYPCQQiJ89a7tXU3f5ypWQ4+G2Htu/d145y3UezZWj505o+hmpR+j+s+/UaHVd+py4yM9x9VAds3W0MBbzT4uLDH9weEs4SeZRqUkslp+JiYu5udviJSFOe1PjE4sLi6uraluan3V19Q0Ovv3CuRsvAwEQkDkBKNTopU+ZX2wEIIcExOIhoUjC5wsePmrOK7gcEhPu4nd4o/uW6Y6z6Xacyftpmr4GqtHa8uMxMoxELVxnynqqv4Io1Ifn0xVRqRkMRjSX62licnjGDN+16+K8fC6kZ927e+/50xf87v6BgTdYpJPDDyZCAoEvIQCFgkKBgHwR4PMFDfcfFpWUZubkBCeEbeVtm2+7yGrHTOYBrraPkUaYrtoxnXEx/+rkmaCpPAt/ahE6xhupPmyWDItJnzt1A0HUvu91eY1Oz+dw0kxN483NQ2fNClmxMtJp74mIYzlZOTev32q8/6i9vVsgEH/J7IzXgAAIyDkBKJR8pU85v10Q3mgSGBh409nZ0/L0RcP9h8XXriekJh3ydbNzdlhxcPU3B2YwD5rQPDiGfjTNYEP18GGvUo0e3pkuwyrRSJ963DEd1haKm3wo1LAwkeQ1CuUynZ7NYiVzOFGmpuFz5oatXhOxe09sQFByUnJe7sXym3cePWru7OxBD4LR/OzgXCAwOgSgUFAoEJB3AhLJu4GBNwKBWCAQt3d019U9uFJckp6VHZ4YtTto32q3dd8dXDaXt8CEN82IR9P1nKzlZ6QerDu8/De2nt83LkqbYUs6c9ifKwWN0PE6gqgkyTIKpYhKzaXTz3A4sWx2kLFxgLV14JKlodu2R7p7JsbEZ2ZkFxcWV9299+Tx01evekWi16MzieMsIAACsiIAhZL39CmrOwPnlXMCYvFQb6+ora2rueVZdW19flFhTGqCV6Svc5Drr747FrosNrGfStvOIp0YWoeNNIKG+1H97bjmcAOF4R4KClmsUo3Rpu4gnYw5I6RK9993ZqohyUqSvEWhXKXTLzIY6QxGEpsdbW4eNmdu+MpVkXYOCZ7ep6Pj8tKzyq6U1FbWtDxp7ezsEQolcn7DIDwQAIGvTgAKBYUCgbFDQCwe4vMFjx8/vVt579qNm/mXC+JOHt/n5bx4/VLrhdaWP1ixbbnEAYau12RNPwNNf8PxgXrqYbqqMdoqilCvUo3TIhxI+6+kUB9aWX78vZIkr1CpZ5nMaBOTo1ZWvIXfuq776eAOO9f9zkd9/U7EJ+bnXrxTXtHU1NLe3i0USrAH/KtnI7whCCgcASjU2EmfCnfzIeARJfBh+a+3V9TV3dfV3dfRwW9oeJh/qSAyNtrDx+sg79Bu770bvLd857ZsxoG53+yfYeFqw+VNIz2Yer7EBH/9CcH6E8L01SN0x0Vpq8Z+qF39q4j1vo41/Pi/0RUvlXitSb8Rv3KN/2sVqp4g6giihiCqSPI2SZZRqSU0WgGTmctmZ3C5KWZmxy0tI2bPCfh2keey5QdWrnJYvWbH+l/22jv48jwSjsXkZJ+/caO8oeHhy5ed2Po9oncp3hwEFJoAFAoKBQJKR+DDE/2ePWurq39Qduv2lZLS/IKC9NzsmDMJPvFH9wUf3OntaOe1a5Pn1u/dVs44MJfrZEZzZDP2c9mHTOkexqQ3y+gITddv8kQ/g4n+BpoBhlpBhhOC9NVDdNXCdNQidYbLWh83tn9YPYzTUo39/18qsVrDD7qJ1/zjxzCrJAy/bFys9rgYHbUoHfUI3UkOlHUm3FIarYRGK6LTCxiMiwzGBSYzm8VKZ7NTOZyTxsbxXG6MqWmkuXmolVXQzJlBf58fvGRp2Oo1kZs2xzjsOu5yKNU/MCvueH56VmlBUUV5ReP9Ry9fDKsSCksKncwQPAiMPgEolNKlz9G/yXBG+ScwOPi2v3+wu7u/o5P/sq3rZVtXa+vL+42PKqprbpSXF10tLSgsOn8hLzn9dNiJYx5RPrsD927ztd/ise1Xz+1bfbZv9vt1tffPS9x/mOsy32LPdK69GW0zi7aRxdxqbOxgyt0zles8leU6hcUzYfC4NHcO4cac7MYwcqUaHCD19xKGTuSk3TTCiU5xYtJ2s+i72XRHDsPRmL1nCnefmZmzpYWLjbXr7FmH5y2wX7TlxxXHVq6KWrsueuOm6F9to+wcYpz2xrkeTvDySQoMPhkRdTrxZPbZjIvn84oKi69fu3m7vOJeZU1D3YOHD5panrS+eN7e0d7d3d3f2ysSCiUDA2/E4iHIk/zfoogQBOSQABQKCgUCIPA7BD42Uv+oF4ODb0Wi1wKBuLdPxO8RdHX3verqbWvretLc2nD/YVV17a2Kiuvl5dfKb5bduX2nsqqiqvpm+Z2iq6U5eXmnM9ISTp2ISIgKjAn2O+Z/5NhRv0j/gOjgsPjIqMS4hFMnTqalnso8czor7WxORlpOZkZOdmbOucyccxk52Vm5Oefyci9cys8vLCi4UlRcVHrr+q2K8oqaqtqGugdNjY+fNj/7KEZ9fQNCoWRw8C3ESA7zDUICgTFGAAr1O8ljjF1jDAcEZEJAInn3Ub/+OACxeEgkei0SvRYKJR8rQ3/8I/hXEAABEJA5ASgUFAoEQAAEQAAEQAAEpCYAhZIamcy1FwGAAAiAAAiAAAjInAAUCgoFAiAAAiAAAiAAAlITgEJJjUzm2osAQAAEQAAEQAAEZE4ACgWFAgEQAAEQAAEQAAGpCUChpEYmc+1FACAAAiAAAiAAAjInAIWCQoEACIAACIAACICA1ASgUFIjk7n2IgAQAAEQAAEQAAGZE4BCQaFAAARAAARAAARAQGoCUCipkclcexEACIAACIAACICAzAlAoaBQIAACIAACIAACICA1ASiU1Mhkrr0IAARAAARAAARAQOYEoFBQKBAAARAAARAAARCQmgAUSmpkMtdeBAACIAACIAACICBzAlAoKBQIgAAIgAAIgAAISE0ACiU1MplrLwIAARAAARAAARCQOQEoFBQKBEAABEAABEAABKQmAIWSGpnMtRcBgAAIgAAIgAAIyJwAFAoKBQIgAAIgAAIgAAJSE4BCSY1M5tqLAEAABEAABEAABGROAAoFhQIBEAABEAABEAABqQlAoaRGJnPtRQAgAAIgAAIgAAIyJ/B/yuulmdZTyd0AAAAASUVORK5CYII=;" vertex="1" parent="7">
                    <mxGeometry x="298.90000000000003" y="310" width="162.21" height="159.13" as="geometry"/>
                </mxCell>
                <mxCell id="19" value="" style="endArrow=none;html=1;exitX=0.064;exitY=1.046;exitDx=0;exitDy=0;exitPerimeter=0;" parent="7" edge="1">
                    <mxGeometry width="50" height="50" relative="1" as="geometry">
                        <mxPoint x="271.99999999999983" y="201.3800000000001" as="sourcePoint"/>
                        <mxPoint x="523.3199999999999" y="200" as="targetPoint"/>
                    </mxGeometry>
                </mxCell>
                <mxCell id="18" value="&lt;span style=&quot;font-size: 14px;&quot;&gt;XXXXXXXXXX&lt;/span&gt;" style="text;html=1;align=center;verticalAlign=middle;resizable=0;points=[];autosize=1;strokeColor=none;fillColor=none;" parent="7" vertex="1">
                    <mxGeometry x="280" y="170" width="120" height="30" as="geometry"/>
                </mxCell>
                <mxCell id="14" value="" style="endArrow=none;html=1;" parent="1" edge="1">
                    <mxGeometry width="50" height="50" relative="1" as="geometry">
                        <mxPoint x="40" y="133" as="sourcePoint"/>
                        <mxPoint x="800" y="133" as="targetPoint"/>
                    </mxGeometry>
                </mxCell>
                <mxCell id="26" value="Answer: No" style="text;html=1;align=center;verticalAlign=middle;resizable=0;points=[];autosize=1;strokeColor=none;fillColor=none;" vertex="1" parent="1">
                    <mxGeometry x="365" y="328" width="90" height="30" as="geometry"/>
                </mxCell>
            </root>
        </mxGraphModel>
    </diagram>
</mxfile>